<?xml version="1.0" encoding="UTF-8" standalone="no"?>
<!DOCTYPE svg PUBLIC "-//W3C//DTD SVG 1.1//EN"
 "http://www.w3.org/Graphics/SVG/1.1/DTD/svg11.dtd">
<!-- Generated by graphviz version 2.43.0 (0)
 -->
<!-- Title: %3 Pages: 1 -->
<svg width="4754pt" height="3443pt"
 viewBox="0.00 0.00 4754.00 3443.00" xmlns="http://www.w3.org/2000/svg" xmlns:xlink="http://www.w3.org/1999/xlink">
<g id="graph0" class="graph" transform="scale(1 1) rotate(0) translate(4 3439)">
<title>%3</title>
<polygon fill="white" stroke="transparent" points="-4,4 -4,-3439 4750,-3439 4750,4 -4,4"/>
<text text-anchor="start" x="2158" y="-11.8" font-family="Arial" font-size="34.00">Argos &#45; Argos &#45; Components</text>
<g id="clust1" class="cluster">
<title>cluster_3</title>
<polygon fill="none" stroke="#444444" points="8,-64 8,-3346 4738,-3346 4738,-64 8,-64"/>
<text text-anchor="start" x="2341" y="-92.8" font-family="Arial" font-size="24.00" fill="#444444">Argos</text>
<text text-anchor="start" x="2243" y="-72.8" font-family="Arial" font-size="19.00" fill="#444444">[Container: Python executable]</text>
</g>
<g id="clust2" class="cluster">
<title>cluster_group_Data Transfer Objects</title>
<polygon fill="none" stroke="#cccccc" points="2615,-579 2615,-1816 2923,-1816 2923,-579 2615,-579"/>
<text text-anchor="start" x="2651" y="-607.8" font-family="Arial" font-size="24.00" fill="#cccccc">Data Transfer Objects</text>
<text text-anchor="start" x="2737" y="-587.8" font-family="Arial" font-size="19.00" fill="#cccccc">[Group]</text>
</g>
<g id="clust3" class="cluster">
<title>cluster_group_Message Consumers</title>
<polygon fill="none" stroke="#cccccc" points="632,-1929 632,-3321 1545.5,-3321 1545.5,-1929 632,-1929"/>
<text text-anchor="start" x="974.25" y="-1957.8" font-family="Arial" font-size="24.00" fill="#cccccc">Message Consumers</text>
<text text-anchor="start" x="1056.75" y="-1937.8" font-family="Arial" font-size="19.00" fill="#cccccc">[Group]</text>
</g>
<g id="clust4" class="cluster">
<title>cluster_group_Model</title>
<polygon fill="none" stroke="#cccccc" points="1964.5,-2134 1964.5,-3012 4713,-3012 4713,-2134 1964.5,-2134"/>
<text text-anchor="start" x="3305.25" y="-2162.8" font-family="Arial" font-size="24.00" fill="#cccccc">Model</text>
<text text-anchor="start" x="3306.75" y="-2142.8" font-family="Arial" font-size="19.00" fill="#cccccc">[Group]</text>
</g>
<!-- 55 -->
<g id="55" class="node">
<title>55</title>
<polygon fill="#1168bd" stroke="#0b4884" points="2898,-1790.5 2640,-1790.5 2640,-1693.5 2898,-1693.5 2898,-1790.5"/>
<text text-anchor="start" x="2701.5" y="-1742.3" font-family="Arial" font-size="34.00" fill="#ffffff">Ref DTO</text>
<text text-anchor="start" x="2669" y="-1720.3" font-family="Arial" font-size="19.00" fill="#ffffff">[Component: dataclass]</text>
</g>
<!-- 56 -->
<g id="56" class="node">
<title>56</title>
<polygon fill="#1168bd" stroke="#0b4884" points="2898,-776.5 2640,-776.5 2640,-679.5 2898,-679.5 2898,-776.5"/>
<text text-anchor="start" x="2689" y="-728.3" font-family="Arial" font-size="34.00" fill="#ffffff">Artist DTO</text>
<text text-anchor="start" x="2669" y="-706.3" font-family="Arial" font-size="19.00" fill="#ffffff">[Component: dataclass]</text>
</g>
<!-- 57 -->
<g id="57" class="node">
<title>57</title>
<polygon fill="#1168bd" stroke="#0b4884" points="2898,-945.5 2640,-945.5 2640,-848.5 2898,-848.5 2898,-945.5"/>
<text text-anchor="start" x="2680" y="-897.3" font-family="Arial" font-size="34.00" fill="#ffffff">Album DTO</text>
<text text-anchor="start" x="2669" y="-875.3" font-family="Arial" font-size="19.00" fill="#ffffff">[Component: dataclass]</text>
</g>
<!-- 58 -->
<g id="58" class="node">
<title>58</title>
<polygon fill="#1168bd" stroke="#0b4884" points="2898,-1114.5 2640,-1114.5 2640,-1017.5 2898,-1017.5 2898,-1114.5"/>
<text text-anchor="start" x="2686" y="-1066.3" font-family="Arial" font-size="34.00" fill="#ffffff">Track DTO</text>
<text text-anchor="start" x="2669" y="-1044.3" font-family="Arial" font-size="19.00" fill="#ffffff">[Component: dataclass]</text>
</g>
<!-- 59 -->
<g id="59" class="node">
<title>59</title>
<polygon fill="#1168bd" stroke="#0b4884" points="2898,-1283.5 2640,-1283.5 2640,-1186.5 2898,-1186.5 2898,-1283.5"/>
<text text-anchor="start" x="2681" y="-1235.3" font-family="Arial" font-size="34.00" fill="#ffffff">Image DTO</text>
<text text-anchor="start" x="2669" y="-1213.3" font-family="Arial" font-size="19.00" fill="#ffffff">[Component: dataclass]</text>
</g>
<!-- 60 -->
<g id="60" class="node">
<title>60</title>
<polygon fill="#1168bd" stroke="#0b4884" points="2898,-1452.5 2640,-1452.5 2640,-1355.5 2898,-1355.5 2898,-1452.5"/>
<text text-anchor="start" x="2674" y="-1404.3" font-family="Arial" font-size="34.00" fill="#ffffff">Playlist DTO</text>
<text text-anchor="start" x="2669" y="-1382.3" font-family="Arial" font-size="19.00" fill="#ffffff">[Component: dataclass]</text>
</g>
<!-- 61 -->
<g id="61" class="node">
<title>61</title>
<polygon fill="#1168bd" stroke="#0b4884" points="2898,-1621.5 2640,-1621.5 2640,-1524.5 2898,-1524.5 2898,-1621.5"/>
<text text-anchor="start" x="2672" y="-1573.3" font-family="Arial" font-size="34.00" fill="#ffffff">TlTrack DTO</text>
<text text-anchor="start" x="2669" y="-1551.3" font-family="Arial" font-size="19.00" fill="#ffffff">[Component: dataclass]</text>
</g>
<!-- 78 -->
<g id="78" class="node">
<title>78</title>
<polygon fill="#1168bd" stroke="#0b4884" points="1520.5,-2541.5 1227.5,-2541.5 1227.5,-2444.5 1520.5,-2444.5 1520.5,-2541.5"/>
<text text-anchor="start" x="1256.5" y="-2493.3" font-family="Arial" font-size="34.00" fill="#ffffff">Base Controller</text>
<text text-anchor="start" x="1279" y="-2471.3" font-family="Arial" font-size="19.00" fill="#ffffff">[Component: GObject]</text>
</g>
<!-- 35 -->
<g id="35" class="node">
<title>35</title>
<polygon fill="#1168bd" stroke="#0b4884" points="2237.5,-2427.5 1989.5,-2427.5 1989.5,-2330.5 2237.5,-2330.5 2237.5,-2427.5"/>
<text text-anchor="start" x="2067" y="-2379.3" font-family="Arial" font-size="34.00" fill="#ffffff">Model</text>
<text text-anchor="start" x="2018.5" y="-2357.3" font-family="Arial" font-size="19.00" fill="#ffffff">[Component: GObject]</text>
</g>
<!-- 78&#45;&gt;35 -->
<g id="79" class="edge">
<title>78&#45;&gt;35</title>
<path fill="none" stroke="#707070" stroke-dasharray="5,2" d="M1520.86,-2466.89C1537.38,-2460.15 1553.2,-2451.67 1567,-2441 1592.51,-2421.28 1575.11,-2394.19 1603,-2378 1716.88,-2311.91 1870.59,-2323.02 1979.3,-2343.89"/>
<polygon fill="#707070" stroke="#707070" points="1978.86,-2347.37 1989.35,-2345.87 1980.21,-2340.5 1978.86,-2347.37"/>
<text text-anchor="start" x="1619" y="-2384.8" font-family="Arial" font-size="24.00" fill="#707070">Update and Listen to</text>
</g>
<!-- 13 -->
<g id="13" class="node">
<title>13</title>
<polygon fill="#1168bd" stroke="#0b4884" points="2293,-3172.5 1934,-3172.5 1934,-3037.5 2293,-3037.5 2293,-3172.5"/>
<text text-anchor="start" x="2059" y="-3124.3" font-family="Arial" font-size="34.00" fill="#ffffff">Notifier</text>
<text text-anchor="start" x="2018.5" y="-3102.3" font-family="Arial" font-size="19.00" fill="#ffffff">[Component: GObject]</text>
<text text-anchor="start" x="1963" y="-3065.3" font-family="Arial" font-size="24.00" fill="#ffffff">Sends desktop notifications.</text>
</g>
<!-- 78&#45;&gt;13 -->
<g id="82" class="edge">
<title>78&#45;&gt;13</title>
<path fill="none" stroke="#707070" stroke-dasharray="5,2" d="M1409.31,-2541.56C1485.22,-2645.63 1677.95,-2891.86 1895,-3030 1904.45,-3036.01 1914.43,-3041.61 1924.73,-3046.81"/>
<polygon fill="#707070" stroke="#707070" points="1923.33,-3050.02 1933.85,-3051.27 1926.41,-3043.73 1923.33,-3050.02"/>
<text text-anchor="start" x="1641.5" y="-3002.8" font-family="Arial" font-size="24.00" fill="#707070">Send notification</text>
</g>
<!-- 5 -->
<g id="5" class="node">
<title>5</title>
<polygon fill="#cccccc" stroke="#8e8e8e" points="3682,-1912.5 3374,-1912.5 3374,-1815.5 3682,-1815.5 3682,-1912.5"/>
<text text-anchor="start" x="3403" y="-1864.3" font-family="Arial" font-size="34.00" fill="#ffffff">Message Queue</text>
<text text-anchor="start" x="3404.5" y="-1842.3" font-family="Arial" font-size="19.00" fill="#ffffff">[Component: asyncio Queue]</text>
</g>
<!-- 78&#45;&gt;5 -->
<g id="81" class="edge">
<title>78&#45;&gt;5</title>
<path fill="none" stroke="#707070" stroke-dasharray="5,2" d="M1520.8,-2471.37C1537.93,-2463.92 1553.92,-2454.05 1567,-2441 1610.04,-2398.04 1567.35,-2358.26 1603,-2309 1694.21,-2182.98 1751.36,-2175.74 1895,-2116 2159.4,-2006.04 3004.93,-1914.24 3363.63,-1879.22"/>
<polygon fill="#707070" stroke="#707070" points="3364.23,-1882.68 3373.84,-1878.22 3363.55,-1875.71 3364.23,-1882.68"/>
<text text-anchor="start" x="2368" y="-2008.8" font-family="Arial" font-size="24.00" fill="#707070">Put message in</text>
</g>
<!-- 9 -->
<g id="9" class="node">
<title>9</title>
<polygon fill="#1168bd" stroke="#0b4884" points="2332,-1221.5 1895,-1221.5 1895,-1062.5 2332,-1062.5 2332,-1221.5"/>
<text text-anchor="start" x="1961" y="-1173.3" font-family="Arial" font-size="34.00" fill="#ffffff">Mopidy HTTP Client</text>
<text text-anchor="start" x="2018.5" y="-1151.3" font-family="Arial" font-size="19.00" fill="#ffffff">[Component: GObject]</text>
<text text-anchor="start" x="1924" y="-1114.3" font-family="Arial" font-size="24.00" fill="#ffffff">Converts commands to JSON&#45;RPC</text>
<text text-anchor="start" x="1940.5" y="-1090.3" font-family="Arial" font-size="24.00" fill="#ffffff">requests matching Mopidy APIs.</text>
</g>
<!-- 78&#45;&gt;9 -->
<g id="80" class="edge">
<title>78&#45;&gt;9</title>
<path fill="none" stroke="#707070" stroke-dasharray="5,2" d="M1520.51,-2475.54C1538.46,-2467.55 1554.77,-2456.42 1567,-2441 1638.44,-2350.93 1541.64,-1504.22 1603,-1407 1666.34,-1306.64 1780.93,-1242.31 1885.42,-1202.21"/>
<polygon fill="#707070" stroke="#707070" points="1886.73,-1205.46 1894.85,-1198.65 1884.26,-1198.91 1886.73,-1205.46"/>
<text text-anchor="start" x="1646" y="-1413.8" font-family="Arial" font-size="24.00" fill="#707070">Send command</text>
</g>
<!-- 83 -->
<g id="83" class="node">
<title>83</title>
<polygon fill="#1168bd" stroke="#0b4884" points="1016,-2188.5 657,-2188.5 657,-2029.5 1016,-2029.5 1016,-2188.5"/>
<text text-anchor="start" x="689" y="-2140.3" font-family="Arial" font-size="34.00" fill="#ffffff">Playback Controller</text>
<text text-anchor="start" x="741.5" y="-2118.3" font-family="Arial" font-size="19.00" fill="#ffffff">[Component: GObject]</text>
<text text-anchor="start" x="690" y="-2081.3" font-family="Arial" font-size="24.00" fill="#ffffff">Maintains part of the model</text>
<text text-anchor="start" x="686" y="-2057.3" font-family="Arial" font-size="24.00" fill="#ffffff">dedicated to playback state.</text>
</g>
<!-- 83&#45;&gt;78 -->
<g id="84" class="edge">
<title>83&#45;&gt;78</title>
<path fill="none" stroke="#707070" stroke-dasharray="5,2" d="M980.67,-2188.66C997.54,-2200.07 1014.05,-2212.29 1029,-2225 1089.53,-2276.46 1102.5,-2293.88 1145,-2361 1165.86,-2393.94 1151.34,-2415.7 1181,-2441 1191.99,-2450.38 1204.52,-2458.08 1217.79,-2464.4"/>
<polygon fill="#707070" stroke="#707070" points="1216.53,-2467.67 1227.09,-2468.56 1219.39,-2461.28 1216.53,-2467.67"/>
<text text-anchor="start" x="1065" y="-2367.8" font-family="Arial" font-size="24.00" fill="#707070">Inherits</text>
</g>
<!-- 11 -->
<g id="11" class="node">
<title>11</title>
<polygon fill="#1168bd" stroke="#0b4884" points="1550,-1904.5 1198,-1904.5 1198,-1745.5 1550,-1745.5 1550,-1904.5"/>
<text text-anchor="start" x="1231" y="-1856.3" font-family="Arial" font-size="34.00" fill="#ffffff">Image Downloader</text>
<text text-anchor="start" x="1279" y="-1834.3" font-family="Arial" font-size="19.00" fill="#ffffff">[Component: GObject]</text>
<text text-anchor="start" x="1227" y="-1797.3" font-family="Arial" font-size="24.00" fill="#ffffff">Downloads images through</text>
<text text-anchor="start" x="1241.5" y="-1773.3" font-family="Arial" font-size="24.00" fill="#ffffff">Mopidy&#45;Local HTTP API.</text>
</g>
<!-- 83&#45;&gt;11 -->
<g id="85" class="edge">
<title>83&#45;&gt;11</title>
<path fill="none" stroke="#707070" stroke-dasharray="5,2" d="M1016.35,-2039.5C1020.85,-2035.25 1025.09,-2030.76 1029,-2026 1076.92,-1967.67 1009.01,-1910.64 1065,-1860 1098.4,-1829.8 1142.87,-1815.6 1187.6,-1810.17"/>
<polygon fill="#707070" stroke="#707070" points="1188.18,-1813.63 1197.75,-1809.08 1187.44,-1806.67 1188.18,-1813.63"/>
<text text-anchor="start" x="1077.5" y="-1866.8" font-family="Arial" font-size="24.00" fill="#707070">Uses</text>
</g>
<!-- 86 -->
<g id="86" class="node">
<title>86</title>
<polygon fill="#1168bd" stroke="#0b4884" points="996,-3295.5 677,-3295.5 677,-3160.5 996,-3160.5 996,-3295.5"/>
<text text-anchor="start" x="706" y="-3247.3" font-family="Arial" font-size="34.00" fill="#ffffff">Library Controller</text>
<text text-anchor="start" x="741.5" y="-3225.3" font-family="Arial" font-size="19.00" fill="#ffffff">[Component: GObject]</text>
<text text-anchor="start" x="725" y="-3188.3" font-family="Arial" font-size="24.00" fill="#ffffff">Maintains the library.</text>
</g>
<!-- 86&#45;&gt;78 -->
<g id="87" class="edge">
<title>86&#45;&gt;78</title>
<path fill="none" stroke="#707070" stroke-dasharray="5,2" d="M984.92,-3160.47C1000.78,-3149.87 1015.89,-3138.05 1029,-3125 1202.99,-2951.88 1312.54,-2672.22 1354.07,-2551.54"/>
<polygon fill="#707070" stroke="#707070" points="1357.5,-2552.33 1357.42,-2541.74 1350.87,-2550.07 1357.5,-2552.33"/>
<text text-anchor="start" x="1065" y="-3088.8" font-family="Arial" font-size="24.00" fill="#707070">Inherits</text>
</g>
<!-- 22 -->
<g id="22" class="node">
<title>22</title>
<polygon fill="#1168bd" stroke="#0b4884" points="2924,-2986.5 2614,-2986.5 2614,-2889.5 2924,-2889.5 2924,-2986.5"/>
<text text-anchor="start" x="2643" y="-2938.3" font-family="Arial" font-size="34.00" fill="#ffffff">Mopidy Backend</text>
<text text-anchor="start" x="2674" y="-2916.3" font-family="Arial" font-size="19.00" fill="#ffffff">[Component: GObject]</text>
</g>
<!-- 86&#45;&gt;22 -->
<g id="89" class="edge">
<title>86&#45;&gt;22</title>
<path fill="none" stroke="#707070" stroke-dasharray="5,2" d="M996.09,-3278.85C1310.26,-3369.83 2025.36,-3527.64 2535,-3265 2644.49,-3208.58 2713.83,-3074.26 2746.29,-2996.46"/>
<polygon fill="#707070" stroke="#707070" points="2749.7,-2997.38 2750.26,-2986.8 2743.22,-2994.72 2749.7,-2997.38"/>
<text text-anchor="start" x="1654" y="-3415.8" font-family="Arial" font-size="24.00" fill="#707070">Browse library</text>
</g>
<!-- 86&#45;&gt;11 -->
<g id="88" class="edge">
<title>86&#45;&gt;11</title>
<path fill="none" stroke="#707070" stroke-dasharray="5,2" d="M996.31,-3161.7C1009.03,-3151.1 1020.3,-3138.93 1029,-3125 1082.73,-3038.99 1043.78,-2312.17 1065,-2213 1084.95,-2119.79 1111.49,-2103.24 1145,-2014 1162.05,-1968.6 1148.2,-1946.71 1181,-1911 1183.92,-1907.82 1186.98,-1904.76 1190.16,-1901.79"/>
<polygon fill="#707070" stroke="#707070" points="1192.59,-1904.31 1197.78,-1895.08 1187.96,-1899.06 1192.59,-1904.31"/>
<text text-anchor="start" x="1077.5" y="-2219.8" font-family="Arial" font-size="24.00" fill="#707070">Uses</text>
</g>
<!-- 90 -->
<g id="90" class="node">
<title>90</title>
<polygon fill="#1168bd" stroke="#0b4884" points="1013,-2395.5 660,-2395.5 660,-2260.5 1013,-2260.5 1013,-2395.5"/>
<text text-anchor="start" x="701" y="-2347.3" font-family="Arial" font-size="34.00" fill="#ffffff">Albums Controller</text>
<text text-anchor="start" x="741.5" y="-2325.3" font-family="Arial" font-size="19.00" fill="#ffffff">[Component: GObject]</text>
<text text-anchor="start" x="689" y="-2288.3" font-family="Arial" font-size="24.00" fill="#ffffff">Maintains the album library.</text>
</g>
<!-- 90&#45;&gt;78 -->
<g id="91" class="edge">
<title>90&#45;&gt;78</title>
<path fill="none" stroke="#707070" stroke-dasharray="5,2" d="M1013,-2387.73C1066.73,-2405.48 1126.12,-2424.56 1181,-2441 1192.81,-2444.54 1205.06,-2448.1 1217.4,-2451.62"/>
<polygon fill="#707070" stroke="#707070" points="1216.74,-2455.06 1227.31,-2454.42 1218.64,-2448.33 1216.74,-2455.06"/>
<text text-anchor="start" x="1065" y="-2435.8" font-family="Arial" font-size="24.00" fill="#707070">Inherits</text>
</g>
<!-- 90&#45;&gt;22 -->
<g id="94" class="edge">
<title>90&#45;&gt;22</title>
<path fill="none" stroke="#707070" stroke-dasharray="5,2" d="M996.59,-2395.6C1009.16,-2406.17 1020.32,-2418.24 1029,-2432 1070.18,-2497.32 1012.79,-3069.11 1065,-3126 1256.15,-3334.3 2062.22,-3325.54 2332,-3241 2487.09,-3192.4 2635.36,-3067.02 2712.64,-2993.67"/>
<polygon fill="#707070" stroke="#707070" points="2715.09,-2996.18 2719.9,-2986.74 2710.25,-2991.12 2715.09,-2996.18"/>
<text text-anchor="start" x="1645" y="-3303.8" font-family="Arial" font-size="24.00" fill="#707070">Get albums URI</text>
</g>
<!-- 10 -->
<g id="10" class="node">
<title>10</title>
<polygon fill="#1168bd" stroke="#0b4884" points="1559.5,-1271.5 1188.5,-1271.5 1188.5,-1112.5 1559.5,-1112.5 1559.5,-1271.5"/>
<text text-anchor="start" x="1227" y="-1223.3" font-family="Arial" font-size="34.00" fill="#ffffff">Information Service</text>
<text text-anchor="start" x="1279" y="-1201.3" font-family="Arial" font-size="19.00" fill="#ffffff">[Component: GObject]</text>
<text text-anchor="start" x="1217.5" y="-1164.3" font-family="Arial" font-size="24.00" fill="#ffffff">Fetch data from Musicbrainz,</text>
<text text-anchor="start" x="1245" y="-1140.3" font-family="Arial" font-size="24.00" fill="#ffffff">Wikidata and Wikipedia.</text>
</g>
<!-- 90&#45;&gt;10 -->
<g id="93" class="edge">
<title>90&#45;&gt;10</title>
<path fill="none" stroke="#707070" stroke-dasharray="5,2" d="M997.05,-2260.24C1009.35,-2249.97 1020.33,-2238.28 1029,-2225 1083.97,-2140.82 1048.8,-1873.23 1065,-1774 1099.39,-1563.36 1054.29,-1479.75 1181,-1308 1188.83,-1297.39 1197.95,-1287.55 1207.88,-1278.47"/>
<polygon fill="#707070" stroke="#707070" points="1210.41,-1280.91 1215.62,-1271.68 1205.8,-1275.64 1210.41,-1280.91"/>
<text text-anchor="start" x="1077.5" y="-1780.8" font-family="Arial" font-size="24.00" fill="#707070">Uses</text>
</g>
<!-- 90&#45;&gt;11 -->
<g id="92" class="edge">
<title>90&#45;&gt;11</title>
<path fill="none" stroke="#707070" stroke-dasharray="5,2" d="M995.3,-2260.38C1008.13,-2250.05 1019.7,-2238.31 1029,-2225 1093.55,-2132.62 1000.64,-2066.51 1065,-1974 1095.04,-1930.83 1141.14,-1899.69 1188.61,-1877.44"/>
<polygon fill="#707070" stroke="#707070" points="1190.15,-1880.58 1197.8,-1873.24 1187.25,-1874.21 1190.15,-1880.58"/>
<text text-anchor="start" x="1077.5" y="-1980.8" font-family="Arial" font-size="24.00" fill="#707070">Uses</text>
</g>
<!-- 95 -->
<g id="95" class="node">
<title>95</title>
<polygon fill="#1168bd" stroke="#0b4884" points="1012,-2626.5 661,-2626.5 661,-2467.5 1012,-2467.5 1012,-2626.5"/>
<text text-anchor="start" x="695" y="-2578.3" font-family="Arial" font-size="34.00" fill="#ffffff">Playlists Controller</text>
<text text-anchor="start" x="741.5" y="-2556.3" font-family="Arial" font-size="19.00" fill="#ffffff">[Component: GObject]</text>
<text text-anchor="start" x="690" y="-2519.3" font-family="Arial" font-size="24.00" fill="#ffffff">Maintains part of the model</text>
<text text-anchor="start" x="720.5" y="-2495.3" font-family="Arial" font-size="24.00" fill="#ffffff">dedicated to playlists.</text>
</g>
<!-- 95&#45;&gt;78 -->
<g id="96" class="edge">
<title>95&#45;&gt;78</title>
<path fill="none" stroke="#707070" stroke-dasharray="5,2" d="M1012.1,-2529.39C1078.16,-2522.73 1152.85,-2515.2 1217.08,-2508.72"/>
<polygon fill="#707070" stroke="#707070" points="1217.7,-2512.18 1227.3,-2507.69 1217,-2505.21 1217.7,-2512.18"/>
<text text-anchor="start" x="1065" y="-2529.8" font-family="Arial" font-size="24.00" fill="#707070">Inherits</text>
</g>
<!-- 97 -->
<g id="97" class="node">
<title>97</title>
<polygon fill="#1168bd" stroke="#0b4884" points="1012,-2857.5 661,-2857.5 661,-2698.5 1012,-2698.5 1012,-2857.5"/>
<text text-anchor="start" x="695" y="-2809.3" font-family="Arial" font-size="34.00" fill="#ffffff">Tracklist Controller</text>
<text text-anchor="start" x="741.5" y="-2787.3" font-family="Arial" font-size="19.00" fill="#ffffff">[Component: GObject]</text>
<text text-anchor="start" x="690" y="-2750.3" font-family="Arial" font-size="24.00" fill="#ffffff">Maintains part of the model</text>
<text text-anchor="start" x="702.5" y="-2726.3" font-family="Arial" font-size="24.00" fill="#ffffff">dedicated to the tracklist.</text>
</g>
<!-- 97&#45;&gt;78 -->
<g id="98" class="edge">
<title>97&#45;&gt;78</title>
<path fill="none" stroke="#707070" stroke-dasharray="5,2" d="M987.02,-2698.42C1078.2,-2649.9 1192.26,-2589.19 1272.67,-2546.4"/>
<polygon fill="#707070" stroke="#707070" points="1274.63,-2549.32 1281.82,-2541.53 1271.35,-2543.14 1274.63,-2549.32"/>
<text text-anchor="start" x="1065" y="-2658.8" font-family="Arial" font-size="24.00" fill="#707070">Inherits</text>
</g>
<!-- 99 -->
<g id="99" class="node">
<title>99</title>
<polygon fill="#1168bd" stroke="#0b4884" points="1012,-3088.5 661,-3088.5 661,-2929.5 1012,-2929.5 1012,-3088.5"/>
<text text-anchor="start" x="701" y="-3040.3" font-family="Arial" font-size="34.00" fill="#ffffff">Volume Controller</text>
<text text-anchor="start" x="741.5" y="-3018.3" font-family="Arial" font-size="19.00" fill="#ffffff">[Component: GObject]</text>
<text text-anchor="start" x="690" y="-2981.3" font-family="Arial" font-size="24.00" fill="#ffffff">Maintains part of the model</text>
<text text-anchor="start" x="734.5" y="-2957.3" font-family="Arial" font-size="24.00" fill="#ffffff">dedicated to mixer.</text>
</g>
<!-- 99&#45;&gt;78 -->
<g id="100" class="edge">
<title>99&#45;&gt;78</title>
<path fill="none" stroke="#707070" stroke-dasharray="5,2" d="M981.66,-2929.41C998.18,-2918.28 1014.33,-2906.39 1029,-2894 1155.19,-2787.44 1274.05,-2632.39 1333.46,-2549.79"/>
<polygon fill="#707070" stroke="#707070" points="1336.4,-2551.7 1339.37,-2541.54 1330.7,-2547.63 1336.4,-2551.7"/>
<text text-anchor="start" x="1065" y="-2861.8" font-family="Arial" font-size="24.00" fill="#707070">Inherits</text>
</g>
<!-- 17 -->
<g id="17" class="node">
<title>17</title>
<polygon fill="#1168bd" stroke="#0b4884" points="2901,-2479.5 2637,-2479.5 2637,-2382.5 2901,-2382.5 2901,-2479.5"/>
<text text-anchor="start" x="2666" y="-2431.3" font-family="Arial" font-size="34.00" fill="#ffffff">Library Model</text>
<text text-anchor="start" x="2674" y="-2409.3" font-family="Arial" font-size="19.00" fill="#ffffff">[Component: GObject]</text>
</g>
<!-- 44 -->
<g id="44" class="node">
<title>44</title>
<polygon fill="#1168bd" stroke="#0b4884" points="3676.5,-2627.5 3379.5,-2627.5 3379.5,-2530.5 3676.5,-2530.5 3676.5,-2627.5"/>
<text text-anchor="start" x="3408.5" y="-2579.3" font-family="Arial" font-size="34.00" fill="#ffffff">Directory Model</text>
<text text-anchor="start" x="3433" y="-2557.3" font-family="Arial" font-size="19.00" fill="#ffffff">[Component: GObject]</text>
</g>
<!-- 17&#45;&gt;44 -->
<g id="47" class="edge">
<title>17&#45;&gt;44</title>
<path fill="none" stroke="#707070" stroke-dasharray="5,2" d="M2901.43,-2456.7C3031.57,-2482.14 3230.91,-2521.11 3369.46,-2548.2"/>
<polygon fill="#707070" stroke="#707070" points="3368.85,-2551.65 3379.33,-2550.13 3370.19,-2544.78 3368.85,-2551.65"/>
<text text-anchor="start" x="3099" y="-2559.8" font-family="Arial" font-size="24.00" fill="#707070">Contains a</text>
<text text-anchor="start" x="3092.5" y="-2539.8" font-family="Arial" font-size="19.00" fill="#707070">[Root directory]</text>
</g>
<!-- 18 -->
<g id="18" class="node">
<title>18</title>
<polygon fill="#1168bd" stroke="#0b4884" points="2918.5,-2648.5 2619.5,-2648.5 2619.5,-2551.5 2918.5,-2551.5 2918.5,-2648.5"/>
<text text-anchor="start" x="2648.5" y="-2600.3" font-family="Arial" font-size="34.00" fill="#ffffff">Playback Model</text>
<text text-anchor="start" x="2674" y="-2578.3" font-family="Arial" font-size="19.00" fill="#ffffff">[Component: GObject]</text>
</g>
<!-- 19 -->
<g id="19" class="node">
<title>19</title>
<polygon fill="#1168bd" stroke="#0b4884" points="2893,-2817.5 2645,-2817.5 2645,-2720.5 2893,-2720.5 2893,-2817.5"/>
<text text-anchor="start" x="2676" y="-2769.3" font-family="Arial" font-size="34.00" fill="#ffffff">Mixer Model</text>
<text text-anchor="start" x="2674" y="-2747.3" font-family="Arial" font-size="19.00" fill="#ffffff">[Component: GObject]</text>
</g>
<!-- 20 -->
<g id="20" class="node">
<title>20</title>
<polygon fill="#1168bd" stroke="#0b4884" points="3311,-2434.5 3003,-2434.5 3003,-2337.5 3311,-2337.5 3311,-2434.5"/>
<text text-anchor="start" x="3032" y="-2386.3" font-family="Arial" font-size="34.00" fill="#ffffff">Track List Model</text>
<text text-anchor="start" x="3062" y="-2364.3" font-family="Arial" font-size="19.00" fill="#ffffff">[Component: GObject]</text>
</g>
<!-- 43 -->
<g id="43" class="node">
<title>43</title>
<polygon fill="#1168bd" stroke="#0b4884" points="4688,-2453.5 4440,-2453.5 4440,-2356.5 4688,-2356.5 4688,-2453.5"/>
<text text-anchor="start" x="4470.5" y="-2405.3" font-family="Arial" font-size="34.00" fill="#ffffff">Track Model</text>
<text text-anchor="start" x="4469" y="-2383.3" font-family="Arial" font-size="19.00" fill="#ffffff">[Component: GObject]</text>
</g>
<!-- 20&#45;&gt;43 -->
<g id="52" class="edge">
<title>20&#45;&gt;43</title>
<path fill="none" stroke="#707070" stroke-dasharray="5,2" d="M3311.26,-2383.25C3462.08,-2381.1 3698.94,-2379.19 3904,-2384 4055.68,-2387.56 4093.35,-2395.25 4245,-2400 4305.65,-2401.9 4372.84,-2403.09 4429.76,-2403.83"/>
<polygon fill="#707070" stroke="#707070" points="4429.86,-2407.33 4439.9,-2403.96 4429.95,-2400.33 4429.86,-2407.33"/>
<text text-anchor="start" x="3745" y="-2390.8" font-family="Arial" font-size="24.00" fill="#707070">Contains list of</text>
</g>
<!-- 21 -->
<g id="21" class="node">
<title>21</title>
<polygon fill="#1168bd" stroke="#0b4884" points="4209,-2331.5 3940,-2331.5 3940,-2234.5 4209,-2234.5 4209,-2331.5"/>
<text text-anchor="start" x="3969" y="-2283.3" font-family="Arial" font-size="34.00" fill="#ffffff">Playlist Model</text>
<text text-anchor="start" x="3979.5" y="-2261.3" font-family="Arial" font-size="19.00" fill="#ffffff">[Component: GObject]</text>
</g>
<!-- 21&#45;&gt;43 -->
<g id="54" class="edge">
<title>21&#45;&gt;43</title>
<path fill="none" stroke="#707070" stroke-dasharray="5,2" d="M4209.3,-2312.91C4269.03,-2326.64 4340.2,-2343.5 4404,-2360 4412.48,-2362.19 4421.19,-2364.5 4429.97,-2366.87"/>
<polygon fill="#707070" stroke="#707070" points="4429.32,-2370.32 4439.89,-2369.56 4431.16,-2363.56 4429.32,-2370.32"/>
<text text-anchor="start" x="4245" y="-2366.8" font-family="Arial" font-size="24.00" fill="#707070">Contains list of</text>
</g>
<!-- 35&#45;&gt;17 -->
<g id="40" class="edge">
<title>35&#45;&gt;17</title>
<path fill="none" stroke="#707070" stroke-dasharray="5,2" d="M2237.8,-2388.81C2348.5,-2397.62 2510.94,-2410.55 2626.81,-2419.77"/>
<polygon fill="#707070" stroke="#707070" points="2626.57,-2423.26 2636.82,-2420.56 2627.13,-2416.28 2626.57,-2423.26"/>
<text text-anchor="start" x="2393.5" y="-2417.8" font-family="Arial" font-size="24.00" fill="#707070">Contains a</text>
</g>
<!-- 35&#45;&gt;18 -->
<g id="37" class="edge">
<title>35&#45;&gt;18</title>
<path fill="none" stroke="#707070" stroke-dasharray="5,2" d="M2237.59,-2401.54C2269.04,-2409.3 2302.34,-2419.33 2332,-2432 2349.46,-2439.46 2350.97,-2446.6 2368,-2455 2445.19,-2493.07 2534.98,-2526.52 2609.9,-2551.67"/>
<polygon fill="#707070" stroke="#707070" points="2608.84,-2555.01 2619.43,-2554.85 2611.06,-2548.37 2608.84,-2555.01"/>
<text text-anchor="start" x="2393.5" y="-2529.8" font-family="Arial" font-size="24.00" fill="#707070">Contains a</text>
</g>
<!-- 35&#45;&gt;19 -->
<g id="38" class="edge">
<title>35&#45;&gt;19</title>
<path fill="none" stroke="#707070" stroke-dasharray="5,2" d="M2237.59,-2385.84C2271.93,-2393.42 2306.72,-2407.26 2332,-2432 2376.38,-2475.43 2330.3,-2517.66 2368,-2567 2433.74,-2653.04 2546.23,-2705.23 2635.2,-2734.95"/>
<polygon fill="#707070" stroke="#707070" points="2634.24,-2738.31 2644.83,-2738.11 2636.42,-2731.66 2634.24,-2738.31"/>
<text text-anchor="start" x="2393.5" y="-2697.8" font-family="Arial" font-size="24.00" fill="#707070">Contains a</text>
</g>
<!-- 35&#45;&gt;20 -->
<g id="39" class="edge">
<title>35&#45;&gt;20</title>
<path fill="none" stroke="#707070" stroke-dasharray="5,2" d="M2237.67,-2363.67C2403.72,-2345.44 2708.42,-2320.6 2967,-2347 2975.54,-2347.87 2984.26,-2348.96 2993.04,-2350.21"/>
<polygon fill="#707070" stroke="#707070" points="2992.57,-2353.68 3002.97,-2351.69 2993.6,-2346.76 2992.57,-2353.68"/>
<text text-anchor="start" x="2393.5" y="-2356.8" font-family="Arial" font-size="24.00" fill="#707070">Contains a</text>
</g>
<!-- 35&#45;&gt;21 -->
<g id="41" class="edge">
<title>35&#45;&gt;21</title>
<path fill="none" stroke="#707070" stroke-dasharray="5,2" d="M2237.51,-2346.9C2278.72,-2337.34 2325.09,-2327.86 2368,-2322 2647.98,-2283.75 2720.51,-2297.11 3003,-2290 3139.85,-2286.55 3175.61,-2269.78 3311,-2290 3327.55,-2292.47 3330.45,-2298.53 3347,-2301 3506.12,-2324.77 3548.16,-2304.97 3709,-2301 3781.75,-2299.2 3862.59,-2295.4 3929.62,-2291.74"/>
<polygon fill="#707070" stroke="#707070" points="3930.03,-2295.23 3939.83,-2291.18 3929.65,-2288.24 3930.03,-2295.23"/>
<text text-anchor="start" x="3077.5" y="-2296.8" font-family="Arial" font-size="24.00" fill="#707070">Contains list of</text>
</g>
<!-- 35&#45;&gt;22 -->
<g id="42" class="edge">
<title>35&#45;&gt;22</title>
<path fill="none" stroke="#707070" stroke-dasharray="5,2" d="M2237.59,-2383.19C2272.77,-2390.55 2308.03,-2404.95 2332,-2432 2421.93,-2533.51 2293.75,-2621.52 2368,-2735 2421.63,-2816.97 2519.13,-2867.39 2604.44,-2897.49"/>
<polygon fill="#707070" stroke="#707070" points="2603.38,-2900.83 2613.98,-2900.79 2605.67,-2894.21 2603.38,-2900.83"/>
<text text-anchor="start" x="2372" y="-2874.8" font-family="Arial" font-size="24.00" fill="#707070">Contains list of</text>
</g>
<!-- 6 -->
<g id="6" class="node">
<title>6</title>
<polygon fill="#cccccc" stroke="#8e8e8e" points="2941,-2108.5 2597,-2108.5 2597,-2011.5 2941,-2011.5 2941,-2108.5"/>
<text text-anchor="start" x="2644.5" y="-2060.3" font-family="Arial" font-size="34.00" fill="#ffffff">Network Monitor</text>
<text text-anchor="start" x="2626" y="-2038.3" font-family="Arial" font-size="19.00" fill="#ffffff">[Component: Gio NetworkMonitor]</text>
</g>
<!-- 35&#45;&gt;6 -->
<g id="36" class="edge">
<title>35&#45;&gt;6</title>
<path fill="none" stroke="#707070" stroke-dasharray="5,2" d="M2237.61,-2372.83C2271.96,-2365.41 2306.74,-2351.7 2332,-2327 2377.01,-2282.98 2325.59,-2236.53 2368,-2190 2424.07,-2128.48 2509.53,-2095.97 2587.08,-2078.83"/>
<polygon fill="#707070" stroke="#707070" points="2587.93,-2082.23 2596.98,-2076.72 2586.47,-2075.39 2587.93,-2082.23"/>
<text text-anchor="start" x="2405.5" y="-2196.8" font-family="Arial" font-size="24.00" fill="#707070">Listen to</text>
</g>
<!-- 44&#45;&gt;21 -->
<g id="51" class="edge">
<title>44&#45;&gt;21</title>
<path fill="none" stroke="#707070" stroke-dasharray="5,2" d="M3661.44,-2530.43C3751.41,-2496.47 3861.49,-2452.75 3904,-2427 3944.97,-2402.18 3986.04,-2367.6 4017.48,-2338.55"/>
<polygon fill="#707070" stroke="#707070" points="4019.93,-2341.05 4024.86,-2331.68 4015.16,-2335.93 4019.93,-2341.05"/>
<text text-anchor="start" x="3745" y="-2502.8" font-family="Arial" font-size="24.00" fill="#707070">Contains list of</text>
</g>
<!-- 44&#45;&gt;44 -->
<g id="49" class="edge">
<title>44&#45;&gt;44</title>
<path fill="none" stroke="#707070" stroke-dasharray="5,2" d="M3478.91,-2627.57C3462.06,-2663.45 3478.43,-2699.5 3528,-2699.5 3573.12,-2699.5 3590.73,-2669.63 3580.83,-2637.22"/>
<polygon fill="#707070" stroke="#707070" points="3583.97,-2635.63 3577.09,-2627.57 3577.44,-2638.16 3583.97,-2635.63"/>
<text text-anchor="start" x="3448.5" y="-2706.3" font-family="Arial" font-size="24.00" fill="#707070">Contains list of</text>
</g>
<!-- 45 -->
<g id="45" class="node">
<title>45</title>
<polygon fill="#1168bd" stroke="#0b4884" points="4203,-2584.5 3946,-2584.5 3946,-2487.5 4203,-2487.5 4203,-2584.5"/>
<text text-anchor="start" x="3975" y="-2536.3" font-family="Arial" font-size="34.00" fill="#ffffff">Album Model</text>
<text text-anchor="start" x="3979.5" y="-2514.3" font-family="Arial" font-size="19.00" fill="#ffffff">[Component: GObject]</text>
</g>
<!-- 44&#45;&gt;45 -->
<g id="48" class="edge">
<title>44&#45;&gt;45</title>
<path fill="none" stroke="#707070" stroke-dasharray="5,2" d="M3676.71,-2567.34C3757.35,-2560.97 3856.57,-2553.13 3935.62,-2546.89"/>
<polygon fill="#707070" stroke="#707070" points="3935.95,-2550.37 3945.65,-2546.1 3935.4,-2543.4 3935.95,-2550.37"/>
<text text-anchor="start" x="3745" y="-2567.8" font-family="Arial" font-size="24.00" fill="#707070">Contains list of</text>
</g>
<!-- 46 -->
<g id="46" class="node">
<title>46</title>
<polygon fill="#1168bd" stroke="#0b4884" points="4205.5,-2757.5 3943.5,-2757.5 3943.5,-2660.5 4205.5,-2660.5 4205.5,-2757.5"/>
<text text-anchor="start" x="3972.5" y="-2709.3" font-family="Arial" font-size="34.00" fill="#ffffff">Tracks Model</text>
<text text-anchor="start" x="3979.5" y="-2687.3" font-family="Arial" font-size="19.00" fill="#ffffff">[Component: GObject]</text>
</g>
<!-- 44&#45;&gt;46 -->
<g id="50" class="edge">
<title>44&#45;&gt;46</title>
<path fill="none" stroke="#707070" stroke-dasharray="5,2" d="M3676.71,-2614.27C3756.59,-2633.34 3854.71,-2656.76 3933.39,-2675.55"/>
<polygon fill="#707070" stroke="#707070" points="3932.84,-2679.02 3943.38,-2677.93 3934.46,-2672.21 3932.84,-2679.02"/>
<text text-anchor="start" x="3745" y="-2672.8" font-family="Arial" font-size="24.00" fill="#707070">Contains list of</text>
</g>
<!-- 45&#45;&gt;43 -->
<g id="53" class="edge">
<title>45&#45;&gt;43</title>
<path fill="none" stroke="#707070" stroke-dasharray="5,2" d="M4203.27,-2501.67C4273.05,-2482.91 4359.37,-2459.72 4429.96,-2440.75"/>
<polygon fill="#707070" stroke="#707070" points="4431.07,-2444.08 4439.82,-2438.1 4429.25,-2437.32 4431.07,-2444.08"/>
<text text-anchor="start" x="4245" y="-2495.8" font-family="Arial" font-size="24.00" fill="#707070">Contains list of</text>
</g>
<!-- 4 -->
<g id="4" class="node">
<title>4</title>
<polygon fill="#cccccc" stroke="#8e8e8e" points="3709,-287.5 3347,-287.5 3347,-190.5 3709,-190.5 3709,-287.5"/>
<text text-anchor="start" x="3419" y="-239.3" font-family="Arial" font-size="34.00" fill="#ffffff">Client Session</text>
<text text-anchor="start" x="3376" y="-217.3" font-family="Arial" font-size="19.00" fill="#ffffff">[Component: aiohttp Client Session]</text>
</g>
<!-- 10&#45;&gt;4 -->
<g id="74" class="edge">
<title>10&#45;&gt;4</title>
<path fill="none" stroke="#707070" stroke-dasharray="5,2" d="M1421.1,-1112.48C1463.69,-1042.32 1531.08,-939.2 1603,-860 1893.29,-540.31 1973.86,-437.43 2368,-261 2684,-119.55 3098.67,-158.27 3336.7,-198.89"/>
<polygon fill="#707070" stroke="#707070" points="3336.4,-202.39 3346.85,-200.64 3337.59,-195.49 3336.4,-202.39"/>
<text text-anchor="start" x="2424" y="-267.8" font-family="Arial" font-size="24.00" fill="#707070">Uses</text>
</g>
<!-- 11&#45;&gt;4 -->
<g id="73" class="edge">
<title>11&#45;&gt;4</title>
<path fill="none" stroke="#707070" stroke-dasharray="5,2" d="M1550.05,-1748.81C1556.34,-1742.39 1562.05,-1735.47 1567,-1728 1632.46,-1629.23 1533.55,-1292.01 1603,-1196 1674.98,-1096.5 1767.11,-1173.48 1859,-1092 1883.71,-1070.09 1875.82,-1053.88 1895,-1027 1960.16,-935.67 2469.43,-324.63 2571,-277 2701.98,-215.58 3097.31,-220.15 3336.62,-229.34"/>
<polygon fill="#707070" stroke="#707070" points="3336.7,-232.85 3346.83,-229.74 3336.97,-225.85 3336.7,-232.85"/>
<text text-anchor="start" x="2424" y="-469.8" font-family="Arial" font-size="24.00" fill="#707070">Uses</text>
</g>
<!-- 12 -->
<g id="12" class="node">
<title>12</title>
<polygon fill="#1168bd" stroke="#0b4884" points="1567,-1502.5 1181,-1502.5 1181,-1343.5 1567,-1343.5 1567,-1502.5"/>
<text text-anchor="start" x="1210" y="-1454.3" font-family="Arial" font-size="34.00" fill="#ffffff">Time Position Tracker</text>
<text text-anchor="start" x="1279" y="-1432.3" font-family="Arial" font-size="19.00" fill="#ffffff">[Component: GObject]</text>
<text text-anchor="start" x="1220" y="-1395.3" font-family="Arial" font-size="24.00" fill="#ffffff">Periodically requests Mopidy</text>
<text text-anchor="start" x="1222" y="-1371.3" font-family="Arial" font-size="24.00" fill="#ffffff">server to track time position.</text>
</g>
<!-- 12&#45;&gt;35 -->
<g id="64" class="edge">
<title>12&#45;&gt;35</title>
<path fill="none" stroke="#707070" stroke-dasharray="5,2" d="M1567.03,-1443.35C1670.86,-1465.06 1791.35,-1509.82 1859,-1602 1954.44,-1732.05 1791.96,-2202.89 1895,-2327 1916.13,-2352.45 1947.28,-2366.72 1979.44,-2374.43"/>
<polygon fill="#707070" stroke="#707070" points="1978.93,-2377.9 1989.44,-2376.62 1980.42,-2371.06 1978.93,-2377.9"/>
<text text-anchor="start" x="1691.5" y="-1608.8" font-family="Arial" font-size="24.00" fill="#707070">Update</text>
</g>
<!-- 12&#45;&gt;9 -->
<g id="63" class="edge">
<title>12&#45;&gt;9</title>
<path fill="none" stroke="#707070" stroke-dasharray="5,2" d="M1537.14,-1343.23C1548.59,-1332.7 1558.82,-1320.99 1567,-1308 1612.8,-1235.3 1539.47,-980.86 1603,-923 1687.11,-846.38 1752.37,-883.32 1859,-923 1930.16,-949.48 1994.67,-1005.91 2040.8,-1054.85"/>
<polygon fill="#707070" stroke="#707070" points="2038.38,-1057.39 2047.76,-1062.32 2043.5,-1052.62 2038.38,-1057.39"/>
<text text-anchor="start" x="1703.5" y="-929.8" font-family="Arial" font-size="24.00" fill="#707070">Uses</text>
</g>
<!-- 14 -->
<g id="14" class="node">
<title>14</title>
<polygon fill="#1168bd" stroke="#0b4884" points="334,-2376.5 33,-2376.5 33,-2279.5 334,-2279.5 334,-2376.5"/>
<text text-anchor="start" x="100.5" y="-2328.3" font-family="Arial" font-size="34.00" fill="#ffffff">Application</text>
<text text-anchor="start" x="62" y="-2306.3" font-family="Arial" font-size="19.00" fill="#ffffff">[Component: GtkApplication]</text>
</g>
<!-- 14&#45;&gt;83 -->
<g id="101" class="edge">
<title>14&#45;&gt;83</title>
<path fill="none" stroke="#707070" stroke-dasharray="5,2" d="M328.98,-2279.4C422.69,-2247.87 545.76,-2206.47 647.12,-2172.37"/>
<polygon fill="#707070" stroke="#707070" points="648.5,-2175.6 656.86,-2169.1 646.27,-2168.97 648.5,-2175.6"/>
<text text-anchor="start" x="370" y="-2269.8" font-family="Arial" font-size="24.00" fill="#707070">Dispatch messages to</text>
</g>
<!-- 14&#45;&gt;86 -->
<g id="102" class="edge">
<title>14&#45;&gt;86</title>
<path fill="none" stroke="#707070" stroke-dasharray="5,2" d="M188.66,-2376.58C200.16,-2486.35 240.66,-2757.99 370,-2938 443.96,-3040.92 566.85,-3115.22 667.8,-3162.83"/>
<polygon fill="#707070" stroke="#707070" points="666.34,-3166.01 676.88,-3167.07 669.3,-3159.67 666.34,-3166.01"/>
<text text-anchor="start" x="370" y="-3138.8" font-family="Arial" font-size="24.00" fill="#707070">Dispatch messages to</text>
</g>
<!-- 14&#45;&gt;90 -->
<g id="103" class="edge">
<title>14&#45;&gt;90</title>
<path fill="none" stroke="#707070" stroke-dasharray="5,2" d="M334.26,-2328C428.09,-2328 549.75,-2328 649.71,-2328"/>
<polygon fill="#707070" stroke="#707070" points="649.93,-2331.5 659.93,-2328 649.93,-2324.5 649.93,-2331.5"/>
<text text-anchor="start" x="370" y="-2334.8" font-family="Arial" font-size="24.00" fill="#707070">Dispatch messages to</text>
</g>
<!-- 14&#45;&gt;95 -->
<g id="104" class="edge">
<title>14&#45;&gt;95</title>
<path fill="none" stroke="#707070" stroke-dasharray="5,2" d="M328.98,-2376.6C423.97,-2408.56 549.12,-2450.66 651.25,-2485.02"/>
<polygon fill="#707070" stroke="#707070" points="650.15,-2488.34 660.74,-2488.21 652.38,-2481.7 650.15,-2488.34"/>
<text text-anchor="start" x="370" y="-2475.8" font-family="Arial" font-size="24.00" fill="#707070">Dispatch messages to</text>
</g>
<!-- 14&#45;&gt;97 -->
<g id="105" class="edge">
<title>14&#45;&gt;97</title>
<path fill="none" stroke="#707070" stroke-dasharray="5,2" d="M226.76,-2376.79C262.49,-2416.33 316.31,-2472.02 370,-2513 460.76,-2582.28 571.55,-2646.07 662.27,-2693.69"/>
<polygon fill="#707070" stroke="#707070" points="660.78,-2696.86 671.26,-2698.4 664.02,-2690.66 660.78,-2696.86"/>
<text text-anchor="start" x="370" y="-2668.8" font-family="Arial" font-size="24.00" fill="#707070">Dispatch messages to</text>
</g>
<!-- 14&#45;&gt;99 -->
<g id="106" class="edge">
<title>14&#45;&gt;99</title>
<path fill="none" stroke="#707070" stroke-dasharray="5,2" d="M199.65,-2376.52C225.3,-2452.97 283.11,-2603.32 370,-2706 447.92,-2798.08 560.84,-2872.52 655.95,-2924.57"/>
<polygon fill="#707070" stroke="#707070" points="654.35,-2927.69 664.81,-2929.38 657.69,-2921.54 654.35,-2927.69"/>
<text text-anchor="start" x="370" y="-2900.8" font-family="Arial" font-size="24.00" fill="#707070">Dispatch messages to</text>
</g>
<!-- 14&#45;&gt;12 -->
<g id="16" class="edge">
<title>14&#45;&gt;12</title>
<path fill="none" stroke="#707070" stroke-dasharray="5,2" d="M195.74,-2279.39C231.2,-2138.5 355.15,-1729.18 632,-1560 795.03,-1460.37 1013.21,-1429.83 1170.55,-1421.97"/>
<polygon fill="#707070" stroke="#707070" points="1171,-1425.46 1180.83,-1421.49 1170.67,-1418.46 1171,-1425.46"/>
<text text-anchor="start" x="804.5" y="-1566.8" font-family="Arial" font-size="24.00" fill="#707070">Starts</text>
</g>
<!-- 14&#45;&gt;5 -->
<g id="62" class="edge">
<title>14&#45;&gt;5</title>
<path fill="none" stroke="#707070" stroke-dasharray="5,2" d="M183.86,-2279.22C184.57,-2149.53 202.53,-1790.57 370,-1563 619.06,-1224.55 776.01,-1189.06 1181,-1077 1472.84,-996.25 1636.46,-938.66 1859,-1144 1898.05,-1180.03 1866.14,-1213.39 1895,-1258 2048,-1494.56 2150.49,-1500.94 2368,-1680 2455.43,-1751.97 2464.24,-1796.21 2571,-1834 2643.39,-1859.62 3110.24,-1863.88 3363.75,-1864.27"/>
<polygon fill="#707070" stroke="#707070" points="3363.79,-1867.77 3373.8,-1864.28 3363.8,-1860.77 3363.79,-1867.77"/>
<text text-anchor="start" x="1603" y="-1176.8" font-family="Arial" font-size="24.00" fill="#707070">Get message from / Put</text>
<text text-anchor="start" x="1669" y="-1150.8" font-family="Arial" font-size="24.00" fill="#707070">message in</text>
</g>
<!-- 7 -->
<g id="7" class="node">
<title>7</title>
<polygon fill="#1168bd" stroke="#0b4884" points="1029,-1756.5 644,-1756.5 644,-1621.5 1029,-1621.5 1029,-1756.5"/>
<text text-anchor="start" x="726.5" y="-1708.3" font-family="Arial" font-size="34.00" fill="#ffffff">Argos Window</text>
<text text-anchor="start" x="681.5" y="-1686.3" font-family="Arial" font-size="19.00" fill="#ffffff">[Component: GtkApplicationWindow]</text>
<text text-anchor="start" x="673" y="-1649.3" font-family="Arial" font-size="24.00" fill="#ffffff">Implements the user interface.</text>
</g>
<!-- 14&#45;&gt;7 -->
<g id="15" class="edge">
<title>14&#45;&gt;7</title>
<path fill="none" stroke="#707070" stroke-dasharray="5,2" d="M232.73,-2279.24C270.06,-2241.6 323.12,-2188.31 370,-2142 505.72,-2007.94 665.34,-1853.24 758.01,-1763.72"/>
<polygon fill="#707070" stroke="#707070" points="760.63,-1766.06 765.39,-1756.6 755.76,-1761.03 760.63,-1766.06"/>
<text text-anchor="start" x="458" y="-2148.8" font-family="Arial" font-size="24.00" fill="#707070">Owns</text>
</g>
<!-- 7&#45;&gt;35 -->
<g id="77" class="edge">
<title>7&#45;&gt;35</title>
<path fill="none" stroke="#707070" stroke-dasharray="5,2" d="M1029.27,-1665.36C1214.76,-1646.41 1480.19,-1630.83 1567,-1684 1840.58,-1851.56 1642.92,-2128.56 1895,-2327 1919.29,-2346.12 1949.52,-2358.38 1979.63,-2366.19"/>
<polygon fill="#707070" stroke="#707070" points="1978.86,-2369.61 1989.4,-2368.58 1980.52,-2362.81 1978.86,-2369.61"/>
<text text-anchor="start" x="1328" y="-1690.8" font-family="Arial" font-size="24.00" fill="#707070">Listen to</text>
</g>
<!-- 8 -->
<g id="8" class="node">
<title>8</title>
<polygon fill="#1168bd" stroke="#0b4884" points="2967,-553.5 2571,-553.5 2571,-312.5 2967,-312.5 2967,-553.5"/>
<text text-anchor="start" x="2622.5" y="-505.3" font-family="Arial" font-size="34.00" fill="#ffffff">Mopidy WebSocket</text>
<text text-anchor="start" x="2683" y="-471.3" font-family="Arial" font-size="34.00" fill="#ffffff">Connection</text>
<text text-anchor="start" x="2674" y="-449.3" font-family="Arial" font-size="19.00" fill="#ffffff">[Component: GObject]</text>
<text text-anchor="start" x="2620" y="-412.3" font-family="Arial" font-size="24.00" fill="#ffffff">Sends JSON&#45;RPC requests</text>
<text text-anchor="start" x="2660.5" y="-388.3" font-family="Arial" font-size="24.00" fill="#ffffff">through websocket /</text>
<text text-anchor="start" x="2600" y="-364.3" font-family="Arial" font-size="24.00" fill="#ffffff">Deserialize Mopidy events from</text>
<text text-anchor="start" x="2708.5" y="-340.3" font-family="Arial" font-size="24.00" fill="#ffffff">websocket.</text>
</g>
<!-- 8&#45;&gt;4 -->
<g id="75" class="edge">
<title>8&#45;&gt;4</title>
<path fill="none" stroke="#707070" stroke-dasharray="5,2" d="M2967.41,-382.41C3081.49,-353.17 3224.28,-316.58 3337.07,-287.67"/>
<polygon fill="#707070" stroke="#707070" points="3338.04,-291.04 3346.86,-285.17 3336.3,-284.26 3338.04,-291.04"/>
<text text-anchor="start" x="3129.5" y="-376.8" font-family="Arial" font-size="24.00" fill="#707070">Uses</text>
</g>
<!-- 8&#45;&gt;5 -->
<g id="76" class="edge">
<title>8&#45;&gt;5</title>
<path fill="none" stroke="#707070" stroke-dasharray="5,2" d="M2960.51,-553.61C2962.73,-556.04 2964.9,-558.5 2967,-561 3308.16,-965.83 3471.28,-1609.79 3514.77,-1805.62"/>
<polygon fill="#707070" stroke="#707070" points="3511.36,-1806.41 3516.93,-1815.43 3518.19,-1804.91 3511.36,-1806.41"/>
<text text-anchor="start" x="3073.5" y="-1130.8" font-family="Arial" font-size="24.00" fill="#707070">Put message in</text>
</g>
<!-- 9&#45;&gt;55 -->
<g id="66" class="edge">
<title>9&#45;&gt;55</title>
<path fill="none" stroke="#707070" stroke-dasharray="5,2" d="M2158.93,-1221.74C2204.94,-1300.13 2282.06,-1420.56 2368,-1509 2445.99,-1589.26 2473.77,-1602.57 2571,-1658 2590.48,-1669.11 2611.73,-1679.64 2632.81,-1689.26"/>
<polygon fill="#707070" stroke="#707070" points="2631.6,-1692.56 2642.16,-1693.47 2634.48,-1686.17 2631.6,-1692.56"/>
<text text-anchor="start" x="2394.5" y="-1642.8" font-family="Arial" font-size="24.00" fill="#707070">Generates</text>
</g>
<!-- 9&#45;&gt;56 -->
<g id="67" class="edge">
<title>9&#45;&gt;56</title>
<path fill="none" stroke="#707070" stroke-dasharray="5,2" d="M2198.66,-1062.35C2246.4,-1019.17 2308.36,-966.33 2368,-925 2452.69,-866.3 2478.47,-858.35 2571,-813 2593.37,-802.04 2617.49,-791 2640.93,-780.68"/>
<polygon fill="#707070" stroke="#707070" points="2642.47,-783.83 2650.22,-776.61 2639.66,-777.41 2642.47,-783.83"/>
<text text-anchor="start" x="2394.5" y="-931.8" font-family="Arial" font-size="24.00" fill="#707070">Generates</text>
</g>
<!-- 9&#45;&gt;57 -->
<g id="68" class="edge">
<title>9&#45;&gt;57</title>
<path fill="none" stroke="#707070" stroke-dasharray="5,2" d="M2282.81,-1062.49C2311.03,-1050.07 2340.18,-1037.79 2368,-1027 2453.85,-993.7 2552.18,-961.66 2629.87,-937.72"/>
<polygon fill="#707070" stroke="#707070" points="2631.19,-940.98 2639.72,-934.69 2629.13,-934.28 2631.19,-940.98"/>
<text text-anchor="start" x="2394.5" y="-1033.8" font-family="Arial" font-size="24.00" fill="#707070">Generates</text>
</g>
<!-- 9&#45;&gt;58 -->
<g id="69" class="edge">
<title>9&#45;&gt;58</title>
<path fill="none" stroke="#707070" stroke-dasharray="5,2" d="M2332.22,-1091.46C2344.29,-1089.42 2356.27,-1087.58 2368,-1086 2454.39,-1074.38 2552.1,-1069.35 2629.32,-1067.23"/>
<polygon fill="#707070" stroke="#707070" points="2629.69,-1070.72 2639.6,-1066.96 2629.51,-1063.73 2629.69,-1070.72"/>
<text text-anchor="start" x="2394.5" y="-1092.8" font-family="Arial" font-size="24.00" fill="#707070">Generates</text>
</g>
<!-- 9&#45;&gt;59 -->
<g id="70" class="edge">
<title>9&#45;&gt;59</title>
<path fill="none" stroke="#707070" stroke-dasharray="5,2" d="M2332.11,-1172.97C2430.32,-1186.95 2543.41,-1203.04 2629.78,-1215.33"/>
<polygon fill="#707070" stroke="#707070" points="2629.51,-1218.83 2639.91,-1216.77 2630.5,-1211.9 2629.51,-1218.83"/>
<text text-anchor="start" x="2394.5" y="-1205.8" font-family="Arial" font-size="24.00" fill="#707070">Generates</text>
</g>
<!-- 9&#45;&gt;60 -->
<g id="71" class="edge">
<title>9&#45;&gt;60</title>
<path fill="none" stroke="#707070" stroke-dasharray="5,2" d="M2313.23,-1221.68C2418.34,-1263.81 2544.43,-1314.37 2637.15,-1351.54"/>
<polygon fill="#707070" stroke="#707070" points="2636,-1354.85 2646.59,-1355.32 2638.61,-1348.35 2636,-1354.85"/>
<text text-anchor="start" x="2394.5" y="-1310.8" font-family="Arial" font-size="24.00" fill="#707070">Generates</text>
</g>
<!-- 9&#45;&gt;61 -->
<g id="72" class="edge">
<title>9&#45;&gt;61</title>
<path fill="none" stroke="#707070" stroke-dasharray="5,2" d="M2203.04,-1221.8C2291.27,-1298.19 2433.13,-1412.77 2571,-1489 2591,-1500.06 2612.75,-1510.65 2634.27,-1520.36"/>
<polygon fill="#707070" stroke="#707070" points="2632.91,-1523.59 2643.47,-1524.47 2635.76,-1517.19 2632.91,-1523.59"/>
<text text-anchor="start" x="2394.5" y="-1471.8" font-family="Arial" font-size="24.00" fill="#707070">Generates</text>
</g>
<!-- 9&#45;&gt;8 -->
<g id="65" class="edge">
<title>9&#45;&gt;8</title>
<path fill="none" stroke="#707070" stroke-dasharray="5,2" d="M2162.76,-1062.02C2238.22,-941.87 2393.99,-712.74 2571,-561 2571.26,-560.78 2571.52,-560.55 2571.79,-560.33"/>
<polygon fill="#707070" stroke="#707070" points="2574.08,-562.97 2579.5,-553.86 2569.58,-557.61 2574.08,-562.97"/>
<text text-anchor="start" x="2424" y="-771.8" font-family="Arial" font-size="24.00" fill="#707070">Uses</text>
</g>
</g>
</svg>
