<?xml version="1.0" encoding="UTF-8" standalone="no"?>
<!DOCTYPE svg PUBLIC "-//W3C//DTD SVG 1.1//EN"
 "http://www.w3.org/Graphics/SVG/1.1/DTD/svg11.dtd">
<!-- Generated by graphviz version 2.43.0 (0)
 -->
<!-- Title: %3 Pages: 1 -->
<svg width="3609pt" height="2032pt"
 viewBox="0.00 0.00 3609.00 2032.00" xmlns="http://www.w3.org/2000/svg" xmlns:xlink="http://www.w3.org/1999/xlink">
<g id="graph0" class="graph" transform="scale(1 1) rotate(0) translate(4 2028)">
<title>%3</title>
<polygon fill="white" stroke="transparent" points="-4,4 -4,-2028 3605,-2028 3605,4 -4,4"/>
<text text-anchor="start" x="1585.5" y="-11.8" font-family="Arial" font-size="34.00">Argos &#45; Argos &#45; Components</text>
<g id="clust1" class="cluster">
<title>cluster_3</title>
<polygon fill="none" stroke="#444444" points="8,-64 8,-2016 3593,-2016 3593,-64 8,-64"/>
<text text-anchor="start" x="1768.5" y="-92.8" font-family="Arial" font-size="24.00" fill="#444444">Argos</text>
<text text-anchor="start" x="1670.5" y="-72.8" font-family="Arial" font-size="19.00" fill="#444444">[Container: Python executable]</text>
</g>
<g id="clust2" class="cluster">
<title>cluster_group_Message Consumers</title>
<polygon fill="none" stroke="#cccccc" points="632,-348 632,-1532 1545.5,-1532 1545.5,-348 632,-348"/>
<text text-anchor="start" x="974.25" y="-376.8" font-family="Arial" font-size="24.00" fill="#cccccc">Message Consumers</text>
<text text-anchor="start" x="1056.75" y="-356.8" font-family="Arial" font-size="19.00" fill="#cccccc">[Group]</text>
</g>
<g id="clust3" class="cluster">
<title>cluster_group_Model</title>
<polygon fill="none" stroke="#cccccc" points="1964.5,-779 1964.5,-1847 3536,-1847 3536,-779 1964.5,-779"/>
<text text-anchor="start" x="2716.75" y="-807.8" font-family="Arial" font-size="24.00" fill="#cccccc">Model</text>
<text text-anchor="start" x="2718.25" y="-787.8" font-family="Arial" font-size="19.00" fill="#cccccc">[Group]</text>
</g>
<!-- 50 -->
<g id="50" class="node">
<title>50</title>
<polygon fill="#1168bd" stroke="#0b4884" points="1520.5,-679.5 1227.5,-679.5 1227.5,-582.5 1520.5,-582.5 1520.5,-679.5"/>
<text text-anchor="start" x="1256.5" y="-631.3" font-family="Arial" font-size="34.00" fill="#ffffff">Base Controller</text>
<text text-anchor="start" x="1279" y="-609.3" font-family="Arial" font-size="19.00" fill="#ffffff">[Component: GObject]</text>
</g>
<!-- 30 -->
<g id="30" class="node">
<title>30</title>
<polygon fill="#1168bd" stroke="#0b4884" points="2237.5,-1554.5 1989.5,-1554.5 1989.5,-1457.5 2237.5,-1457.5 2237.5,-1554.5"/>
<text text-anchor="start" x="2067" y="-1506.3" font-family="Arial" font-size="34.00" fill="#ffffff">Model</text>
<text text-anchor="start" x="2018.5" y="-1484.3" font-family="Arial" font-size="19.00" fill="#ffffff">[Component: GObject]</text>
</g>
<!-- 50&#45;&gt;30 -->
<g id="51" class="edge">
<title>50&#45;&gt;30</title>
<path fill="none" stroke="#707070" stroke-dasharray="5,2" d="M1520.88,-654.8C1537.78,-662.12 1553.7,-671.64 1567,-684 1601.91,-716.44 1568.11,-752.53 1603,-785 1689.43,-865.44 1784.74,-764.2 1859,-856 1942.73,-959.5 1809.43,-1352.02 1895,-1454 1916.2,-1479.27 1947.29,-1493.49 1979.36,-1501.22"/>
<polygon fill="#707070" stroke="#707070" points="1978.82,-1504.68 1989.34,-1503.41 1980.32,-1497.85 1978.82,-1504.68"/>
<text text-anchor="start" x="1619" y="-862.8" font-family="Arial" font-size="24.00" fill="#707070">Update and Listen to</text>
</g>
<!-- 12 -->
<g id="12" class="node">
<title>12</title>
<polygon fill="#1168bd" stroke="#0b4884" points="2293,-373.5 1934,-373.5 1934,-238.5 2293,-238.5 2293,-373.5"/>
<text text-anchor="start" x="2059" y="-325.3" font-family="Arial" font-size="34.00" fill="#ffffff">Notifier</text>
<text text-anchor="start" x="2018.5" y="-303.3" font-family="Arial" font-size="19.00" fill="#ffffff">[Component: GObject]</text>
<text text-anchor="start" x="1963" y="-266.3" font-family="Arial" font-size="24.00" fill="#ffffff">Sends desktop notifications.</text>
</g>
<!-- 50&#45;&gt;12 -->
<g id="54" class="edge">
<title>50&#45;&gt;12</title>
<path fill="none" stroke="#707070" stroke-dasharray="5,2" d="M1520.67,-610.58C1538.03,-602.97 1554.12,-592.73 1567,-579 1621.92,-520.45 1545.83,-458.35 1603,-402 1686.22,-319.97 1816.06,-296.45 1923.84,-293.19"/>
<polygon fill="#707070" stroke="#707070" points="1923.96,-296.69 1933.87,-292.94 1923.79,-289.69 1923.96,-296.69"/>
<text text-anchor="start" x="1641.5" y="-408.8" font-family="Arial" font-size="24.00" fill="#707070">Send notification</text>
</g>
<!-- 5 -->
<g id="5" class="node">
<title>5</title>
<polygon fill="#cccccc" stroke="#8e8e8e" points="3541,-607.5 3233,-607.5 3233,-510.5 3541,-510.5 3541,-607.5"/>
<text text-anchor="start" x="3262" y="-559.3" font-family="Arial" font-size="34.00" fill="#ffffff">Message Queue</text>
<text text-anchor="start" x="3263.5" y="-537.3" font-family="Arial" font-size="19.00" fill="#ffffff">[Component: asyncio Queue]</text>
</g>
<!-- 50&#45;&gt;5 -->
<g id="53" class="edge">
<title>50&#45;&gt;5</title>
<path fill="none" stroke="#707070" stroke-dasharray="5,2" d="M1520.52,-591.83C1536.22,-587.53 1551.95,-583.2 1567,-579 1713.08,-538.29 1746.37,-515.11 1895,-485 2379.76,-386.78 2508.55,-393.58 3003,-381 3077.2,-379.11 3100.14,-355.92 3170,-381 3205.42,-393.71 3277.04,-456.2 3328.1,-503.58"/>
<polygon fill="#707070" stroke="#707070" points="3325.78,-506.19 3335.48,-510.45 3330.55,-501.07 3325.78,-506.19"/>
<text text-anchor="start" x="2368" y="-413.8" font-family="Arial" font-size="24.00" fill="#707070">Put message in</text>
</g>
<!-- 9 -->
<g id="9" class="node">
<title>9</title>
<polygon fill="#1168bd" stroke="#0b4884" points="2332,-679.5 1895,-679.5 1895,-520.5 2332,-520.5 2332,-679.5"/>
<text text-anchor="start" x="1961" y="-631.3" font-family="Arial" font-size="34.00" fill="#ffffff">Mopidy HTTP Client</text>
<text text-anchor="start" x="2018.5" y="-609.3" font-family="Arial" font-size="19.00" fill="#ffffff">[Component: GObject]</text>
<text text-anchor="start" x="1924" y="-572.3" font-family="Arial" font-size="24.00" fill="#ffffff">Converts commands to JSON&#45;RPC</text>
<text text-anchor="start" x="1940.5" y="-548.3" font-family="Arial" font-size="24.00" fill="#ffffff">requests matching Mopidy APIs.</text>
</g>
<!-- 50&#45;&gt;9 -->
<g id="52" class="edge">
<title>50&#45;&gt;9</title>
<path fill="none" stroke="#707070" stroke-dasharray="5,2" d="M1520.71,-624.88C1624.41,-620.52 1765.82,-614.57 1884.41,-609.59"/>
<polygon fill="#707070" stroke="#707070" points="1884.87,-613.07 1894.72,-609.15 1884.58,-606.08 1884.87,-613.07"/>
<text text-anchor="start" x="1646" y="-626.8" font-family="Arial" font-size="24.00" fill="#707070">Send command</text>
</g>
<!-- 55 -->
<g id="55" class="node">
<title>55</title>
<polygon fill="#1168bd" stroke="#0b4884" points="1016,-607.5 657,-607.5 657,-448.5 1016,-448.5 1016,-607.5"/>
<text text-anchor="start" x="689" y="-559.3" font-family="Arial" font-size="34.00" fill="#ffffff">Playback Controller</text>
<text text-anchor="start" x="741.5" y="-537.3" font-family="Arial" font-size="19.00" fill="#ffffff">[Component: GObject]</text>
<text text-anchor="start" x="690" y="-500.3" font-family="Arial" font-size="24.00" fill="#ffffff">Maintains part of the model</text>
<text text-anchor="start" x="686" y="-476.3" font-family="Arial" font-size="24.00" fill="#ffffff">dedicated to playback state.</text>
</g>
<!-- 55&#45;&gt;50 -->
<g id="56" class="edge">
<title>55&#45;&gt;50</title>
<path fill="none" stroke="#707070" stroke-dasharray="5,2" d="M1016.14,-487.55C1060.66,-486.07 1106.6,-492.54 1145,-515 1173.17,-531.48 1155.25,-558.95 1181,-579 1192.18,-587.7 1204.71,-594.95 1217.87,-600.99"/>
<polygon fill="#707070" stroke="#707070" points="1216.5,-604.21 1227.07,-604.98 1219.29,-597.79 1216.5,-604.21"/>
<text text-anchor="start" x="1065" y="-521.8" font-family="Arial" font-size="24.00" fill="#707070">Inherits</text>
</g>
<!-- 10 -->
<g id="10" class="node">
<title>10</title>
<polygon fill="#1168bd" stroke="#0b4884" points="1550,-323.5 1198,-323.5 1198,-164.5 1550,-164.5 1550,-323.5"/>
<text text-anchor="start" x="1231" y="-275.3" font-family="Arial" font-size="34.00" fill="#ffffff">Image Downloader</text>
<text text-anchor="start" x="1279" y="-253.3" font-family="Arial" font-size="19.00" fill="#ffffff">[Component: GObject]</text>
<text text-anchor="start" x="1227" y="-216.3" font-family="Arial" font-size="24.00" fill="#ffffff">Downloads images through</text>
<text text-anchor="start" x="1241.5" y="-192.3" font-family="Arial" font-size="24.00" fill="#ffffff">Mopidy&#45;Local HTTP API.</text>
</g>
<!-- 55&#45;&gt;10 -->
<g id="57" class="edge">
<title>55&#45;&gt;10</title>
<path fill="none" stroke="#707070" stroke-dasharray="5,2" d="M891.21,-448.25C932.19,-394.13 993.65,-325.93 1065,-289 1102.43,-269.63 1145.65,-257.88 1187.65,-250.92"/>
<polygon fill="#707070" stroke="#707070" points="1188.38,-254.34 1197.72,-249.33 1187.3,-247.43 1188.38,-254.34"/>
<text text-anchor="start" x="1077.5" y="-295.8" font-family="Arial" font-size="24.00" fill="#707070">Uses</text>
</g>
<!-- 58 -->
<g id="58" class="node">
<title>58</title>
<polygon fill="#1168bd" stroke="#0b4884" points="1013,-814.5 660,-814.5 660,-679.5 1013,-679.5 1013,-814.5"/>
<text text-anchor="start" x="701" y="-766.3" font-family="Arial" font-size="34.00" fill="#ffffff">Albums Controller</text>
<text text-anchor="start" x="741.5" y="-744.3" font-family="Arial" font-size="19.00" fill="#ffffff">[Component: GObject]</text>
<text text-anchor="start" x="689" y="-707.3" font-family="Arial" font-size="24.00" fill="#ffffff">Maintains the album library.</text>
</g>
<!-- 58&#45;&gt;50 -->
<g id="59" class="edge">
<title>58&#45;&gt;50</title>
<path fill="none" stroke="#707070" stroke-dasharray="5,2" d="M968.61,-679.46C989.09,-668.07 1009.8,-656.02 1029,-644 1045.73,-633.52 1046.22,-624.07 1065,-618 1113,-602.48 1167.41,-600.15 1217,-603.4"/>
<polygon fill="#707070" stroke="#707070" points="1216.94,-606.91 1227.17,-604.15 1217.46,-599.93 1216.94,-606.91"/>
<text text-anchor="start" x="1065" y="-624.8" font-family="Arial" font-size="24.00" fill="#707070">Inherits</text>
</g>
<!-- 21 -->
<g id="21" class="node">
<title>21</title>
<polygon fill="#1168bd" stroke="#0b4884" points="2924,-976.5 2614,-976.5 2614,-879.5 2924,-879.5 2924,-976.5"/>
<text text-anchor="start" x="2643" y="-928.3" font-family="Arial" font-size="34.00" fill="#ffffff">Mopidy Backend</text>
<text text-anchor="start" x="2674" y="-906.3" font-family="Arial" font-size="19.00" fill="#ffffff">[Component: GObject]</text>
</g>
<!-- 58&#45;&gt;21 -->
<g id="61" class="edge">
<title>58&#45;&gt;21</title>
<path fill="none" stroke="#707070" stroke-dasharray="5,2" d="M989.92,-814.63C1004.42,-825.31 1017.84,-837.4 1029,-851 1063.24,-892.73 1021.54,-934.98 1065,-967 1093.63,-988.09 1109.45,-967.43 1145,-967 1348.6,-964.56 1399.4,-958.44 1603,-956 1716.77,-954.63 1746.47,-939.19 1859,-956 1875.55,-958.47 1878.45,-964.53 1895,-967 2176.32,-1009.02 2251.53,-990.56 2535,-967 2557.34,-965.14 2580.77,-962.3 2603.79,-958.98"/>
<polygon fill="#707070" stroke="#707070" points="2604.6,-962.4 2613.98,-957.47 2603.58,-955.47 2604.6,-962.4"/>
<text text-anchor="start" x="1645" y="-962.8" font-family="Arial" font-size="24.00" fill="#707070">Get albums URI</text>
</g>
<!-- 58&#45;&gt;10 -->
<g id="60" class="edge">
<title>58&#45;&gt;10</title>
<path fill="none" stroke="#707070" stroke-dasharray="5,2" d="M994.34,-679.38C1007.45,-669.03 1019.35,-657.29 1029,-644 1081.82,-571.28 1023.15,-524.54 1065,-445 1098.8,-380.75 1121.13,-371.06 1181,-330 1183.71,-328.14 1186.47,-326.31 1189.27,-324.5"/>
<polygon fill="#707070" stroke="#707070" points="1191.17,-327.43 1197.77,-319.14 1187.45,-321.51 1191.17,-327.43"/>
<text text-anchor="start" x="1077.5" y="-451.8" font-family="Arial" font-size="24.00" fill="#707070">Uses</text>
</g>
<!-- 62 -->
<g id="62" class="node">
<title>62</title>
<polygon fill="#1168bd" stroke="#0b4884" points="1012,-1045.5 661,-1045.5 661,-886.5 1012,-886.5 1012,-1045.5"/>
<text text-anchor="start" x="695" y="-997.3" font-family="Arial" font-size="34.00" fill="#ffffff">Playlists Controller</text>
<text text-anchor="start" x="741.5" y="-975.3" font-family="Arial" font-size="19.00" fill="#ffffff">[Component: GObject]</text>
<text text-anchor="start" x="690" y="-938.3" font-family="Arial" font-size="24.00" fill="#ffffff">Maintains part of the model</text>
<text text-anchor="start" x="720.5" y="-914.3" font-family="Arial" font-size="24.00" fill="#ffffff">dedicated to playlists.</text>
</g>
<!-- 62&#45;&gt;50 -->
<g id="63" class="edge">
<title>62&#45;&gt;50</title>
<path fill="none" stroke="#707070" stroke-dasharray="5,2" d="M994.56,-886.45C1007.36,-875.77 1019.14,-863.97 1029,-851 1065.29,-803.28 1023.43,-764.2 1065,-721 1104.9,-679.53 1162.75,-656.87 1217.56,-644.6"/>
<polygon fill="#707070" stroke="#707070" points="1218.35,-648.01 1227.4,-642.5 1216.89,-641.17 1218.35,-648.01"/>
<text text-anchor="start" x="1065" y="-727.8" font-family="Arial" font-size="24.00" fill="#707070">Inherits</text>
</g>
<!-- 64 -->
<g id="64" class="node">
<title>64</title>
<polygon fill="#1168bd" stroke="#0b4884" points="1012,-1276.5 661,-1276.5 661,-1117.5 1012,-1117.5 1012,-1276.5"/>
<text text-anchor="start" x="695" y="-1228.3" font-family="Arial" font-size="34.00" fill="#ffffff">Tracklist Controller</text>
<text text-anchor="start" x="741.5" y="-1206.3" font-family="Arial" font-size="19.00" fill="#ffffff">[Component: GObject]</text>
<text text-anchor="start" x="690" y="-1169.3" font-family="Arial" font-size="24.00" fill="#ffffff">Maintains part of the model</text>
<text text-anchor="start" x="702.5" y="-1145.3" font-family="Arial" font-size="24.00" fill="#ffffff">dedicated to the tracklist.</text>
</g>
<!-- 64&#45;&gt;50 -->
<g id="65" class="edge">
<title>64&#45;&gt;50</title>
<path fill="none" stroke="#707070" stroke-dasharray="5,2" d="M998.16,-1117.18C1009.88,-1106.64 1020.44,-1094.94 1029,-1082 1092.87,-985.43 1007.35,-924.41 1065,-824 1087.53,-784.75 1116.88,-796.46 1145,-761 1168.48,-731.4 1152.14,-708.38 1181,-684 1192.05,-674.66 1204.62,-666.96 1217.92,-660.61"/>
<polygon fill="#707070" stroke="#707070" points="1219.54,-663.72 1227.23,-656.43 1216.67,-657.34 1219.54,-663.72"/>
<text text-anchor="start" x="1065" y="-830.8" font-family="Arial" font-size="24.00" fill="#707070">Inherits</text>
</g>
<!-- 66 -->
<g id="66" class="node">
<title>66</title>
<polygon fill="#1168bd" stroke="#0b4884" points="1012,-1507.5 661,-1507.5 661,-1348.5 1012,-1348.5 1012,-1507.5"/>
<text text-anchor="start" x="701" y="-1459.3" font-family="Arial" font-size="34.00" fill="#ffffff">Volume Controller</text>
<text text-anchor="start" x="741.5" y="-1437.3" font-family="Arial" font-size="19.00" fill="#ffffff">[Component: GObject]</text>
<text text-anchor="start" x="690" y="-1400.3" font-family="Arial" font-size="24.00" fill="#ffffff">Maintains part of the model</text>
<text text-anchor="start" x="734.5" y="-1376.3" font-family="Arial" font-size="24.00" fill="#ffffff">dedicated to mixer.</text>
</g>
<!-- 66&#45;&gt;50 -->
<g id="67" class="edge">
<title>66&#45;&gt;50</title>
<path fill="none" stroke="#707070" stroke-dasharray="5,2" d="M999.24,-1348.2C1010.65,-1337.67 1020.85,-1325.97 1029,-1313 1121.4,-1166 980.27,-1075.55 1065,-924 1086.69,-885.21 1121.3,-901.6 1145,-864 1188.5,-794.98 1125.42,-743.73 1181,-684 1191.53,-672.68 1204.24,-663.7 1218.04,-656.59"/>
<polygon fill="#707070" stroke="#707070" points="1219.75,-659.65 1227.26,-652.17 1216.73,-653.33 1219.75,-659.65"/>
<text text-anchor="start" x="1065" y="-930.8" font-family="Arial" font-size="24.00" fill="#707070">Inherits</text>
</g>
<!-- 16 -->
<g id="16" class="node">
<title>16</title>
<polygon fill="#1168bd" stroke="#0b4884" points="2918.5,-1145.5 2619.5,-1145.5 2619.5,-1048.5 2918.5,-1048.5 2918.5,-1145.5"/>
<text text-anchor="start" x="2648.5" y="-1097.3" font-family="Arial" font-size="34.00" fill="#ffffff">Playback Model</text>
<text text-anchor="start" x="2674" y="-1075.3" font-family="Arial" font-size="19.00" fill="#ffffff">[Component: GObject]</text>
</g>
<!-- 17 -->
<g id="17" class="node">
<title>17</title>
<polygon fill="#1168bd" stroke="#0b4884" points="2893,-1314.5 2645,-1314.5 2645,-1217.5 2893,-1217.5 2893,-1314.5"/>
<text text-anchor="start" x="2676" y="-1266.3" font-family="Arial" font-size="34.00" fill="#ffffff">Mixer Model</text>
<text text-anchor="start" x="2674" y="-1244.3" font-family="Arial" font-size="19.00" fill="#ffffff">[Component: GObject]</text>
</g>
<!-- 18 -->
<g id="18" class="node">
<title>18</title>
<polygon fill="#1168bd" stroke="#0b4884" points="2923,-1483.5 2615,-1483.5 2615,-1386.5 2923,-1386.5 2923,-1483.5"/>
<text text-anchor="start" x="2644" y="-1435.3" font-family="Arial" font-size="34.00" fill="#ffffff">Track List Model</text>
<text text-anchor="start" x="2674" y="-1413.3" font-family="Arial" font-size="19.00" fill="#ffffff">[Component: GObject]</text>
</g>
<!-- 38 -->
<g id="38" class="node">
<title>38</title>
<polygon fill="#1168bd" stroke="#0b4884" points="3511,-1652.5 3263,-1652.5 3263,-1555.5 3511,-1555.5 3511,-1652.5"/>
<text text-anchor="start" x="3293.5" y="-1604.3" font-family="Arial" font-size="34.00" fill="#ffffff">Track Model</text>
<text text-anchor="start" x="3292" y="-1582.3" font-family="Arial" font-size="19.00" fill="#ffffff">[Component: GObject]</text>
</g>
<!-- 18&#45;&gt;38 -->
<g id="39" class="edge">
<title>18&#45;&gt;38</title>
<path fill="none" stroke="#707070" stroke-dasharray="5,2" d="M2923.06,-1476.99C3024.34,-1504.78 3155.84,-1540.86 3252.8,-1567.46"/>
<polygon fill="#707070" stroke="#707070" points="3252.1,-1570.89 3262.66,-1570.16 3253.95,-1564.14 3252.1,-1570.89"/>
<text text-anchor="start" x="3007" y="-1550.8" font-family="Arial" font-size="24.00" fill="#707070">Contains list of</text>
</g>
<!-- 19 -->
<g id="19" class="node">
<title>19</title>
<polygon fill="#1168bd" stroke="#0b4884" points="2897.5,-1652.5 2640.5,-1652.5 2640.5,-1555.5 2897.5,-1555.5 2897.5,-1652.5"/>
<text text-anchor="start" x="2669.5" y="-1604.3" font-family="Arial" font-size="34.00" fill="#ffffff">Album Model</text>
<text text-anchor="start" x="2674" y="-1582.3" font-family="Arial" font-size="19.00" fill="#ffffff">[Component: GObject]</text>
</g>
<!-- 19&#45;&gt;38 -->
<g id="40" class="edge">
<title>19&#45;&gt;38</title>
<path fill="none" stroke="#707070" stroke-dasharray="5,2" d="M2897.64,-1604C3001.5,-1604 3147.63,-1604 3252.93,-1604"/>
<polygon fill="#707070" stroke="#707070" points="3252.99,-1607.5 3262.99,-1604 3252.99,-1600.5 3252.99,-1607.5"/>
<text text-anchor="start" x="3007" y="-1610.8" font-family="Arial" font-size="24.00" fill="#707070">Contains list of</text>
</g>
<!-- 20 -->
<g id="20" class="node">
<title>20</title>
<polygon fill="#1168bd" stroke="#0b4884" points="2903.5,-1821.5 2634.5,-1821.5 2634.5,-1724.5 2903.5,-1724.5 2903.5,-1821.5"/>
<text text-anchor="start" x="2663.5" y="-1773.3" font-family="Arial" font-size="34.00" fill="#ffffff">Playlist Model</text>
<text text-anchor="start" x="2674" y="-1751.3" font-family="Arial" font-size="19.00" fill="#ffffff">[Component: GObject]</text>
</g>
<!-- 20&#45;&gt;38 -->
<g id="41" class="edge">
<title>20&#45;&gt;38</title>
<path fill="none" stroke="#707070" stroke-dasharray="5,2" d="M2903.66,-1736.33C3007.1,-1707.95 3149.65,-1668.84 3252.94,-1640.51"/>
<polygon fill="#707070" stroke="#707070" points="3254.09,-1643.82 3262.81,-1637.8 3252.24,-1637.07 3254.09,-1643.82"/>
<text text-anchor="start" x="3007" y="-1714.8" font-family="Arial" font-size="24.00" fill="#707070">Contains list of</text>
</g>
<!-- 30&#45;&gt;16 -->
<g id="32" class="edge">
<title>30&#45;&gt;16</title>
<path fill="none" stroke="#707070" stroke-dasharray="5,2" d="M2171.89,-1457.49C2222.31,-1415.66 2298.3,-1354.52 2368,-1306 2454.77,-1245.59 2477.12,-1230.62 2571,-1182 2592.51,-1170.86 2615.81,-1159.89 2638.6,-1149.73"/>
<polygon fill="#707070" stroke="#707070" points="2640.25,-1152.83 2647.98,-1145.58 2637.42,-1146.42 2640.25,-1152.83"/>
<text text-anchor="start" x="2393.5" y="-1312.8" font-family="Arial" font-size="24.00" fill="#707070">Contains a</text>
</g>
<!-- 30&#45;&gt;17 -->
<g id="33" class="edge">
<title>30&#45;&gt;17</title>
<path fill="none" stroke="#707070" stroke-dasharray="5,2" d="M2237.8,-1458.84C2279.14,-1443.16 2325.51,-1425.69 2368,-1410 2456.81,-1377.2 2557.04,-1341.12 2634.95,-1313.28"/>
<polygon fill="#707070" stroke="#707070" points="2636.58,-1316.41 2644.82,-1309.75 2634.23,-1309.82 2636.58,-1316.41"/>
<text text-anchor="start" x="2393.5" y="-1416.8" font-family="Arial" font-size="24.00" fill="#707070">Contains a</text>
</g>
<!-- 30&#45;&gt;18 -->
<g id="34" class="edge">
<title>30&#45;&gt;18</title>
<path fill="none" stroke="#707070" stroke-dasharray="5,2" d="M2237.81,-1487.78C2279.14,-1481.99 2325.51,-1475.84 2368,-1471 2445.74,-1462.14 2532.19,-1454.13 2604.78,-1447.93"/>
<polygon fill="#707070" stroke="#707070" points="2605.26,-1451.4 2614.92,-1447.06 2604.66,-1444.42 2605.26,-1451.4"/>
<text text-anchor="start" x="2393.5" y="-1477.8" font-family="Arial" font-size="24.00" fill="#707070">Contains a</text>
</g>
<!-- 30&#45;&gt;19 -->
<g id="35" class="edge">
<title>30&#45;&gt;19</title>
<path fill="none" stroke="#707070" stroke-dasharray="5,2" d="M2237.8,-1524.49C2349.67,-1541.27 2514.37,-1565.97 2630.46,-1583.37"/>
<polygon fill="#707070" stroke="#707070" points="2630.08,-1586.86 2640.49,-1584.88 2631.12,-1579.93 2630.08,-1586.86"/>
<text text-anchor="start" x="2372" y="-1572.8" font-family="Arial" font-size="24.00" fill="#707070">Contains list of</text>
</g>
<!-- 30&#45;&gt;20 -->
<g id="36" class="edge">
<title>30&#45;&gt;20</title>
<path fill="none" stroke="#707070" stroke-dasharray="5,2" d="M2232.81,-1554.6C2275.41,-1572.09 2323.86,-1591.95 2368,-1610 2458.54,-1647.02 2560.67,-1688.64 2639.07,-1720.55"/>
<polygon fill="#707070" stroke="#707070" points="2637.93,-1723.87 2648.51,-1724.39 2640.57,-1717.38 2637.93,-1723.87"/>
<text text-anchor="start" x="2372" y="-1683.8" font-family="Arial" font-size="24.00" fill="#707070">Contains list of</text>
</g>
<!-- 30&#45;&gt;21 -->
<g id="37" class="edge">
<title>30&#45;&gt;21</title>
<path fill="none" stroke="#707070" stroke-dasharray="5,2" d="M2143.06,-1457.42C2186.08,-1386.72 2272.69,-1253.61 2368,-1159 2446.87,-1080.71 2474.3,-1067.78 2571,-1013 2591.13,-1001.59 2613.1,-990.72 2634.82,-980.79"/>
<polygon fill="#707070" stroke="#707070" points="2636.43,-983.9 2644.11,-976.59 2633.55,-977.52 2636.43,-983.9"/>
<text text-anchor="start" x="2372" y="-1165.8" font-family="Arial" font-size="24.00" fill="#707070">Contains list of</text>
</g>
<!-- 6 -->
<g id="6" class="node">
<title>6</title>
<polygon fill="#cccccc" stroke="#8e8e8e" points="2941,-1990.5 2597,-1990.5 2597,-1893.5 2941,-1893.5 2941,-1990.5"/>
<text text-anchor="start" x="2644.5" y="-1942.3" font-family="Arial" font-size="34.00" fill="#ffffff">Network Monitor</text>
<text text-anchor="start" x="2626" y="-1920.3" font-family="Arial" font-size="19.00" fill="#ffffff">[Component: Gio NetworkMonitor]</text>
</g>
<!-- 30&#45;&gt;6 -->
<g id="31" class="edge">
<title>30&#45;&gt;6</title>
<path fill="none" stroke="#707070" stroke-dasharray="5,2" d="M2164.1,-1554.62C2243.78,-1630.39 2407.95,-1777.03 2571,-1865 2586.95,-1873.61 2604.08,-1881.76 2621.33,-1889.31"/>
<polygon fill="#707070" stroke="#707070" points="2620.35,-1892.7 2630.92,-1893.44 2623.12,-1886.27 2620.35,-1892.7"/>
<text text-anchor="start" x="2405.5" y="-1847.8" font-family="Arial" font-size="24.00" fill="#707070">Listen to</text>
</g>
<!-- 4 -->
<g id="4" class="node">
<title>4</title>
<polygon fill="#cccccc" stroke="#8e8e8e" points="3568,-361.5 3206,-361.5 3206,-264.5 3568,-264.5 3568,-361.5"/>
<text text-anchor="start" x="3278" y="-313.3" font-family="Arial" font-size="34.00" fill="#ffffff">Client Session</text>
<text text-anchor="start" x="3235" y="-291.3" font-family="Arial" font-size="19.00" fill="#ffffff">[Component: aiohttp Client Session]</text>
</g>
<!-- 10&#45;&gt;4 -->
<g id="46" class="edge">
<title>10&#45;&gt;4</title>
<path fill="none" stroke="#707070" stroke-dasharray="5,2" d="M1550.2,-226.31C1650.94,-217.03 1779.95,-206.64 1895,-202 2089.06,-194.18 2138.05,-191.82 2332,-202 2634.96,-217.91 2984.9,-259.37 3195.62,-286.87"/>
<polygon fill="#707070" stroke="#707070" points="3195.18,-290.34 3205.55,-288.17 3196.08,-283.4 3195.18,-290.34"/>
<text text-anchor="start" x="2424" y="-221.8" font-family="Arial" font-size="24.00" fill="#707070">Uses</text>
</g>
<!-- 11 -->
<g id="11" class="node">
<title>11</title>
<polygon fill="#1168bd" stroke="#0b4884" points="1567,-1715.5 1181,-1715.5 1181,-1556.5 1567,-1556.5 1567,-1715.5"/>
<text text-anchor="start" x="1210" y="-1667.3" font-family="Arial" font-size="34.00" fill="#ffffff">Time Position Tracker</text>
<text text-anchor="start" x="1279" y="-1645.3" font-family="Arial" font-size="19.00" fill="#ffffff">[Component: GObject]</text>
<text text-anchor="start" x="1220" y="-1608.3" font-family="Arial" font-size="24.00" fill="#ffffff">Periodically requests Mopidy</text>
<text text-anchor="start" x="1222" y="-1584.3" font-family="Arial" font-size="24.00" fill="#ffffff">server to track time position.</text>
</g>
<!-- 11&#45;&gt;30 -->
<g id="44" class="edge">
<title>11&#45;&gt;30</title>
<path fill="none" stroke="#707070" stroke-dasharray="5,2" d="M1567.23,-1557.43C1579.23,-1553.89 1591.21,-1550.7 1603,-1548 1728.48,-1519.24 1875.33,-1509.59 1979.05,-1506.62"/>
<polygon fill="#707070" stroke="#707070" points="1979.36,-1510.12 1989.27,-1506.35 1979.18,-1503.12 1979.36,-1510.12"/>
<text text-anchor="start" x="1691.5" y="-1554.8" font-family="Arial" font-size="24.00" fill="#707070">Update</text>
</g>
<!-- 11&#45;&gt;9 -->
<g id="43" class="edge">
<title>11&#45;&gt;9</title>
<path fill="none" stroke="#707070" stroke-dasharray="5,2" d="M1562.5,-1556.19C1564.06,-1554.18 1565.56,-1552.11 1567,-1550 1617.59,-1475.59 1546.94,-811.38 1603,-741 1607.86,-734.9 1751.29,-695.5 1884.72,-659.9"/>
<polygon fill="#707070" stroke="#707070" points="1885.96,-663.19 1894.72,-657.23 1884.16,-656.43 1885.96,-663.19"/>
<text text-anchor="start" x="1703.5" y="-747.8" font-family="Arial" font-size="24.00" fill="#707070">Uses</text>
</g>
<!-- 13 -->
<g id="13" class="node">
<title>13</title>
<polygon fill="#1168bd" stroke="#0b4884" points="334,-1394.5 33,-1394.5 33,-1297.5 334,-1297.5 334,-1394.5"/>
<text text-anchor="start" x="100.5" y="-1346.3" font-family="Arial" font-size="34.00" fill="#ffffff">Application</text>
<text text-anchor="start" x="62" y="-1324.3" font-family="Arial" font-size="19.00" fill="#ffffff">[Component: GtkApplication]</text>
</g>
<!-- 13&#45;&gt;55 -->
<g id="68" class="edge">
<title>13&#45;&gt;55</title>
<path fill="none" stroke="#707070" stroke-dasharray="5,2" d="M190.33,-1297.45C204.6,-1196.57 249.38,-961.03 370,-809 442.18,-718.02 552.5,-649.58 647.63,-603.04"/>
<polygon fill="#707070" stroke="#707070" points="649.31,-606.11 656.78,-598.6 646.26,-599.81 649.31,-606.11"/>
<text text-anchor="start" x="370" y="-815.8" font-family="Arial" font-size="24.00" fill="#707070">Dispatch messages to</text>
</g>
<!-- 13&#45;&gt;58 -->
<g id="69" class="edge">
<title>13&#45;&gt;58</title>
<path fill="none" stroke="#707070" stroke-dasharray="5,2" d="M204.7,-1297.34C233.92,-1231.09 293.03,-1111.33 370,-1029 454.16,-938.97 573.4,-867.48 670.12,-819.01"/>
<polygon fill="#707070" stroke="#707070" points="671.72,-822.12 679.11,-814.53 668.6,-815.85 671.72,-822.12"/>
<text text-anchor="start" x="370" y="-1035.8" font-family="Arial" font-size="24.00" fill="#707070">Dispatch messages to</text>
</g>
<!-- 13&#45;&gt;62 -->
<g id="70" class="edge">
<title>13&#45;&gt;62</title>
<path fill="none" stroke="#707070" stroke-dasharray="5,2" d="M243.15,-1297.19C278.73,-1268.68 325.68,-1232.92 370,-1205 460.39,-1148.06 565.95,-1093.01 653.68,-1050.12"/>
<polygon fill="#707070" stroke="#707070" points="655.47,-1053.14 662.93,-1045.61 652.4,-1046.84 655.47,-1053.14"/>
<text text-anchor="start" x="370" y="-1211.8" font-family="Arial" font-size="24.00" fill="#707070">Dispatch messages to</text>
</g>
<!-- 13&#45;&gt;64 -->
<g id="71" class="edge">
<title>13&#45;&gt;64</title>
<path fill="none" stroke="#707070" stroke-dasharray="5,2" d="M334.26,-1311.72C428.46,-1290.16 550.7,-1262.18 650.88,-1239.26"/>
<polygon fill="#707070" stroke="#707070" points="651.84,-1242.63 660.81,-1236.98 650.28,-1235.8 651.84,-1242.63"/>
<text text-anchor="start" x="370" y="-1307.8" font-family="Arial" font-size="24.00" fill="#707070">Dispatch messages to</text>
</g>
<!-- 13&#45;&gt;66 -->
<g id="72" class="edge">
<title>13&#45;&gt;66</title>
<path fill="none" stroke="#707070" stroke-dasharray="5,2" d="M334.26,-1364.86C428.46,-1376.73 550.7,-1392.13 650.88,-1404.75"/>
<polygon fill="#707070" stroke="#707070" points="650.45,-1408.22 660.81,-1406 651.33,-1401.27 650.45,-1408.22"/>
<text text-anchor="start" x="370" y="-1405.8" font-family="Arial" font-size="24.00" fill="#707070">Dispatch messages to</text>
</g>
<!-- 13&#45;&gt;11 -->
<g id="15" class="edge">
<title>13&#45;&gt;11</title>
<path fill="none" stroke="#707070" stroke-dasharray="5,2" d="M273.28,-1394.59C303.65,-1410.63 338.03,-1428.15 370,-1443 484.08,-1495.98 510.18,-1518.68 632,-1550 810.71,-1595.94 1020.02,-1617.39 1170.51,-1627.37"/>
<polygon fill="#707070" stroke="#707070" points="1170.59,-1630.88 1180.79,-1628.04 1171.04,-1623.89 1170.59,-1630.88"/>
<text text-anchor="start" x="804.5" y="-1620.8" font-family="Arial" font-size="24.00" fill="#707070">Starts</text>
</g>
<!-- 13&#45;&gt;5 -->
<g id="42" class="edge">
<title>13&#45;&gt;5</title>
<path fill="none" stroke="#707070" stroke-dasharray="5,2" d="M233.21,-1394.62C269.26,-1429.26 320.51,-1475.73 370,-1511 478.74,-1588.49 506.14,-1613.42 632,-1658 828.84,-1727.73 1393.62,-1868.4 1567,-1752 1602.08,-1728.45 1571.67,-1692.35 1603,-1664 1691,-1584.36 1785.96,-1681.55 1859,-1588 1915.6,-1515.5 1829.91,-825.99 1895,-761 1937.18,-718.88 2908.58,-727.86 2967,-716 3075.05,-694.07 3192.08,-648.2 3274.92,-611.67"/>
<polygon fill="#707070" stroke="#707070" points="3276.37,-614.86 3284.09,-607.61 3273.53,-608.46 3276.37,-614.86"/>
<text text-anchor="start" x="1603" y="-1696.8" font-family="Arial" font-size="24.00" fill="#707070">Get message from / Put</text>
<text text-anchor="start" x="1669" y="-1670.8" font-family="Arial" font-size="24.00" fill="#707070">message in</text>
</g>
<!-- 7 -->
<g id="7" class="node">
<title>7</title>
<polygon fill="#1168bd" stroke="#0b4884" points="1029,-1990.5 644,-1990.5 644,-1855.5 1029,-1855.5 1029,-1990.5"/>
<text text-anchor="start" x="726.5" y="-1942.3" font-family="Arial" font-size="34.00" fill="#ffffff">Argos Window</text>
<text text-anchor="start" x="681.5" y="-1920.3" font-family="Arial" font-size="19.00" fill="#ffffff">[Component: GtkApplicationWindow]</text>
<text text-anchor="start" x="673" y="-1883.3" font-family="Arial" font-size="24.00" fill="#ffffff">Implements the user interface.</text>
</g>
<!-- 13&#45;&gt;7 -->
<g id="14" class="edge">
<title>13&#45;&gt;7</title>
<path fill="none" stroke="#707070" stroke-dasharray="5,2" d="M190.08,-1394.66C203.42,-1487.9 245.9,-1692.16 370,-1801 442.42,-1864.52 544.04,-1895.57 633.86,-1910.51"/>
<polygon fill="#707070" stroke="#707070" points="633.48,-1914 643.91,-1912.13 634.59,-1907.08 633.48,-1914"/>
<text text-anchor="start" x="458" y="-1910.8" font-family="Arial" font-size="24.00" fill="#707070">Owns</text>
</g>
<!-- 7&#45;&gt;30 -->
<g id="49" class="edge">
<title>7&#45;&gt;30</title>
<path fill="none" stroke="#707070" stroke-dasharray="5,2" d="M1029.08,-1921.64C1243.26,-1912.66 1594.69,-1875.1 1859,-1734 1941.12,-1690.16 2018.01,-1614.14 2065.11,-1562.02"/>
<polygon fill="#707070" stroke="#707070" points="2067.77,-1564.29 2071.84,-1554.51 2062.56,-1559.62 2067.77,-1564.29"/>
<text text-anchor="start" x="1328" y="-1917.8" font-family="Arial" font-size="24.00" fill="#707070">Listen to</text>
</g>
<!-- 8 -->
<g id="8" class="node">
<title>8</title>
<polygon fill="#1168bd" stroke="#0b4884" points="2967,-679.5 2571,-679.5 2571,-438.5 2967,-438.5 2967,-679.5"/>
<text text-anchor="start" x="2622.5" y="-631.3" font-family="Arial" font-size="34.00" fill="#ffffff">Mopidy WebSocket</text>
<text text-anchor="start" x="2683" y="-597.3" font-family="Arial" font-size="34.00" fill="#ffffff">Connection</text>
<text text-anchor="start" x="2674" y="-575.3" font-family="Arial" font-size="19.00" fill="#ffffff">[Component: GObject]</text>
<text text-anchor="start" x="2620" y="-538.3" font-family="Arial" font-size="24.00" fill="#ffffff">Sends JSON&#45;RPC requests</text>
<text text-anchor="start" x="2660.5" y="-514.3" font-family="Arial" font-size="24.00" fill="#ffffff">through websocket /</text>
<text text-anchor="start" x="2600" y="-490.3" font-family="Arial" font-size="24.00" fill="#ffffff">Deserialize Mopidy events from</text>
<text text-anchor="start" x="2708.5" y="-466.3" font-family="Arial" font-size="24.00" fill="#ffffff">websocket.</text>
</g>
<!-- 8&#45;&gt;4 -->
<g id="47" class="edge">
<title>8&#45;&gt;4</title>
<path fill="none" stroke="#707070" stroke-dasharray="5,2" d="M2967.02,-480.32C3061.18,-442.72 3171.3,-398.74 3255.01,-365.31"/>
<polygon fill="#707070" stroke="#707070" points="3256.32,-368.55 3264.31,-361.6 3253.73,-362.05 3256.32,-368.55"/>
<text text-anchor="start" x="3059" y="-471.8" font-family="Arial" font-size="24.00" fill="#707070">Uses</text>
</g>
<!-- 8&#45;&gt;5 -->
<g id="48" class="edge">
<title>8&#45;&gt;5</title>
<path fill="none" stroke="#707070" stroke-dasharray="5,2" d="M2967.02,-559C3049.39,-559 3143.98,-559 3222.42,-559"/>
<polygon fill="#707070" stroke="#707070" points="3222.88,-562.5 3232.88,-559 3222.88,-555.5 3222.88,-562.5"/>
<text text-anchor="start" x="3003" y="-565.8" font-family="Arial" font-size="24.00" fill="#707070">Put message in</text>
</g>
<!-- 9&#45;&gt;8 -->
<g id="45" class="edge">
<title>9&#45;&gt;8</title>
<path fill="none" stroke="#707070" stroke-dasharray="5,2" d="M2332.11,-586.35C2405.78,-581.73 2487.81,-576.58 2560.66,-572.01"/>
<polygon fill="#707070" stroke="#707070" points="2561.12,-575.49 2570.88,-571.37 2560.68,-568.5 2561.12,-575.49"/>
<text text-anchor="start" x="2424" y="-589.8" font-family="Arial" font-size="24.00" fill="#707070">Uses</text>
</g>
</g>
</svg>
