<?xml version="1.0" encoding="UTF-8" standalone="no"?>
<!DOCTYPE svg PUBLIC "-//W3C//DTD SVG 1.1//EN"
 "http://www.w3.org/Graphics/SVG/1.1/DTD/svg11.dtd">
<!-- Generated by graphviz version 2.43.0 (0)
 -->
<!-- Title: %3 Pages: 1 -->
<svg width="4728pt" height="3054pt"
 viewBox="0.00 0.00 4728.00 3054.00" xmlns="http://www.w3.org/2000/svg" xmlns:xlink="http://www.w3.org/1999/xlink">
<g id="graph0" class="graph" transform="scale(1 1) rotate(0) translate(4 3050)">
<title>%3</title>
<polygon fill="white" stroke="transparent" points="-4,4 -4,-3050 4724,-3050 4724,4 -4,4"/>
<text text-anchor="start" x="2145" y="-11.8" font-family="Arial" font-size="34.00">Argos &#45; Argos &#45; Components</text>
<g id="clust1" class="cluster">
<title>cluster_3</title>
<polygon fill="none" stroke="#444444" points="8,-64 8,-3038 4712,-3038 4712,-64 8,-64"/>
<text text-anchor="start" x="2328" y="-92.8" font-family="Arial" font-size="24.00" fill="#444444">Argos</text>
<text text-anchor="start" x="2230" y="-72.8" font-family="Arial" font-size="19.00" fill="#444444">[Container: Python executable]</text>
</g>
<g id="clust2" class="cluster">
<title>cluster_group_Data Transfer Objects</title>
<polygon fill="none" stroke="#cccccc" points="2589,-579 2589,-1816 2897,-1816 2897,-579 2589,-579"/>
<text text-anchor="start" x="2625" y="-607.8" font-family="Arial" font-size="24.00" fill="#cccccc">Data Transfer Objects</text>
<text text-anchor="start" x="2711" y="-587.8" font-family="Arial" font-size="19.00" fill="#cccccc">[Group]</text>
</g>
<g id="clust3" class="cluster">
<title>cluster_group_Message Consumers</title>
<polygon fill="none" stroke="#cccccc" points="619,-579 619,-1970 1519.5,-1970 1519.5,-579 619,-579"/>
<text text-anchor="start" x="954.75" y="-607.8" font-family="Arial" font-size="24.00" fill="#cccccc">Message Consumers</text>
<text text-anchor="start" x="1037.25" y="-587.8" font-family="Arial" font-size="19.00" fill="#cccccc">[Group]</text>
</g>
<g id="clust4" class="cluster">
<title>cluster_group_Model</title>
<polygon fill="none" stroke="#cccccc" points="1938.5,-2134 1938.5,-3013 4687,-3013 4687,-2134 1938.5,-2134"/>
<text text-anchor="start" x="3279.25" y="-2162.8" font-family="Arial" font-size="24.00" fill="#cccccc">Model</text>
<text text-anchor="start" x="3280.75" y="-2142.8" font-family="Arial" font-size="19.00" fill="#cccccc">[Group]</text>
</g>
<!-- 55 -->
<g id="55" class="node">
<title>55</title>
<polygon fill="#1168bd" stroke="#0b4884" points="2872,-1283.5 2614,-1283.5 2614,-1186.5 2872,-1186.5 2872,-1283.5"/>
<text text-anchor="start" x="2675.5" y="-1235.3" font-family="Arial" font-size="34.00" fill="#ffffff">Ref DTO</text>
<text text-anchor="start" x="2643" y="-1213.3" font-family="Arial" font-size="19.00" fill="#ffffff">[Component: dataclass]</text>
</g>
<!-- 56 -->
<g id="56" class="node">
<title>56</title>
<polygon fill="#1168bd" stroke="#0b4884" points="2872,-1452.5 2614,-1452.5 2614,-1355.5 2872,-1355.5 2872,-1452.5"/>
<text text-anchor="start" x="2663" y="-1404.3" font-family="Arial" font-size="34.00" fill="#ffffff">Artist DTO</text>
<text text-anchor="start" x="2643" y="-1382.3" font-family="Arial" font-size="19.00" fill="#ffffff">[Component: dataclass]</text>
</g>
<!-- 57 -->
<g id="57" class="node">
<title>57</title>
<polygon fill="#1168bd" stroke="#0b4884" points="2872,-1621.5 2614,-1621.5 2614,-1524.5 2872,-1524.5 2872,-1621.5"/>
<text text-anchor="start" x="2654" y="-1573.3" font-family="Arial" font-size="34.00" fill="#ffffff">Album DTO</text>
<text text-anchor="start" x="2643" y="-1551.3" font-family="Arial" font-size="19.00" fill="#ffffff">[Component: dataclass]</text>
</g>
<!-- 58 -->
<g id="58" class="node">
<title>58</title>
<polygon fill="#1168bd" stroke="#0b4884" points="2872,-1790.5 2614,-1790.5 2614,-1693.5 2872,-1693.5 2872,-1790.5"/>
<text text-anchor="start" x="2660" y="-1742.3" font-family="Arial" font-size="34.00" fill="#ffffff">Track DTO</text>
<text text-anchor="start" x="2643" y="-1720.3" font-family="Arial" font-size="19.00" fill="#ffffff">[Component: dataclass]</text>
</g>
<!-- 59 -->
<g id="59" class="node">
<title>59</title>
<polygon fill="#1168bd" stroke="#0b4884" points="2872,-776.5 2614,-776.5 2614,-679.5 2872,-679.5 2872,-776.5"/>
<text text-anchor="start" x="2655" y="-728.3" font-family="Arial" font-size="34.00" fill="#ffffff">Image DTO</text>
<text text-anchor="start" x="2643" y="-706.3" font-family="Arial" font-size="19.00" fill="#ffffff">[Component: dataclass]</text>
</g>
<!-- 60 -->
<g id="60" class="node">
<title>60</title>
<polygon fill="#1168bd" stroke="#0b4884" points="2872,-945.5 2614,-945.5 2614,-848.5 2872,-848.5 2872,-945.5"/>
<text text-anchor="start" x="2648" y="-897.3" font-family="Arial" font-size="34.00" fill="#ffffff">Playlist DTO</text>
<text text-anchor="start" x="2643" y="-875.3" font-family="Arial" font-size="19.00" fill="#ffffff">[Component: dataclass]</text>
</g>
<!-- 61 -->
<g id="61" class="node">
<title>61</title>
<polygon fill="#1168bd" stroke="#0b4884" points="2872,-1114.5 2614,-1114.5 2614,-1017.5 2872,-1017.5 2872,-1114.5"/>
<text text-anchor="start" x="2646" y="-1066.3" font-family="Arial" font-size="34.00" fill="#ffffff">TlTrack DTO</text>
<text text-anchor="start" x="2643" y="-1044.3" font-family="Arial" font-size="19.00" fill="#ffffff">[Component: dataclass]</text>
</g>
<!-- 78 -->
<g id="78" class="node">
<title>78</title>
<polygon fill="#1168bd" stroke="#0b4884" points="1494.5,-1455.5 1201.5,-1455.5 1201.5,-1358.5 1494.5,-1358.5 1494.5,-1455.5"/>
<text text-anchor="start" x="1230.5" y="-1407.3" font-family="Arial" font-size="34.00" fill="#ffffff">Base Controller</text>
<text text-anchor="start" x="1253" y="-1385.3" font-family="Arial" font-size="19.00" fill="#ffffff">[Component: GObject]</text>
</g>
<!-- 35 -->
<g id="35" class="node">
<title>35</title>
<polygon fill="#1168bd" stroke="#0b4884" points="2211.5,-2453.5 1963.5,-2453.5 1963.5,-2356.5 2211.5,-2356.5 2211.5,-2453.5"/>
<text text-anchor="start" x="2041" y="-2405.3" font-family="Arial" font-size="34.00" fill="#ffffff">Model</text>
<text text-anchor="start" x="1992.5" y="-2383.3" font-family="Arial" font-size="19.00" fill="#ffffff">[Component: GObject]</text>
</g>
<!-- 78&#45;&gt;35 -->
<g id="79" class="edge">
<title>78&#45;&gt;35</title>
<path fill="none" stroke="#707070" stroke-dasharray="5,2" d="M1494.61,-1425.78C1512.43,-1433.79 1528.67,-1444.84 1541,-1460 1619.69,-1556.74 1496.44,-1924.82 1577,-2020 1652.5,-2109.2 1754.56,-1993.38 1833,-2080 1915.15,-2170.72 1787.06,-2262.1 1869,-2353 1890.85,-2377.24 1921.8,-2391.17 1953.52,-2398.94"/>
<polygon fill="#707070" stroke="#707070" points="1952.85,-2402.38 1963.38,-2401.16 1954.39,-2395.55 1952.85,-2402.38"/>
<text text-anchor="start" x="1593" y="-2086.8" font-family="Arial" font-size="24.00" fill="#707070">Update and Listen to</text>
</g>
<!-- 13 -->
<g id="13" class="node">
<title>13</title>
<polygon fill="#1168bd" stroke="#0b4884" points="2267,-1442.5 1908,-1442.5 1908,-1307.5 2267,-1307.5 2267,-1442.5"/>
<text text-anchor="start" x="2033" y="-1394.3" font-family="Arial" font-size="34.00" fill="#ffffff">Notifier</text>
<text text-anchor="start" x="1992.5" y="-1372.3" font-family="Arial" font-size="19.00" fill="#ffffff">[Component: GObject]</text>
<text text-anchor="start" x="1937" y="-1335.3" font-family="Arial" font-size="24.00" fill="#ffffff">Sends desktop notifications.</text>
</g>
<!-- 78&#45;&gt;13 -->
<g id="82" class="edge">
<title>78&#45;&gt;13</title>
<path fill="none" stroke="#707070" stroke-dasharray="5,2" d="M1494.71,-1400.68C1610.17,-1395.67 1772.36,-1388.63 1897.76,-1383.19"/>
<polygon fill="#707070" stroke="#707070" points="1898.03,-1386.68 1907.87,-1382.75 1897.72,-1379.69 1898.03,-1386.68"/>
<text text-anchor="start" x="1615.5" y="-1402.8" font-family="Arial" font-size="24.00" fill="#707070">Send notification</text>
</g>
<!-- 5 -->
<g id="5" class="node">
<title>5</title>
<polygon fill="#cccccc" stroke="#8e8e8e" points="3656,-1912.5 3348,-1912.5 3348,-1815.5 3656,-1815.5 3656,-1912.5"/>
<text text-anchor="start" x="3377" y="-1864.3" font-family="Arial" font-size="34.00" fill="#ffffff">Message Queue</text>
<text text-anchor="start" x="3378.5" y="-1842.3" font-family="Arial" font-size="19.00" fill="#ffffff">[Component: asyncio Queue]</text>
</g>
<!-- 78&#45;&gt;5 -->
<g id="81" class="edge">
<title>78&#45;&gt;5</title>
<path fill="none" stroke="#707070" stroke-dasharray="5,2" d="M1494.52,-1368.25C1641.64,-1329.23 1850.02,-1274.42 1869,-1272 2061.66,-1247.4 2122.49,-1208.38 2306,-1272 2414.54,-1309.63 2454.3,-1330.98 2509,-1432 2551.71,-1510.87 2479.77,-1772.44 2545,-1834 2655.33,-1938.12 3095.18,-1908.89 3337.96,-1883.63"/>
<polygon fill="#707070" stroke="#707070" points="3338.36,-1887.11 3347.94,-1882.58 3337.63,-1880.14 3338.36,-1887.11"/>
<text text-anchor="start" x="2342" y="-1438.8" font-family="Arial" font-size="24.00" fill="#707070">Put message in</text>
</g>
<!-- 9 -->
<g id="9" class="node">
<title>9</title>
<polygon fill="#1168bd" stroke="#0b4884" points="2306,-1673.5 1869,-1673.5 1869,-1514.5 2306,-1514.5 2306,-1673.5"/>
<text text-anchor="start" x="1935" y="-1625.3" font-family="Arial" font-size="34.00" fill="#ffffff">Mopidy HTTP Client</text>
<text text-anchor="start" x="1992.5" y="-1603.3" font-family="Arial" font-size="19.00" fill="#ffffff">[Component: GObject]</text>
<text text-anchor="start" x="1898" y="-1566.3" font-family="Arial" font-size="24.00" fill="#ffffff">Converts commands to JSON&#45;RPC</text>
<text text-anchor="start" x="1914.5" y="-1542.3" font-family="Arial" font-size="24.00" fill="#ffffff">requests matching Mopidy APIs.</text>
</g>
<!-- 78&#45;&gt;9 -->
<g id="80" class="edge">
<title>78&#45;&gt;9</title>
<path fill="none" stroke="#707070" stroke-dasharray="5,2" d="M1494.71,-1443.95C1598.52,-1470.27 1740.11,-1506.17 1858.76,-1536.26"/>
<polygon fill="#707070" stroke="#707070" points="1858.16,-1539.71 1868.72,-1538.78 1859.88,-1532.93 1858.16,-1539.71"/>
<text text-anchor="start" x="1620" y="-1534.8" font-family="Arial" font-size="24.00" fill="#707070">Send command</text>
</g>
<!-- 83 -->
<g id="83" class="node">
<title>83</title>
<polygon fill="#1168bd" stroke="#0b4884" points="1003,-1276.5 644,-1276.5 644,-1117.5 1003,-1117.5 1003,-1276.5"/>
<text text-anchor="start" x="676" y="-1228.3" font-family="Arial" font-size="34.00" fill="#ffffff">Playback Controller</text>
<text text-anchor="start" x="728.5" y="-1206.3" font-family="Arial" font-size="19.00" fill="#ffffff">[Component: GObject]</text>
<text text-anchor="start" x="677" y="-1169.3" font-family="Arial" font-size="24.00" fill="#ffffff">Maintains part of the model</text>
<text text-anchor="start" x="673" y="-1145.3" font-family="Arial" font-size="24.00" fill="#ffffff">dedicated to playback state.</text>
</g>
<!-- 83&#45;&gt;78 -->
<g id="84" class="edge">
<title>83&#45;&gt;78</title>
<path fill="none" stroke="#707070" stroke-dasharray="5,2" d="M976.27,-1276.66C1031.58,-1303.79 1095.22,-1332.83 1155,-1355 1166.87,-1359.4 1179.27,-1363.61 1191.82,-1367.59"/>
<polygon fill="#707070" stroke="#707070" points="1190.85,-1370.95 1201.44,-1370.59 1192.93,-1364.27 1190.85,-1370.95"/>
<text text-anchor="start" x="1039" y="-1346.8" font-family="Arial" font-size="24.00" fill="#707070">Inherits</text>
</g>
<!-- 11 -->
<g id="11" class="node">
<title>11</title>
<polygon fill="#1168bd" stroke="#0b4884" points="1524,-554.5 1172,-554.5 1172,-395.5 1524,-395.5 1524,-554.5"/>
<text text-anchor="start" x="1205" y="-506.3" font-family="Arial" font-size="34.00" fill="#ffffff">Image Downloader</text>
<text text-anchor="start" x="1253" y="-484.3" font-family="Arial" font-size="19.00" fill="#ffffff">[Component: GObject]</text>
<text text-anchor="start" x="1201" y="-447.3" font-family="Arial" font-size="24.00" fill="#ffffff">Downloads images through</text>
<text text-anchor="start" x="1215.5" y="-423.3" font-family="Arial" font-size="24.00" fill="#ffffff">Mopidy&#45;Local HTTP API.</text>
</g>
<!-- 83&#45;&gt;11 -->
<g id="85" class="edge">
<title>83&#45;&gt;11</title>
<path fill="none" stroke="#707070" stroke-dasharray="5,2" d="M973.2,-1117.3C984.58,-1106.67 994.81,-1094.92 1003,-1082 1068.29,-979.01 1001.22,-925.94 1039,-810 1062.04,-739.28 1088.75,-730.95 1119,-663 1138.55,-619.08 1122.43,-596.36 1155,-561 1157.92,-557.83 1160.99,-554.76 1164.17,-551.81"/>
<polygon fill="#707070" stroke="#707070" points="1166.6,-554.33 1171.8,-545.1 1161.98,-549.07 1166.6,-554.33"/>
<text text-anchor="start" x="1051.5" y="-816.8" font-family="Arial" font-size="24.00" fill="#707070">Uses</text>
</g>
<!-- 86 -->
<g id="86" class="node">
<title>86</title>
<polygon fill="#1168bd" stroke="#0b4884" points="983,-1483.5 664,-1483.5 664,-1348.5 983,-1348.5 983,-1483.5"/>
<text text-anchor="start" x="693" y="-1435.3" font-family="Arial" font-size="34.00" fill="#ffffff">Library Controller</text>
<text text-anchor="start" x="728.5" y="-1413.3" font-family="Arial" font-size="19.00" fill="#ffffff">[Component: GObject]</text>
<text text-anchor="start" x="712" y="-1376.3" font-family="Arial" font-size="24.00" fill="#ffffff">Maintains the library.</text>
</g>
<!-- 86&#45;&gt;78 -->
<g id="87" class="edge">
<title>86&#45;&gt;78</title>
<path fill="none" stroke="#707070" stroke-dasharray="5,2" d="M983.04,-1413.27C1049.02,-1412.13 1125.4,-1410.82 1191.1,-1409.69"/>
<polygon fill="#707070" stroke="#707070" points="1191.19,-1413.18 1201.13,-1409.51 1191.07,-1406.19 1191.19,-1413.18"/>
<text text-anchor="start" x="1039" y="-1418.8" font-family="Arial" font-size="24.00" fill="#707070">Inherits</text>
</g>
<!-- 22 -->
<g id="22" class="node">
<title>22</title>
<polygon fill="#1168bd" stroke="#0b4884" points="2898,-2987.5 2588,-2987.5 2588,-2890.5 2898,-2890.5 2898,-2987.5"/>
<text text-anchor="start" x="2617" y="-2939.3" font-family="Arial" font-size="34.00" fill="#ffffff">Mopidy Backend</text>
<text text-anchor="start" x="2648" y="-2917.3" font-family="Arial" font-size="19.00" fill="#ffffff">[Component: GObject]</text>
</g>
<!-- 86&#45;&gt;22 -->
<g id="89" class="edge">
<title>86&#45;&gt;22</title>
<path fill="none" stroke="#707070" stroke-dasharray="5,2" d="M969.06,-1483.58C982.03,-1494.25 993.73,-1506.35 1003,-1520 1006.96,-1525.83 1150.33,-2518.71 1155,-2524 1522.78,-2940.48 2251.75,-2963.19 2577.75,-2950.42"/>
<polygon fill="#707070" stroke="#707070" points="2577.91,-2953.92 2587.76,-2950.02 2577.62,-2946.93 2577.91,-2953.92"/>
<text text-anchor="start" x="1628" y="-2891.8" font-family="Arial" font-size="24.00" fill="#707070">Browse library</text>
</g>
<!-- 86&#45;&gt;11 -->
<g id="88" class="edge">
<title>86&#45;&gt;11</title>
<path fill="none" stroke="#707070" stroke-dasharray="5,2" d="M971.56,-1348.38C983.69,-1338.02 994.52,-1326.27 1003,-1313 1099.33,-1162.21 953.13,-1068.99 1039,-912 1060.59,-872.53 1096.74,-889.09 1119,-850 1183.06,-737.52 1078.03,-665.07 1155,-561 1157.97,-556.99 1161.16,-553.16 1164.55,-549.51"/>
<polygon fill="#707070" stroke="#707070" points="1167.2,-551.81 1171.78,-542.26 1162.25,-546.87 1167.2,-551.81"/>
<text text-anchor="start" x="1051.5" y="-918.8" font-family="Arial" font-size="24.00" fill="#707070">Uses</text>
</g>
<!-- 90 -->
<g id="90" class="node">
<title>90</title>
<polygon fill="#1168bd" stroke="#0b4884" points="988,-814.5 659,-814.5 659,-679.5 988,-679.5 988,-814.5"/>
<text text-anchor="start" x="688" y="-766.3" font-family="Arial" font-size="34.00" fill="#ffffff">Albums Controller</text>
<text text-anchor="start" x="728.5" y="-744.3" font-family="Arial" font-size="19.00" fill="#ffffff">[Component: GObject]</text>
<text text-anchor="start" x="725.5" y="-707.3" font-family="Arial" font-size="24.00" fill="#ffffff">Complete albums.</text>
</g>
<!-- 90&#45;&gt;78 -->
<g id="91" class="edge">
<title>90&#45;&gt;78</title>
<path fill="none" stroke="#707070" stroke-dasharray="5,2" d="M964.47,-814.7C978.71,-825.46 991.97,-837.55 1003,-851 1034.28,-889.15 1017.3,-911.69 1039,-956 1067.52,-1014.23 1096.47,-1017.2 1119,-1078 1140.57,-1136.21 1114.17,-1308.24 1155,-1355 1165.34,-1366.84 1178.08,-1376.12 1192.03,-1383.37"/>
<polygon fill="#707070" stroke="#707070" points="1190.83,-1386.67 1201.36,-1387.84 1193.85,-1380.36 1190.83,-1386.67"/>
<text text-anchor="start" x="1039" y="-1084.8" font-family="Arial" font-size="24.00" fill="#707070">Inherits</text>
</g>
<!-- 10 -->
<g id="10" class="node">
<title>10</title>
<polygon fill="#1168bd" stroke="#0b4884" points="1533.5,-323.5 1162.5,-323.5 1162.5,-164.5 1533.5,-164.5 1533.5,-323.5"/>
<text text-anchor="start" x="1201" y="-275.3" font-family="Arial" font-size="34.00" fill="#ffffff">Information Service</text>
<text text-anchor="start" x="1253" y="-253.3" font-family="Arial" font-size="19.00" fill="#ffffff">[Component: GObject]</text>
<text text-anchor="start" x="1191.5" y="-216.3" font-family="Arial" font-size="24.00" fill="#ffffff">Fetch data from Musicbrainz,</text>
<text text-anchor="start" x="1219" y="-192.3" font-family="Arial" font-size="24.00" fill="#ffffff">Wikidata and Wikipedia.</text>
</g>
<!-- 90&#45;&gt;10 -->
<g id="93" class="edge">
<title>90&#45;&gt;10</title>
<path fill="none" stroke="#707070" stroke-dasharray="5,2" d="M871.78,-679.31C931.36,-597.18 1039.98,-457.62 1155,-360 1167.53,-349.36 1181.16,-339.08 1195.17,-329.32"/>
<polygon fill="#707070" stroke="#707070" points="1197.19,-332.18 1203.45,-323.64 1193.23,-326.41 1197.19,-332.18"/>
<text text-anchor="start" x="1051.5" y="-472.8" font-family="Arial" font-size="24.00" fill="#707070">Uses</text>
</g>
<!-- 90&#45;&gt;11 -->
<g id="92" class="edge">
<title>90&#45;&gt;11</title>
<path fill="none" stroke="#707070" stroke-dasharray="5,2" d="M938.56,-679.34C1001.6,-642.83 1081.77,-597.83 1155,-561 1157.6,-559.69 1160.22,-558.38 1162.87,-557.07"/>
<polygon fill="#707070" stroke="#707070" points="1164.5,-560.17 1171.93,-552.62 1161.41,-553.89 1164.5,-560.17"/>
<text text-anchor="start" x="1051.5" y="-625.8" font-family="Arial" font-size="24.00" fill="#707070">Uses</text>
</g>
<!-- 94 -->
<g id="94" class="node">
<title>94</title>
<polygon fill="#1168bd" stroke="#0b4884" points="999,-1714.5 648,-1714.5 648,-1555.5 999,-1555.5 999,-1714.5"/>
<text text-anchor="start" x="682" y="-1666.3" font-family="Arial" font-size="34.00" fill="#ffffff">Playlists Controller</text>
<text text-anchor="start" x="728.5" y="-1644.3" font-family="Arial" font-size="19.00" fill="#ffffff">[Component: GObject]</text>
<text text-anchor="start" x="677" y="-1607.3" font-family="Arial" font-size="24.00" fill="#ffffff">Maintains part of the model</text>
<text text-anchor="start" x="707.5" y="-1583.3" font-family="Arial" font-size="24.00" fill="#ffffff">dedicated to playlists.</text>
</g>
<!-- 94&#45;&gt;78 -->
<g id="95" class="edge">
<title>94&#45;&gt;78</title>
<path fill="none" stroke="#707070" stroke-dasharray="5,2" d="M958.81,-1555.34C1017.63,-1522.71 1088.33,-1486.49 1155,-1460 1166.84,-1455.29 1179.26,-1450.85 1191.83,-1446.68"/>
<polygon fill="#707070" stroke="#707070" points="1193.04,-1449.96 1201.47,-1443.54 1190.88,-1443.31 1193.04,-1449.96"/>
<text text-anchor="start" x="1039" y="-1516.8" font-family="Arial" font-size="24.00" fill="#707070">Inherits</text>
</g>
<!-- 96 -->
<g id="96" class="node">
<title>96</title>
<polygon fill="#1168bd" stroke="#0b4884" points="999,-1945.5 648,-1945.5 648,-1786.5 999,-1786.5 999,-1945.5"/>
<text text-anchor="start" x="682" y="-1897.3" font-family="Arial" font-size="34.00" fill="#ffffff">Tracklist Controller</text>
<text text-anchor="start" x="728.5" y="-1875.3" font-family="Arial" font-size="19.00" fill="#ffffff">[Component: GObject]</text>
<text text-anchor="start" x="677" y="-1838.3" font-family="Arial" font-size="24.00" fill="#ffffff">Maintains part of the model</text>
<text text-anchor="start" x="689.5" y="-1814.3" font-family="Arial" font-size="24.00" fill="#ffffff">dedicated to the tracklist.</text>
</g>
<!-- 96&#45;&gt;78 -->
<g id="97" class="edge">
<title>96&#45;&gt;78</title>
<path fill="none" stroke="#707070" stroke-dasharray="5,2" d="M963.16,-1786.19C977.38,-1775.28 991,-1763.49 1003,-1751 1073.39,-1677.72 1074.9,-1645.54 1119,-1554 1138.42,-1513.7 1121.88,-1490.07 1155,-1460 1165.92,-1450.08 1178.53,-1442 1191.97,-1435.42"/>
<polygon fill="#707070" stroke="#707070" points="1193.76,-1438.44 1201.39,-1431.09 1190.84,-1432.08 1193.76,-1438.44"/>
<text text-anchor="start" x="1039" y="-1713.8" font-family="Arial" font-size="24.00" fill="#707070">Inherits</text>
</g>
<!-- 98 -->
<g id="98" class="node">
<title>98</title>
<polygon fill="#1168bd" stroke="#0b4884" points="999,-1045.5 648,-1045.5 648,-886.5 999,-886.5 999,-1045.5"/>
<text text-anchor="start" x="688" y="-997.3" font-family="Arial" font-size="34.00" fill="#ffffff">Volume Controller</text>
<text text-anchor="start" x="728.5" y="-975.3" font-family="Arial" font-size="19.00" fill="#ffffff">[Component: GObject]</text>
<text text-anchor="start" x="677" y="-938.3" font-family="Arial" font-size="24.00" fill="#ffffff">Maintains part of the model</text>
<text text-anchor="start" x="721.5" y="-914.3" font-family="Arial" font-size="24.00" fill="#ffffff">dedicated to mixer.</text>
</g>
<!-- 98&#45;&gt;78 -->
<g id="99" class="edge">
<title>98&#45;&gt;78</title>
<path fill="none" stroke="#707070" stroke-dasharray="5,2" d="M960.88,-1045.65C975.84,-1056.95 990.25,-1069.14 1003,-1082 1070.53,-1150.13 1075.38,-1178.57 1119,-1264 1138.78,-1302.74 1122.57,-1326.02 1155,-1355 1165.88,-1364.72 1178.4,-1372.65 1191.72,-1379.12"/>
<polygon fill="#707070" stroke="#707070" points="1190.5,-1382.41 1201.06,-1383.36 1193.4,-1376.04 1190.5,-1382.41"/>
<text text-anchor="start" x="1039" y="-1270.8" font-family="Arial" font-size="24.00" fill="#707070">Inherits</text>
</g>
<!-- 17 -->
<g id="17" class="node">
<title>17</title>
<polygon fill="#1168bd" stroke="#0b4884" points="2875,-2405.5 2611,-2405.5 2611,-2308.5 2875,-2308.5 2875,-2405.5"/>
<text text-anchor="start" x="2640" y="-2357.3" font-family="Arial" font-size="34.00" fill="#ffffff">Library Model</text>
<text text-anchor="start" x="2648" y="-2335.3" font-family="Arial" font-size="19.00" fill="#ffffff">[Component: GObject]</text>
</g>
<!-- 44 -->
<g id="44" class="node">
<title>44</title>
<polygon fill="#1168bd" stroke="#0b4884" points="3650.5,-2553.5 3353.5,-2553.5 3353.5,-2456.5 3650.5,-2456.5 3650.5,-2553.5"/>
<text text-anchor="start" x="3382.5" y="-2505.3" font-family="Arial" font-size="34.00" fill="#ffffff">Directory Model</text>
<text text-anchor="start" x="3407" y="-2483.3" font-family="Arial" font-size="19.00" fill="#ffffff">[Component: GObject]</text>
</g>
<!-- 17&#45;&gt;44 -->
<g id="47" class="edge">
<title>17&#45;&gt;44</title>
<path fill="none" stroke="#707070" stroke-dasharray="5,2" d="M2875.43,-2382.7C3005.57,-2408.14 3204.91,-2447.11 3343.46,-2474.2"/>
<polygon fill="#707070" stroke="#707070" points="3342.85,-2477.65 3353.33,-2476.13 3344.19,-2470.78 3342.85,-2477.65"/>
<text text-anchor="start" x="3073" y="-2485.8" font-family="Arial" font-size="24.00" fill="#707070">Contains a</text>
<text text-anchor="start" x="3066.5" y="-2465.8" font-family="Arial" font-size="19.00" fill="#707070">[Root directory]</text>
</g>
<!-- 18 -->
<g id="18" class="node">
<title>18</title>
<polygon fill="#1168bd" stroke="#0b4884" points="2892.5,-2574.5 2593.5,-2574.5 2593.5,-2477.5 2892.5,-2477.5 2892.5,-2574.5"/>
<text text-anchor="start" x="2622.5" y="-2526.3" font-family="Arial" font-size="34.00" fill="#ffffff">Playback Model</text>
<text text-anchor="start" x="2648" y="-2504.3" font-family="Arial" font-size="19.00" fill="#ffffff">[Component: GObject]</text>
</g>
<!-- 19 -->
<g id="19" class="node">
<title>19</title>
<polygon fill="#1168bd" stroke="#0b4884" points="2867,-2743.5 2619,-2743.5 2619,-2646.5 2867,-2646.5 2867,-2743.5"/>
<text text-anchor="start" x="2650" y="-2695.3" font-family="Arial" font-size="34.00" fill="#ffffff">Mixer Model</text>
<text text-anchor="start" x="2648" y="-2673.3" font-family="Arial" font-size="19.00" fill="#ffffff">[Component: GObject]</text>
</g>
<!-- 20 -->
<g id="20" class="node">
<title>20</title>
<polygon fill="#1168bd" stroke="#0b4884" points="3285,-2343.5 2977,-2343.5 2977,-2246.5 3285,-2246.5 3285,-2343.5"/>
<text text-anchor="start" x="3006" y="-2295.3" font-family="Arial" font-size="34.00" fill="#ffffff">Track List Model</text>
<text text-anchor="start" x="3036" y="-2273.3" font-family="Arial" font-size="19.00" fill="#ffffff">[Component: GObject]</text>
</g>
<!-- 43 -->
<g id="43" class="node">
<title>43</title>
<polygon fill="#1168bd" stroke="#0b4884" points="4662,-2476.5 4414,-2476.5 4414,-2379.5 4662,-2379.5 4662,-2476.5"/>
<text text-anchor="start" x="4444.5" y="-2428.3" font-family="Arial" font-size="34.00" fill="#ffffff">Track Model</text>
<text text-anchor="start" x="4443" y="-2406.3" font-family="Arial" font-size="19.00" fill="#ffffff">[Component: GObject]</text>
</g>
<!-- 20&#45;&gt;43 -->
<g id="52" class="edge">
<title>20&#45;&gt;43</title>
<path fill="none" stroke="#707070" stroke-dasharray="5,2" d="M3285.22,-2300.56C3555.51,-2310.61 4096.74,-2331.86 4183,-2344 4256.92,-2354.4 4338.04,-2373.1 4403.95,-2390.22"/>
<polygon fill="#707070" stroke="#707070" points="4403.42,-2393.7 4413.98,-2392.84 4405.19,-2386.93 4403.42,-2393.7"/>
<text text-anchor="start" x="3719" y="-2330.8" font-family="Arial" font-size="24.00" fill="#707070">Contains list of</text>
</g>
<!-- 21 -->
<g id="21" class="node">
<title>21</title>
<polygon fill="#1168bd" stroke="#0b4884" points="4183,-2814.5 3914,-2814.5 3914,-2717.5 4183,-2717.5 4183,-2814.5"/>
<text text-anchor="start" x="3943" y="-2766.3" font-family="Arial" font-size="34.00" fill="#ffffff">Playlist Model</text>
<text text-anchor="start" x="3953.5" y="-2744.3" font-family="Arial" font-size="19.00" fill="#ffffff">[Component: GObject]</text>
</g>
<!-- 21&#45;&gt;43 -->
<g id="54" class="edge">
<title>21&#45;&gt;43</title>
<path fill="none" stroke="#707070" stroke-dasharray="5,2" d="M4128.37,-2717.48C4146.45,-2706.05 4165.5,-2693.77 4183,-2682 4281.47,-2615.78 4392.19,-2535.34 4463.16,-2482.97"/>
<polygon fill="#707070" stroke="#707070" points="4465.66,-2485.48 4471.62,-2476.73 4461.5,-2479.85 4465.66,-2485.48"/>
<text text-anchor="start" x="4219" y="-2661.8" font-family="Arial" font-size="24.00" fill="#707070">Contains list of</text>
</g>
<!-- 35&#45;&gt;17 -->
<g id="40" class="edge">
<title>35&#45;&gt;17</title>
<path fill="none" stroke="#707070" stroke-dasharray="5,2" d="M2211.8,-2395.94C2322.5,-2387.81 2484.94,-2375.88 2600.81,-2367.37"/>
<polygon fill="#707070" stroke="#707070" points="2601.1,-2370.86 2610.82,-2366.64 2600.59,-2363.88 2601.1,-2370.86"/>
<text text-anchor="start" x="2367.5" y="-2391.8" font-family="Arial" font-size="24.00" fill="#707070">Contains a</text>
</g>
<!-- 35&#45;&gt;18 -->
<g id="37" class="edge">
<title>35&#45;&gt;18</title>
<path fill="none" stroke="#707070" stroke-dasharray="5,2" d="M2211.8,-2427.83C2317.11,-2447.33 2469.24,-2475.5 2583.56,-2496.66"/>
<polygon fill="#707070" stroke="#707070" points="2582.99,-2500.12 2593.46,-2498.5 2584.26,-2493.23 2582.99,-2500.12"/>
<text text-anchor="start" x="2367.5" y="-2485.8" font-family="Arial" font-size="24.00" fill="#707070">Contains a</text>
</g>
<!-- 35&#45;&gt;19 -->
<g id="38" class="edge">
<title>35&#45;&gt;19</title>
<path fill="none" stroke="#707070" stroke-dasharray="5,2" d="M2191.2,-2453.56C2237.2,-2475.12 2292.19,-2500.61 2342,-2523 2431.69,-2563.31 2454.66,-2572.16 2545,-2611 2568.78,-2621.22 2594.19,-2632.1 2618.59,-2642.51"/>
<polygon fill="#707070" stroke="#707070" points="2617.31,-2645.77 2627.88,-2646.48 2620.06,-2639.33 2617.31,-2645.77"/>
<text text-anchor="start" x="2367.5" y="-2600.8" font-family="Arial" font-size="24.00" fill="#707070">Contains a</text>
</g>
<!-- 35&#45;&gt;20 -->
<g id="39" class="edge">
<title>35&#45;&gt;20</title>
<path fill="none" stroke="#707070" stroke-dasharray="5,2" d="M2211.71,-2382.64C2243.08,-2375.03 2276.3,-2365.26 2306,-2353 2323.33,-2345.84 2324.83,-2338.53 2342,-2331 2586.93,-2223.55 2673.98,-2257.51 2941,-2273 2949.41,-2273.49 2958.03,-2274.1 2966.72,-2274.8"/>
<polygon fill="#707070" stroke="#707070" points="2966.69,-2278.31 2976.95,-2275.66 2967.28,-2271.33 2966.69,-2278.31"/>
<text text-anchor="start" x="2367.5" y="-2337.8" font-family="Arial" font-size="24.00" fill="#707070">Contains a</text>
</g>
<!-- 35&#45;&gt;21 -->
<g id="41" class="edge">
<title>35&#45;&gt;21</title>
<path fill="none" stroke="#707070" stroke-dasharray="5,2" d="M2211.59,-2445.26C2246.24,-2461.79 2281.2,-2484.22 2306,-2514 2342.72,-2558.1 2308.59,-2591.34 2342,-2638 2350.01,-2649.19 2531.87,-2775.86 2545,-2780 2794.9,-2858.73 3577.76,-2805.28 3903.29,-2778.62"/>
<polygon fill="#707070" stroke="#707070" points="3904.05,-2782.07 3913.73,-2777.76 3903.48,-2775.09 3904.05,-2782.07"/>
<text text-anchor="start" x="3051.5" y="-2827.8" font-family="Arial" font-size="24.00" fill="#707070">Contains list of</text>
</g>
<!-- 35&#45;&gt;22 -->
<g id="42" class="edge">
<title>35&#45;&gt;22</title>
<path fill="none" stroke="#707070" stroke-dasharray="5,2" d="M2211.57,-2442.09C2247.18,-2458.62 2282.7,-2481.86 2306,-2514 2369.56,-2601.68 2273.97,-2670.73 2342,-2755 2391.83,-2816.72 2436.56,-2785.66 2509,-2818 2516.03,-2821.14 2580.5,-2854.65 2639.84,-2885.6"/>
<polygon fill="#707070" stroke="#707070" points="2638.45,-2888.83 2648.93,-2890.35 2641.69,-2882.62 2638.45,-2888.83"/>
<text text-anchor="start" x="2346" y="-2824.8" font-family="Arial" font-size="24.00" fill="#707070">Contains list of</text>
</g>
<!-- 6 -->
<g id="6" class="node">
<title>6</title>
<polygon fill="#cccccc" stroke="#8e8e8e" points="2915,-2108.5 2571,-2108.5 2571,-2011.5 2915,-2011.5 2915,-2108.5"/>
<text text-anchor="start" x="2618.5" y="-2060.3" font-family="Arial" font-size="34.00" fill="#ffffff">Network Monitor</text>
<text text-anchor="start" x="2600" y="-2038.3" font-family="Arial" font-size="19.00" fill="#ffffff">[Component: Gio NetworkMonitor]</text>
</g>
<!-- 35&#45;&gt;6 -->
<g id="36" class="edge">
<title>35&#45;&gt;6</title>
<path fill="none" stroke="#707070" stroke-dasharray="5,2" d="M2211.66,-2399.56C2246.21,-2392.2 2281.1,-2378.34 2306,-2353 2358,-2300.09 2293.12,-2245.81 2342,-2190 2397.08,-2127.12 2482.88,-2094.48 2560.92,-2077.61"/>
<polygon fill="#707070" stroke="#707070" points="2561.81,-2081 2570.89,-2075.53 2560.39,-2074.14 2561.81,-2081"/>
<text text-anchor="start" x="2379.5" y="-2196.8" font-family="Arial" font-size="24.00" fill="#707070">Listen to</text>
</g>
<!-- 44&#45;&gt;21 -->
<g id="51" class="edge">
<title>44&#45;&gt;21</title>
<path fill="none" stroke="#707070" stroke-dasharray="5,2" d="M3601.23,-2553.6C3638.11,-2571.74 3680.42,-2592.43 3719,-2611 3790.36,-2645.34 3870.75,-2683.29 3934.15,-2713.04"/>
<polygon fill="#707070" stroke="#707070" points="3932.83,-2716.29 3943.37,-2717.37 3935.81,-2709.95 3932.83,-2716.29"/>
<text text-anchor="start" x="3719" y="-2689.8" font-family="Arial" font-size="24.00" fill="#707070">Contains list of</text>
</g>
<!-- 44&#45;&gt;44 -->
<g id="49" class="edge">
<title>44&#45;&gt;44</title>
<path fill="none" stroke="#707070" stroke-dasharray="5,2" d="M3452.91,-2553.57C3436.06,-2589.45 3452.43,-2625.5 3502,-2625.5 3547.12,-2625.5 3564.73,-2595.63 3554.83,-2563.22"/>
<polygon fill="#707070" stroke="#707070" points="3557.97,-2561.63 3551.09,-2553.57 3551.44,-2564.16 3557.97,-2561.63"/>
<text text-anchor="start" x="3422.5" y="-2632.3" font-family="Arial" font-size="24.00" fill="#707070">Contains list of</text>
</g>
<!-- 45 -->
<g id="45" class="node">
<title>45</title>
<polygon fill="#1168bd" stroke="#0b4884" points="4177,-2476.5 3920,-2476.5 3920,-2379.5 4177,-2379.5 4177,-2476.5"/>
<text text-anchor="start" x="3949" y="-2428.3" font-family="Arial" font-size="34.00" fill="#ffffff">Album Model</text>
<text text-anchor="start" x="3953.5" y="-2406.3" font-family="Arial" font-size="19.00" fill="#ffffff">[Component: GObject]</text>
</g>
<!-- 44&#45;&gt;45 -->
<g id="48" class="edge">
<title>44&#45;&gt;45</title>
<path fill="none" stroke="#707070" stroke-dasharray="5,2" d="M3650.61,-2461.93C3673.36,-2456.49 3696.69,-2451.59 3719,-2448 3781.13,-2438.01 3850.59,-2432.92 3909.59,-2430.35"/>
<polygon fill="#707070" stroke="#707070" points="3909.87,-2433.84 3919.72,-2429.93 3909.58,-2426.85 3909.87,-2433.84"/>
<text text-anchor="start" x="3719" y="-2454.8" font-family="Arial" font-size="24.00" fill="#707070">Contains list of</text>
</g>
<!-- 46 -->
<g id="46" class="node">
<title>46</title>
<polygon fill="#1168bd" stroke="#0b4884" points="4179.5,-2645.5 3917.5,-2645.5 3917.5,-2548.5 4179.5,-2548.5 4179.5,-2645.5"/>
<text text-anchor="start" x="3946.5" y="-2597.3" font-family="Arial" font-size="34.00" fill="#ffffff">Tracks Model</text>
<text text-anchor="start" x="3953.5" y="-2575.3" font-family="Arial" font-size="19.00" fill="#ffffff">[Component: GObject]</text>
</g>
<!-- 44&#45;&gt;46 -->
<g id="50" class="edge">
<title>44&#45;&gt;46</title>
<path fill="none" stroke="#707070" stroke-dasharray="5,2" d="M3650.71,-2529.96C3730.59,-2543.45 3828.71,-2560.03 3907.39,-2573.33"/>
<polygon fill="#707070" stroke="#707070" points="3906.93,-2576.8 3917.38,-2575.01 3908.1,-2569.9 3906.93,-2576.8"/>
<text text-anchor="start" x="3719" y="-2573.8" font-family="Arial" font-size="24.00" fill="#707070">Contains list of</text>
</g>
<!-- 45&#45;&gt;43 -->
<g id="53" class="edge">
<title>45&#45;&gt;43</title>
<path fill="none" stroke="#707070" stroke-dasharray="5,2" d="M4177.27,-2428C4246.91,-2428 4333.02,-2428 4403.53,-2428"/>
<polygon fill="#707070" stroke="#707070" points="4403.82,-2431.5 4413.82,-2428 4403.82,-2424.5 4403.82,-2431.5"/>
<text text-anchor="start" x="4219" y="-2434.8" font-family="Arial" font-size="24.00" fill="#707070">Contains list of</text>
</g>
<!-- 4 -->
<g id="4" class="node">
<title>4</title>
<polygon fill="#cccccc" stroke="#8e8e8e" points="3683,-287.5 3321,-287.5 3321,-190.5 3683,-190.5 3683,-287.5"/>
<text text-anchor="start" x="3393" y="-239.3" font-family="Arial" font-size="34.00" fill="#ffffff">Client Session</text>
<text text-anchor="start" x="3350" y="-217.3" font-family="Arial" font-size="19.00" fill="#ffffff">[Component: aiohttp Client Session]</text>
</g>
<!-- 10&#45;&gt;4 -->
<g id="74" class="edge">
<title>10&#45;&gt;4</title>
<path fill="none" stroke="#707070" stroke-dasharray="5,2" d="M1533.63,-234.81C1878.11,-219.19 2642.13,-191.78 3285,-220 3293.38,-220.37 3301.94,-220.82 3310.58,-221.33"/>
<polygon fill="#707070" stroke="#707070" points="3310.56,-224.83 3320.75,-221.95 3310.99,-217.85 3310.56,-224.83"/>
<text text-anchor="start" x="2398" y="-217.8" font-family="Arial" font-size="24.00" fill="#707070">Uses</text>
</g>
<!-- 11&#45;&gt;4 -->
<g id="73" class="edge">
<title>11&#45;&gt;4</title>
<path fill="none" stroke="#707070" stroke-dasharray="5,2" d="M1524.38,-438.93C1756.67,-392.78 2179.64,-314.36 2545,-277 2809.61,-249.94 3117.25,-241.87 3310.54,-239.61"/>
<polygon fill="#707070" stroke="#707070" points="3310.85,-243.11 3320.81,-239.5 3310.77,-236.11 3310.85,-243.11"/>
<text text-anchor="start" x="2398" y="-306.8" font-family="Arial" font-size="24.00" fill="#707070">Uses</text>
</g>
<!-- 12 -->
<g id="12" class="node">
<title>12</title>
<polygon fill="#1168bd" stroke="#0b4884" points="1541,-2243.5 1155,-2243.5 1155,-2084.5 1541,-2084.5 1541,-2243.5"/>
<text text-anchor="start" x="1184" y="-2195.3" font-family="Arial" font-size="34.00" fill="#ffffff">Time Position Tracker</text>
<text text-anchor="start" x="1253" y="-2173.3" font-family="Arial" font-size="19.00" fill="#ffffff">[Component: GObject]</text>
<text text-anchor="start" x="1194" y="-2136.3" font-family="Arial" font-size="24.00" fill="#ffffff">Periodically requests Mopidy</text>
<text text-anchor="start" x="1196" y="-2112.3" font-family="Arial" font-size="24.00" fill="#ffffff">server to track time position.</text>
</g>
<!-- 12&#45;&gt;35 -->
<g id="64" class="edge">
<title>12&#45;&gt;35</title>
<path fill="none" stroke="#707070" stroke-dasharray="5,2" d="M1541.09,-2239.75C1638.45,-2276.62 1759.06,-2320 1869,-2353 1896.11,-2361.14 1925.42,-2368.86 1953.47,-2375.74"/>
<polygon fill="#707070" stroke="#707070" points="1952.8,-2379.18 1963.34,-2378.14 1954.45,-2372.37 1952.8,-2379.18"/>
<text text-anchor="start" x="1665.5" y="-2345.8" font-family="Arial" font-size="24.00" fill="#707070">Update</text>
</g>
<!-- 12&#45;&gt;9 -->
<g id="63" class="edge">
<title>12&#45;&gt;9</title>
<path fill="none" stroke="#707070" stroke-dasharray="5,2" d="M1457.73,-2084.31C1488.61,-2056.89 1519.61,-2023.94 1541,-1988 1574.74,-1931.31 1535.53,-1895.3 1577,-1844 1648.56,-1755.48 1759.28,-1695.94 1859.26,-1657.25"/>
<polygon fill="#707070" stroke="#707070" points="1860.8,-1660.41 1868.9,-1653.58 1858.31,-1653.87 1860.8,-1660.41"/>
<text text-anchor="start" x="1677.5" y="-1850.8" font-family="Arial" font-size="24.00" fill="#707070">Uses</text>
</g>
<!-- 14 -->
<g id="14" class="node">
<title>14</title>
<polygon fill="#1168bd" stroke="#0b4884" points="334,-1683.5 33,-1683.5 33,-1586.5 334,-1586.5 334,-1683.5"/>
<text text-anchor="start" x="100.5" y="-1635.3" font-family="Arial" font-size="34.00" fill="#ffffff">Application</text>
<text text-anchor="start" x="62" y="-1613.3" font-family="Arial" font-size="19.00" fill="#ffffff">[Component: GtkApplication]</text>
</g>
<!-- 14&#45;&gt;83 -->
<g id="100" class="edge">
<title>14&#45;&gt;83</title>
<path fill="none" stroke="#707070" stroke-dasharray="5,2" d="M226.22,-1586.16C261.85,-1546.27 315.8,-1489.99 370,-1449 455.12,-1384.64 558.56,-1325.79 645.05,-1281.18"/>
<polygon fill="#707070" stroke="#707070" points="646.87,-1284.18 654.17,-1276.5 643.67,-1277.96 646.87,-1284.18"/>
<text text-anchor="start" x="370" y="-1455.8" font-family="Arial" font-size="24.00" fill="#707070">Dispatch messages to</text>
</g>
<!-- 14&#45;&gt;86 -->
<g id="101" class="edge">
<title>14&#45;&gt;86</title>
<path fill="none" stroke="#707070" stroke-dasharray="5,2" d="M326.09,-1586.4C423.1,-1553.1 552.21,-1508.78 654.43,-1473.69"/>
<polygon fill="#707070" stroke="#707070" points="655.61,-1476.99 663.93,-1470.43 653.33,-1470.37 655.61,-1476.99"/>
<text text-anchor="start" x="370" y="-1576.8" font-family="Arial" font-size="24.00" fill="#707070">Dispatch messages to</text>
</g>
<!-- 14&#45;&gt;90 -->
<g id="102" class="edge">
<title>14&#45;&gt;90</title>
<path fill="none" stroke="#707070" stroke-dasharray="5,2" d="M189.12,-1586.45C201.51,-1478.02 243.59,-1211.75 370,-1034 439.4,-936.41 553.42,-864.4 649.63,-816.92"/>
<polygon fill="#707070" stroke="#707070" points="651.43,-819.93 658.88,-812.4 648.36,-813.64 651.43,-819.93"/>
<text text-anchor="start" x="370" y="-1040.8" font-family="Arial" font-size="24.00" fill="#707070">Dispatch messages to</text>
</g>
<!-- 14&#45;&gt;94 -->
<g id="103" class="edge">
<title>14&#45;&gt;94</title>
<path fill="none" stroke="#707070" stroke-dasharray="5,2" d="M334.08,-1635C424.79,-1635 541.25,-1635 637.69,-1635"/>
<polygon fill="#707070" stroke="#707070" points="637.85,-1638.5 647.85,-1635 637.85,-1631.5 637.85,-1638.5"/>
<text text-anchor="start" x="370" y="-1641.8" font-family="Arial" font-size="24.00" fill="#707070">Dispatch messages to</text>
</g>
<!-- 14&#45;&gt;96 -->
<g id="104" class="edge">
<title>14&#45;&gt;96</title>
<path fill="none" stroke="#707070" stroke-dasharray="5,2" d="M318.63,-1683.57C411.49,-1717.19 536.27,-1762.36 638.42,-1799.35"/>
<polygon fill="#707070" stroke="#707070" points="637.32,-1802.67 647.91,-1802.79 639.7,-1796.09 637.32,-1802.67"/>
<text text-anchor="start" x="370" y="-1790.8" font-family="Arial" font-size="24.00" fill="#707070">Dispatch messages to</text>
</g>
<!-- 14&#45;&gt;98 -->
<g id="105" class="edge">
<title>14&#45;&gt;98</title>
<path fill="none" stroke="#707070" stroke-dasharray="5,2" d="M200.16,-1586.24C226.24,-1510.58 284.3,-1363.09 370,-1262 445.13,-1173.38 553.37,-1101.27 645.15,-1050.41"/>
<polygon fill="#707070" stroke="#707070" points="646.9,-1053.44 653.98,-1045.56 643.53,-1047.31 646.9,-1053.44"/>
<text text-anchor="start" x="370" y="-1268.8" font-family="Arial" font-size="24.00" fill="#707070">Dispatch messages to</text>
</g>
<!-- 14&#45;&gt;12 -->
<g id="16" class="edge">
<title>14&#45;&gt;12</title>
<path fill="none" stroke="#707070" stroke-dasharray="5,2" d="M191.5,-1683.58C206.78,-1770.37 251.77,-1951.1 370,-2038 595.35,-2203.63 931.46,-2209.07 1144.88,-2191.39"/>
<polygon fill="#707070" stroke="#707070" points="1145.28,-2194.87 1154.94,-2190.53 1144.68,-2187.89 1145.28,-2194.87"/>
<text text-anchor="start" x="791.5" y="-2204.8" font-family="Arial" font-size="24.00" fill="#707070">Starts</text>
</g>
<!-- 14&#45;&gt;5 -->
<g id="62" class="edge">
<title>14&#45;&gt;5</title>
<path fill="none" stroke="#707070" stroke-dasharray="5,2" d="M221.45,-1683.58C289.11,-1767.62 442.28,-1936.12 619,-1988 815.59,-2045.72 1352.78,-2068.96 1541,-1988 1562.37,-1978.81 1555.72,-1959.4 1577,-1950 1924.27,-1796.64 2908.58,-1966.2 3285,-1917 3302.28,-1914.74 3320.19,-1911.63 3337.96,-1908.04"/>
<polygon fill="#707070" stroke="#707070" points="3338.73,-1911.45 3347.81,-1906 3337.31,-1904.6 3338.73,-1911.45"/>
<text text-anchor="start" x="1577" y="-1982.8" font-family="Arial" font-size="24.00" fill="#707070">Get message from / Put</text>
<text text-anchor="start" x="1643" y="-1956.8" font-family="Arial" font-size="24.00" fill="#707070">message in</text>
</g>
<!-- 7 -->
<g id="7" class="node">
<title>7</title>
<polygon fill="#1168bd" stroke="#0b4884" points="1540.5,-2453.5 1155.5,-2453.5 1155.5,-2318.5 1540.5,-2318.5 1540.5,-2453.5"/>
<text text-anchor="start" x="1238" y="-2405.3" font-family="Arial" font-size="34.00" fill="#ffffff">Argos Window</text>
<text text-anchor="start" x="1193" y="-2383.3" font-family="Arial" font-size="19.00" fill="#ffffff">[Component: GtkApplicationWindow]</text>
<text text-anchor="start" x="1184.5" y="-2346.3" font-family="Arial" font-size="24.00" fill="#ffffff">Implements the user interface.</text>
</g>
<!-- 14&#45;&gt;7 -->
<g id="15" class="edge">
<title>14&#45;&gt;7</title>
<path fill="none" stroke="#707070" stroke-dasharray="5,2" d="M191.7,-1683.64C207.84,-1777.32 254.94,-1984.82 370,-2113 566.09,-2331.46 921.04,-2381.18 1144.83,-2389.27"/>
<polygon fill="#707070" stroke="#707070" points="1144.94,-2392.78 1155.06,-2389.62 1145.18,-2385.78 1144.94,-2392.78"/>
<text text-anchor="start" x="792.5" y="-2384.8" font-family="Arial" font-size="24.00" fill="#707070">Owns</text>
</g>
<!-- 7&#45;&gt;35 -->
<g id="77" class="edge">
<title>7&#45;&gt;35</title>
<path fill="none" stroke="#707070" stroke-dasharray="5,2" d="M1540.84,-2390.94C1670.31,-2394.28 1837.9,-2398.6 1953,-2401.56"/>
<polygon fill="#707070" stroke="#707070" points="1953.19,-2405.07 1963.27,-2401.83 1953.37,-2398.07 1953.19,-2405.07"/>
<text text-anchor="start" x="1659" y="-2404.8" font-family="Arial" font-size="24.00" fill="#707070">Listen to</text>
</g>
<!-- 8 -->
<g id="8" class="node">
<title>8</title>
<polygon fill="#1168bd" stroke="#0b4884" points="2941,-553.5 2545,-553.5 2545,-312.5 2941,-312.5 2941,-553.5"/>
<text text-anchor="start" x="2596.5" y="-505.3" font-family="Arial" font-size="34.00" fill="#ffffff">Mopidy WebSocket</text>
<text text-anchor="start" x="2657" y="-471.3" font-family="Arial" font-size="34.00" fill="#ffffff">Connection</text>
<text text-anchor="start" x="2648" y="-449.3" font-family="Arial" font-size="19.00" fill="#ffffff">[Component: GObject]</text>
<text text-anchor="start" x="2594" y="-412.3" font-family="Arial" font-size="24.00" fill="#ffffff">Sends JSON&#45;RPC requests</text>
<text text-anchor="start" x="2634.5" y="-388.3" font-family="Arial" font-size="24.00" fill="#ffffff">through websocket /</text>
<text text-anchor="start" x="2574" y="-364.3" font-family="Arial" font-size="24.00" fill="#ffffff">Deserialize Mopidy events from</text>
<text text-anchor="start" x="2682.5" y="-340.3" font-family="Arial" font-size="24.00" fill="#ffffff">websocket.</text>
</g>
<!-- 8&#45;&gt;4 -->
<g id="75" class="edge">
<title>8&#45;&gt;4</title>
<path fill="none" stroke="#707070" stroke-dasharray="5,2" d="M2941.41,-382.41C3055.49,-353.17 3198.28,-316.58 3311.07,-287.67"/>
<polygon fill="#707070" stroke="#707070" points="3312.04,-291.04 3320.86,-285.17 3310.3,-284.26 3312.04,-291.04"/>
<text text-anchor="start" x="3103.5" y="-376.8" font-family="Arial" font-size="24.00" fill="#707070">Uses</text>
</g>
<!-- 8&#45;&gt;5 -->
<g id="76" class="edge">
<title>8&#45;&gt;5</title>
<path fill="none" stroke="#707070" stroke-dasharray="5,2" d="M2934.51,-553.61C2936.73,-556.04 2938.9,-558.5 2941,-561 3282.16,-965.83 3445.28,-1609.79 3488.77,-1805.62"/>
<polygon fill="#707070" stroke="#707070" points="3485.36,-1806.41 3490.93,-1815.43 3492.19,-1804.91 3485.36,-1806.41"/>
<text text-anchor="start" x="3047.5" y="-1130.8" font-family="Arial" font-size="24.00" fill="#707070">Put message in</text>
</g>
<!-- 9&#45;&gt;55 -->
<g id="66" class="edge">
<title>9&#45;&gt;55</title>
<path fill="none" stroke="#707070" stroke-dasharray="5,2" d="M2273.08,-1514.21C2285.49,-1503.75 2296.72,-1492.05 2306,-1479 2367.24,-1392.89 2262.61,-1313.72 2342,-1244 2411.91,-1182.6 2518.17,-1182.99 2603.6,-1197.32"/>
<polygon fill="#707070" stroke="#707070" points="2603.19,-1200.8 2613.65,-1199.08 2604.4,-1193.91 2603.19,-1200.8"/>
<text text-anchor="start" x="2368.5" y="-1250.8" font-family="Arial" font-size="24.00" fill="#707070">Generates</text>
</g>
<!-- 9&#45;&gt;56 -->
<g id="67" class="edge">
<title>9&#45;&gt;56</title>
<path fill="none" stroke="#707070" stroke-dasharray="5,2" d="M2306.11,-1530.73C2404.52,-1502.12 2517.86,-1469.17 2604.3,-1444.03"/>
<polygon fill="#707070" stroke="#707070" points="2605.28,-1447.39 2613.91,-1441.24 2603.33,-1440.67 2605.28,-1447.39"/>
<text text-anchor="start" x="2368.5" y="-1522.8" font-family="Arial" font-size="24.00" fill="#707070">Generates</text>
</g>
<!-- 9&#45;&gt;57 -->
<g id="68" class="edge">
<title>9&#45;&gt;57</title>
<path fill="none" stroke="#707070" stroke-dasharray="5,2" d="M2306.11,-1587.01C2404.32,-1583.85 2517.41,-1580.22 2603.78,-1577.44"/>
<polygon fill="#707070" stroke="#707070" points="2604.02,-1580.94 2613.91,-1577.12 2603.8,-1573.94 2604.02,-1580.94"/>
<text text-anchor="start" x="2368.5" y="-1591.8" font-family="Arial" font-size="24.00" fill="#707070">Generates</text>
</g>
<!-- 9&#45;&gt;58 -->
<g id="69" class="edge">
<title>9&#45;&gt;58</title>
<path fill="none" stroke="#707070" stroke-dasharray="5,2" d="M2306.11,-1643.28C2404.42,-1665.55 2517.64,-1691.19 2604.04,-1710.76"/>
<polygon fill="#707070" stroke="#707070" points="2603.38,-1714.19 2613.91,-1712.99 2604.93,-1707.37 2603.38,-1714.19"/>
<text text-anchor="start" x="2368.5" y="-1691.8" font-family="Arial" font-size="24.00" fill="#707070">Generates</text>
</g>
<!-- 9&#45;&gt;59 -->
<g id="70" class="edge">
<title>9&#45;&gt;59</title>
<path fill="none" stroke="#707070" stroke-dasharray="5,2" d="M2275.38,-1514.26C2287.1,-1503.82 2297.56,-1492.11 2306,-1479 2378.44,-1366.51 2262.54,-985.64 2342,-878 2402.71,-795.76 2514,-758.59 2603.81,-741.81"/>
<polygon fill="#707070" stroke="#707070" points="2604.59,-745.22 2613.81,-740 2603.35,-738.33 2604.59,-745.22"/>
<text text-anchor="start" x="2368.5" y="-884.8" font-family="Arial" font-size="24.00" fill="#707070">Generates</text>
</g>
<!-- 9&#45;&gt;60 -->
<g id="71" class="edge">
<title>9&#45;&gt;60</title>
<path fill="none" stroke="#707070" stroke-dasharray="5,2" d="M2275.11,-1514.08C2286.9,-1503.68 2297.44,-1492.03 2306,-1479 2362.19,-1393.49 2278.04,-1099.85 2342,-1020 2404.22,-942.33 2514.36,-912.56 2603.34,-901.67"/>
<polygon fill="#707070" stroke="#707070" points="2604,-905.12 2613.53,-900.5 2603.2,-898.17 2604,-905.12"/>
<text text-anchor="start" x="2368.5" y="-1026.8" font-family="Arial" font-size="24.00" fill="#707070">Generates</text>
</g>
<!-- 9&#45;&gt;61 -->
<g id="72" class="edge">
<title>9&#45;&gt;61</title>
<path fill="none" stroke="#707070" stroke-dasharray="5,2" d="M2274.21,-1514.23C2286.28,-1503.78 2297.13,-1492.08 2306,-1479 2347.9,-1417.21 2291.58,-1200.05 2342,-1145 2407.03,-1074.01 2515.87,-1056.15 2603.61,-1055.01"/>
<polygon fill="#707070" stroke="#707070" points="2603.67,-1058.51 2613.65,-1054.95 2603.63,-1051.51 2603.67,-1058.51"/>
<text text-anchor="start" x="2368.5" y="-1151.8" font-family="Arial" font-size="24.00" fill="#707070">Generates</text>
</g>
<!-- 9&#45;&gt;8 -->
<g id="65" class="edge">
<title>9&#45;&gt;8</title>
<path fill="none" stroke="#707070" stroke-dasharray="5,2" d="M2275.56,-1514.37C2287.24,-1503.9 2297.64,-1492.16 2306,-1479 2395.97,-1337.42 2266.11,-874.6 2342,-725 2383.76,-642.68 2460.85,-578.05 2536.29,-530.75"/>
<polygon fill="#707070" stroke="#707070" points="2538.34,-533.6 2545,-525.36 2534.65,-527.64 2538.34,-533.6"/>
<text text-anchor="start" x="2398" y="-731.8" font-family="Arial" font-size="24.00" fill="#707070">Uses</text>
</g>
</g>
</svg>
