<?xml version="1.0" encoding="UTF-8" standalone="no"?>
<!DOCTYPE svg PUBLIC "-//W3C//DTD SVG 1.1//EN"
 "http://www.w3.org/Graphics/SVG/1.1/DTD/svg11.dtd">
<!-- Generated by graphviz version 2.43.0 (0)
 -->
<!-- Title: %3 Pages: 1 -->
<svg width="1612pt" height="614pt"
 viewBox="0.00 0.00 1612.00 614.00" xmlns="http://www.w3.org/2000/svg" xmlns:xlink="http://www.w3.org/1999/xlink">
<g id="graph0" class="graph" transform="scale(1 1) rotate(0) translate(4 610)">
<title>%3</title>
<polygon fill="white" stroke="transparent" points="-4,4 -4,-610 1608,-610 1608,4 -4,4"/>
<text text-anchor="start" x="660" y="-11.8" font-family="Arial" font-size="34.00">Argos &#45; Containers</text>
<g id="clust1" class="cluster">
<title>cluster_2</title>
<polygon fill="none" stroke="#444444" points="8,-64 8,-598 1596,-598 1596,-64 8,-64"/>
<text text-anchor="start" x="770" y="-92.8" font-family="Arial" font-size="24.00" fill="#444444">Argos</text>
<text text-anchor="start" x="725" y="-72.8" font-family="Arial" font-size="19.00" fill="#444444">[Software System]</text>
</g>
<!-- 107 -->
<g id="107" class="node">
<title>107</title>
<polygon fill="#cccccc" stroke="#8e8e8e" points="336.5,-299 33.5,-299 33.5,-164 336.5,-164 336.5,-299"/>
<text text-anchor="start" x="86.5" y="-250.8" font-family="Arial" font-size="34.00" fill="#ffffff">HTTP Cache</text>
<text text-anchor="start" x="62.5" y="-228.8" font-family="Arial" font-size="19.00" fill="#ffffff">[Container: SQLite database]</text>
<text text-anchor="start" x="95.5" y="-191.8" font-family="Arial" font-size="24.00" fill="#ffffff">Local file system</text>
</g>
<!-- 108 -->
<g id="108" class="node">
<title>108</title>
<polygon fill="#cccccc" stroke="#8e8e8e" points="667,-299 409,-299 409,-164 667,-164 667,-299"/>
<text text-anchor="start" x="456.5" y="-250.8" font-family="Arial" font-size="34.00" fill="#ffffff">File Cache</text>
<text text-anchor="start" x="438" y="-228.8" font-family="Arial" font-size="19.00" fill="#ffffff">[Container: File system]</text>
<text text-anchor="start" x="448.5" y="-191.8" font-family="Arial" font-size="24.00" fill="#ffffff">Local file system</text>
</g>
<!-- 109 -->
<g id="109" class="node">
<title>109</title>
<polygon fill="#cccccc" stroke="#8e8e8e" points="1119,-299 739,-299 739,-164 1119,-164 1119,-299"/>
<text text-anchor="start" x="879.5" y="-250.8" font-family="Arial" font-size="34.00" fill="#ffffff">Config</text>
<text text-anchor="start" x="854" y="-228.8" font-family="Arial" font-size="19.00" fill="#ffffff">[Container: dconf]</text>
<text text-anchor="start" x="768" y="-191.8" font-family="Arial" font-size="24.00" fill="#ffffff">Service provided by local host</text>
</g>
<!-- 110 -->
<g id="110" class="node">
<title>110</title>
<polygon fill="#cccccc" stroke="#8e8e8e" points="1571,-299 1191,-299 1191,-164 1571,-164 1571,-299"/>
<text text-anchor="start" x="1235" y="-250.8" font-family="Arial" font-size="34.00" fill="#ffffff">Notification Service</text>
<text text-anchor="start" x="1334.5" y="-228.8" font-family="Arial" font-size="19.00" fill="#ffffff">[Container]</text>
<text text-anchor="start" x="1220" y="-191.8" font-family="Arial" font-size="24.00" fill="#ffffff">Service provided by local host</text>
</g>
<!-- 3 -->
<g id="3" class="node">
<title>3</title>
<polygon fill="#1168bd" stroke="#0b4884" points="892,-573 574,-573 574,-414 892,-414 892,-573"/>
<text text-anchor="start" x="688.5" y="-524.8" font-family="Arial" font-size="34.00" fill="#ffffff">Argos</text>
<text text-anchor="start" x="603" y="-502.8" font-family="Arial" font-size="19.00" fill="#ffffff">[Container: Python executable]</text>
<text text-anchor="start" x="630" y="-465.8" font-family="Arial" font-size="24.00" fill="#ffffff">Client&#45;side desktop</text>
<text text-anchor="start" x="675" y="-441.8" font-family="Arial" font-size="24.00" fill="#ffffff">application</text>
</g>
<!-- 3&#45;&gt;107 -->
<g id="111" class="edge">
<title>3&#45;&gt;107</title>
<path fill="none" stroke="#707070" stroke-dasharray="5,2" d="M573.86,-445.51C519.44,-427.17 458.97,-404.21 406,-378 364.18,-357.31 320.76,-330.13 283.59,-304.87"/>
<polygon fill="#707070" stroke="#707070" points="285.49,-301.94 275.26,-299.18 281.54,-307.71 285.49,-301.94"/>
<text text-anchor="start" x="406.5" y="-359.8" font-family="Arial" font-size="24.00" fill="#707070">Stores responses</text>
<text text-anchor="start" x="406" y="-339.8" font-family="Arial" font-size="19.00" fill="#707070">[aiohttp&#45;client&#45;session]</text>
</g>
<!-- 3&#45;&gt;108 -->
<g id="112" class="edge">
<title>3&#45;&gt;108</title>
<path fill="none" stroke="#707070" stroke-dasharray="5,2" d="M671.39,-413.91C662.15,-401.93 652.78,-389.67 644,-378 626.84,-355.2 608.44,-330.16 591.87,-307.38"/>
<polygon fill="#707070" stroke="#707070" points="594.56,-305.13 585.85,-299.1 588.9,-309.24 594.56,-305.13"/>
<text text-anchor="start" x="644" y="-350.3" font-family="Arial" font-size="24.00" fill="#707070">Stores images</text>
</g>
<!-- 3&#45;&gt;109 -->
<g id="113" class="edge">
<title>3&#45;&gt;109</title>
<path fill="none" stroke="#707070" stroke-dasharray="5,2" d="M792.34,-413.79C817.79,-380.03 847.38,-340.78 872.5,-307.45"/>
<polygon fill="#707070" stroke="#707070" points="875.56,-309.2 878.79,-299.11 869.97,-304.99 875.56,-309.2"/>
<text text-anchor="start" x="848" y="-359.8" font-family="Arial" font-size="24.00" fill="#707070">Stores configuration</text>
<text text-anchor="start" x="908.5" y="-339.8" font-family="Arial" font-size="19.00" fill="#707070">[GSettings]</text>
</g>
<!-- 3&#45;&gt;110 -->
<g id="114" class="edge">
<title>3&#45;&gt;110</title>
<path fill="none" stroke="#707070" stroke-dasharray="5,2" d="M892.3,-445.26C952.41,-426.13 1020.98,-402.72 1082,-378 1136.26,-356.02 1194.45,-328.62 1244.95,-303.54"/>
<polygon fill="#707070" stroke="#707070" points="1246.57,-306.65 1253.95,-299.05 1243.44,-300.38 1246.57,-306.65"/>
<text text-anchor="start" x="1178" y="-359.8" font-family="Arial" font-size="24.00" fill="#707070">Notify</text>
<text text-anchor="start" x="1174" y="-339.8" font-family="Arial" font-size="19.00" fill="#707070">[D&#45;BUS]</text>
</g>
</g>
</svg>
