<?xml version="1.0" encoding="UTF-8" standalone="no"?>
<!DOCTYPE svg PUBLIC "-//W3C//DTD SVG 1.1//EN"
 "http://www.w3.org/Graphics/SVG/1.1/DTD/svg11.dtd">
<!-- Generated by graphviz version 2.43.0 (0)
 -->
<!-- Title: %3 Pages: 1 -->
<svg width="1236pt" height="614pt"
 viewBox="0.00 0.00 1236.00 614.00" xmlns="http://www.w3.org/2000/svg" xmlns:xlink="http://www.w3.org/1999/xlink">
<g id="graph0" class="graph" transform="scale(1 1) rotate(0) translate(4 610)">
<title>%3</title>
<polygon fill="white" stroke="transparent" points="-4,4 -4,-610 1232,-610 1232,4 -4,4"/>
<text text-anchor="start" x="472" y="-11.8" font-family="Arial" font-size="34.00">Argos &#45; Containers</text>
<g id="clust1" class="cluster">
<title>cluster_2</title>
<polygon fill="none" stroke="#444444" points="8,-64 8,-598 1220,-598 1220,-64 8,-64"/>
<text text-anchor="start" x="582" y="-92.8" font-family="Arial" font-size="24.00" fill="#444444">Argos</text>
<text text-anchor="start" x="537" y="-72.8" font-family="Arial" font-size="19.00" fill="#444444">[Software System]</text>
</g>
<!-- 3 -->
<g id="3" class="node">
<title>3</title>
<polygon fill="#1168bd" stroke="#0b4884" points="712,-573 394,-573 394,-414 712,-414 712,-573"/>
<text text-anchor="start" x="508.5" y="-524.8" font-family="Arial" font-size="34.00" fill="#ffffff">Argos</text>
<text text-anchor="start" x="423" y="-502.8" font-family="Arial" font-size="19.00" fill="#ffffff">[Container: Python executable]</text>
<text text-anchor="start" x="450" y="-465.8" font-family="Arial" font-size="24.00" fill="#ffffff">Client&#45;side desktop</text>
<text text-anchor="start" x="495" y="-441.8" font-family="Arial" font-size="24.00" fill="#ffffff">application</text>
</g>
<!-- 73 -->
<g id="73" class="node">
<title>73</title>
<polygon fill="#cccccc" stroke="#8e8e8e" points="291,-299 33,-299 33,-164 291,-164 291,-299"/>
<text text-anchor="start" x="112.5" y="-250.8" font-family="Arial" font-size="34.00" fill="#ffffff">Cache</text>
<text text-anchor="start" x="62" y="-228.8" font-family="Arial" font-size="19.00" fill="#ffffff">[Container: File system]</text>
<text text-anchor="start" x="72.5" y="-191.8" font-family="Arial" font-size="24.00" fill="#ffffff">Local file system</text>
</g>
<!-- 3&#45;&gt;73 -->
<g id="76" class="edge">
<title>3&#45;&gt;73</title>
<path fill="none" stroke="#707070" stroke-dasharray="5,2" d="M433.84,-413.72C415.79,-401.76 397.4,-389.56 380,-378 344.13,-354.16 304.98,-328.05 269.88,-304.62"/>
<polygon fill="#707070" stroke="#707070" points="271.78,-301.68 261.52,-299.04 267.89,-307.5 271.78,-301.68"/>
<text text-anchor="start" x="380" y="-350.3" font-family="Arial" font-size="24.00" fill="#707070">Stores images</text>
</g>
<!-- 74 -->
<g id="74" class="node">
<title>74</title>
<polygon fill="#cccccc" stroke="#8e8e8e" points="743,-299 363,-299 363,-164 743,-164 743,-299"/>
<text text-anchor="start" x="503.5" y="-250.8" font-family="Arial" font-size="34.00" fill="#ffffff">Config</text>
<text text-anchor="start" x="478" y="-228.8" font-family="Arial" font-size="19.00" fill="#ffffff">[Container: dconf]</text>
<text text-anchor="start" x="392" y="-191.8" font-family="Arial" font-size="24.00" fill="#ffffff">Service provided by local host</text>
</g>
<!-- 3&#45;&gt;74 -->
<g id="77" class="edge">
<title>3&#45;&gt;74</title>
<path fill="none" stroke="#707070" stroke-dasharray="5,2" d="M553,-413.79C553,-380.6 553,-342.11 553,-309.15"/>
<polygon fill="#707070" stroke="#707070" points="556.5,-309.11 553,-299.11 549.5,-309.11 556.5,-309.11"/>
<text text-anchor="start" x="553" y="-359.8" font-family="Arial" font-size="24.00" fill="#707070">Stores configuration</text>
<text text-anchor="start" x="613.5" y="-339.8" font-family="Arial" font-size="19.00" fill="#707070">[GSettings]</text>
</g>
<!-- 75 -->
<g id="75" class="node">
<title>75</title>
<polygon fill="#cccccc" stroke="#8e8e8e" points="1195,-299 815,-299 815,-164 1195,-164 1195,-299"/>
<text text-anchor="start" x="859" y="-250.8" font-family="Arial" font-size="34.00" fill="#ffffff">Notification Service</text>
<text text-anchor="start" x="958.5" y="-228.8" font-family="Arial" font-size="19.00" fill="#ffffff">[Container]</text>
<text text-anchor="start" x="844" y="-191.8" font-family="Arial" font-size="24.00" fill="#ffffff">Service provided by local host</text>
</g>
<!-- 3&#45;&gt;75 -->
<g id="78" class="edge">
<title>3&#45;&gt;75</title>
<path fill="none" stroke="#707070" stroke-dasharray="5,2" d="M712.15,-418.18C737.49,-405.34 763.18,-391.7 787,-378 825.71,-355.74 866.78,-329.17 902.7,-304.86"/>
<polygon fill="#707070" stroke="#707070" points="904.94,-307.57 911.24,-299.06 901,-301.78 904.94,-307.57"/>
<text text-anchor="start" x="858" y="-359.8" font-family="Arial" font-size="24.00" fill="#707070">Notify</text>
<text text-anchor="start" x="854" y="-339.8" font-family="Arial" font-size="19.00" fill="#707070">[D&#45;BUS]</text>
</g>
</g>
</svg>
