<?xml version="1.0" encoding="UTF-8" standalone="no"?>
<!DOCTYPE svg PUBLIC "-//W3C//DTD SVG 1.1//EN"
 "http://www.w3.org/Graphics/SVG/1.1/DTD/svg11.dtd">
<!-- Generated by graphviz version 2.43.0 (0)
 -->
<!-- Title: %3 Pages: 1 -->
<svg width="1118pt" height="1071pt"
 viewBox="0.00 0.00 1118.00 1071.00" xmlns="http://www.w3.org/2000/svg" xmlns:xlink="http://www.w3.org/1999/xlink">
<g id="graph0" class="graph" transform="scale(1 1) rotate(0) translate(4 1067)">
<title>%3</title>
<polygon fill="white" stroke="transparent" points="-4,4 -4,-1067 1114,-1067 1114,4 -4,4"/>
<text text-anchor="start" x="410" y="-11.8" font-family="Arial" font-size="34.00">System Landscape</text>
<g id="clust1" class="cluster">
<title>cluster_group_External music providers</title>
<polygon fill="none" stroke="#cccccc" points="8,-64 8,-348 1102,-348 1102,-64 8,-64"/>
<text text-anchor="start" x="422.5" y="-92.8" font-family="Arial" font-size="24.00" fill="#cccccc">External music providers</text>
<text text-anchor="start" x="523" y="-72.8" font-family="Arial" font-size="19.00" fill="#cccccc">[Group]</text>
</g>
<!-- 118 -->
<g id="118" class="node">
<title>118</title>
<polygon fill="#cccccc" stroke="#8e8e8e" points="254.5,-311 33.5,-311 33.5,-176 254.5,-176 254.5,-311"/>
<text text-anchor="start" x="62.5" y="-262.8" font-family="Arial" font-size="34.00" fill="#ffffff">Bandcamp</text>
<text text-anchor="start" x="67" y="-240.8" font-family="Arial" font-size="19.00" fill="#ffffff">[Software System]</text>
<text text-anchor="start" x="78.5" y="-203.8" font-family="Arial" font-size="24.00" fill="#ffffff">Music store.</text>
</g>
<!-- 119 -->
<g id="119" class="node">
<title>119</title>
<polygon fill="#cccccc" stroke="#8e8e8e" points="697,-311 327,-311 327,-176 697,-176 697,-311"/>
<text text-anchor="start" x="459.5" y="-262.8" font-family="Arial" font-size="34.00" fill="#ffffff">Jellyfin</text>
<text text-anchor="start" x="435" y="-240.8" font-family="Arial" font-size="19.00" fill="#ffffff">[Software System]</text>
<text text-anchor="start" x="356" y="-203.8" font-family="Arial" font-size="24.00" fill="#ffffff">Free software media system.</text>
</g>
<!-- 120 -->
<g id="120" class="node">
<title>120</title>
<polygon fill="#cccccc" stroke="#8e8e8e" points="1077,-323 769,-323 769,-164 1077,-164 1077,-323"/>
<text text-anchor="start" x="853.5" y="-274.8" font-family="Arial" font-size="34.00" fill="#ffffff">SomaFM</text>
<text text-anchor="start" x="846" y="-252.8" font-family="Arial" font-size="19.00" fill="#ffffff">[Software System]</text>
<text text-anchor="start" x="798" y="-215.8" font-family="Arial" font-size="24.00" fill="#ffffff">Listener&#45;supported and</text>
<text text-anchor="start" x="822" y="-191.8" font-family="Arial" font-size="24.00" fill="#ffffff">independent radio.</text>
</g>
<!-- 1 -->
<g id="1" class="node">
<title>1</title>
<polygon fill="#08427b" stroke="#052e56" points="676,-1063 348,-1063 348,-904 676,-904 676,-1063"/>
<text text-anchor="start" x="475.5" y="-1014.8" font-family="Arial" font-size="34.00" fill="#ffffff">User</text>
<text text-anchor="start" x="476.5" y="-992.8" font-family="Arial" font-size="19.00" fill="#ffffff">[Person]</text>
<text text-anchor="start" x="377" y="-955.8" font-family="Arial" font-size="24.00" fill="#ffffff">A user of Mopidy through</text>
<text text-anchor="start" x="477" y="-931.8" font-family="Arial" font-size="24.00" fill="#ffffff">Argos.</text>
</g>
<!-- 2 -->
<g id="2" class="node">
<title>2</title>
<polygon fill="#1168bd" stroke="#0b4884" points="699.5,-806 324.5,-806 324.5,-671 699.5,-671 699.5,-806"/>
<text text-anchor="start" x="467.5" y="-757.8" font-family="Arial" font-size="34.00" fill="#ffffff">Argos</text>
<text text-anchor="start" x="435" y="-735.8" font-family="Arial" font-size="19.00" fill="#ffffff">[Software System]</text>
<text text-anchor="start" x="353.5" y="-698.8" font-family="Arial" font-size="24.00" fill="#ffffff">Light weight Mopidy frontend.</text>
</g>
<!-- 1&#45;&gt;2 -->
<g id="116" class="edge">
<title>1&#45;&gt;2</title>
<path fill="none" stroke="#707070" stroke-dasharray="5,2" d="M512,-903.94C512,-875.91 512,-844.37 512,-816.47"/>
<polygon fill="#707070" stroke="#707070" points="515.5,-816.37 512,-806.37 508.5,-816.37 515.5,-816.37"/>
<text text-anchor="start" x="512" y="-848.8" font-family="Arial" font-size="24.00" fill="#707070">Uses</text>
</g>
<!-- 115 -->
<g id="115" class="node">
<title>115</title>
<polygon fill="#cccccc" stroke="#8e8e8e" points="671.5,-556 352.5,-556 352.5,-421 671.5,-421 671.5,-556"/>
<text text-anchor="start" x="457" y="-507.8" font-family="Arial" font-size="34.00" fill="#ffffff">Mopidy</text>
<text text-anchor="start" x="435" y="-485.8" font-family="Arial" font-size="19.00" fill="#ffffff">[Software System]</text>
<text text-anchor="start" x="381.5" y="-448.8" font-family="Arial" font-size="24.00" fill="#ffffff">Extensible music server.</text>
</g>
<!-- 115&#45;&gt;118 -->
<g id="121" class="edge">
<title>115&#45;&gt;118</title>
<path fill="none" stroke="#707070" stroke-dasharray="5,2" d="M389.49,-420.98C369.68,-409.4 349.58,-397.17 331,-385 299.33,-364.26 265.92,-339.99 236.25,-317.51"/>
<polygon fill="#707070" stroke="#707070" points="238.06,-314.49 227.98,-311.22 233.82,-320.06 238.06,-314.49"/>
<text text-anchor="start" x="331" y="-365.8" font-family="Arial" font-size="24.00" fill="#707070">Uses (optional)</text>
</g>
<!-- 115&#45;&gt;119 -->
<g id="122" class="edge">
<title>115&#45;&gt;119</title>
<path fill="none" stroke="#707070" stroke-dasharray="5,2" d="M512,-420.78C512,-389.97 512,-353.22 512,-321.27"/>
<polygon fill="#707070" stroke="#707070" points="515.5,-321.07 512,-311.07 508.5,-321.07 515.5,-321.07"/>
<text text-anchor="start" x="512" y="-365.8" font-family="Arial" font-size="24.00" fill="#707070">Uses (optional)</text>
</g>
<!-- 115&#45;&gt;120 -->
<g id="123" class="edge">
<title>115&#45;&gt;120</title>
<path fill="none" stroke="#707070" stroke-dasharray="5,2" d="M631.1,-420.79C651.81,-408.99 673.08,-396.72 693,-385 723.69,-366.94 756.45,-347.21 787.35,-328.39"/>
<polygon fill="#707070" stroke="#707070" points="789.3,-331.3 796.01,-323.1 785.65,-325.32 789.3,-331.3"/>
<text text-anchor="start" x="730" y="-365.8" font-family="Arial" font-size="24.00" fill="#707070">Uses (optional)</text>
</g>
<!-- 2&#45;&gt;115 -->
<g id="117" class="edge">
<title>2&#45;&gt;115</title>
<path fill="none" stroke="#707070" stroke-dasharray="5,2" d="M512,-670.71C512,-638.6 512,-599.93 512,-566.57"/>
<polygon fill="#707070" stroke="#707070" points="515.5,-566.4 512,-556.4 508.5,-566.4 515.5,-566.4"/>
<text text-anchor="start" x="550.5" y="-616.8" font-family="Arial" font-size="24.00" fill="#707070">Call API</text>
<text text-anchor="start" x="512" y="-596.8" font-family="Arial" font-size="19.00" fill="#707070">[HTTP/JSON&#45;RPC]</text>
</g>
</g>
</svg>
