<?xml version="1.0" encoding="UTF-8" standalone="no"?>
<!DOCTYPE svg PUBLIC "-//W3C//DTD SVG 1.1//EN"
 "http://www.w3.org/Graphics/SVG/1.1/DTD/svg11.dtd">
<!-- Generated by graphviz version 2.43.0 (0)
 -->
<!-- Title: %3 Pages: 1 -->
<svg width="385pt" height="706pt"
 viewBox="0.00 0.00 385.00 706.00" xmlns="http://www.w3.org/2000/svg" xmlns:xlink="http://www.w3.org/1999/xlink">
<g id="graph0" class="graph" transform="scale(1 1) rotate(0) translate(4 702)">
<title>%3</title>
<polygon fill="white" stroke="transparent" points="-4,4 -4,-702 381,-702 381,4 -4,4"/>
<text text-anchor="start" x="8" y="-11.8" font-family="Arial" font-size="34.00">Argos &#45; System Context</text>
<!-- 1 -->
<g id="1" class="node">
<title>1</title>
<polygon fill="#08427b" stroke="#052e56" points="352.5,-698 24.5,-698 24.5,-539 352.5,-539 352.5,-698"/>
<text text-anchor="start" x="152" y="-649.8" font-family="Arial" font-size="34.00" fill="#ffffff">User</text>
<text text-anchor="start" x="153" y="-627.8" font-family="Arial" font-size="19.00" fill="#ffffff">[Person]</text>
<text text-anchor="start" x="53.5" y="-590.8" font-family="Arial" font-size="24.00" fill="#ffffff">A user of Mopidy through</text>
<text text-anchor="start" x="153.5" y="-566.8" font-family="Arial" font-size="24.00" fill="#ffffff">Argos.</text>
</g>
<!-- 2 -->
<g id="2" class="node">
<title>2</title>
<polygon fill="#1168bd" stroke="#0b4884" points="376,-441 1,-441 1,-306 376,-306 376,-441"/>
<text text-anchor="start" x="144" y="-392.8" font-family="Arial" font-size="34.00" fill="#ffffff">Argos</text>
<text text-anchor="start" x="111.5" y="-370.8" font-family="Arial" font-size="19.00" fill="#ffffff">[Software System]</text>
<text text-anchor="start" x="30" y="-333.8" font-family="Arial" font-size="24.00" fill="#ffffff">Light weight Mopidy frontend.</text>
</g>
<!-- 1&#45;&gt;2 -->
<g id="109" class="edge">
<title>1&#45;&gt;2</title>
<path fill="none" stroke="#707070" stroke-dasharray="5,2" d="M188.5,-538.94C188.5,-510.91 188.5,-479.37 188.5,-451.47"/>
<polygon fill="#707070" stroke="#707070" points="192,-451.37 188.5,-441.37 185,-451.37 192,-451.37"/>
<text text-anchor="start" x="188.5" y="-483.8" font-family="Arial" font-size="24.00" fill="#707070">Uses</text>
</g>
<!-- 108 -->
<g id="108" class="node">
<title>108</title>
<polygon fill="#cccccc" stroke="#8e8e8e" points="348,-191 29,-191 29,-56 348,-56 348,-191"/>
<text text-anchor="start" x="133.5" y="-142.8" font-family="Arial" font-size="34.00" fill="#ffffff">Mopidy</text>
<text text-anchor="start" x="111.5" y="-120.8" font-family="Arial" font-size="19.00" fill="#ffffff">[Software System]</text>
<text text-anchor="start" x="58" y="-83.8" font-family="Arial" font-size="24.00" fill="#ffffff">Extensible music server.</text>
</g>
<!-- 2&#45;&gt;108 -->
<g id="110" class="edge">
<title>2&#45;&gt;108</title>
<path fill="none" stroke="#707070" stroke-dasharray="5,2" d="M188.5,-305.71C188.5,-273.6 188.5,-234.93 188.5,-201.57"/>
<polygon fill="#707070" stroke="#707070" points="192,-201.4 188.5,-191.4 185,-201.4 192,-201.4"/>
<text text-anchor="start" x="227" y="-251.8" font-family="Arial" font-size="24.00" fill="#707070">Call API</text>
<text text-anchor="start" x="188.5" y="-231.8" font-family="Arial" font-size="19.00" fill="#707070">[HTTP/JSON&#45;RPC]</text>
</g>
</g>
</svg>
