<?xml version="1.0" encoding="UTF-8" standalone="no"?>
<!DOCTYPE svg PUBLIC "-//W3C//DTD SVG 1.1//EN"
 "http://www.w3.org/Graphics/SVG/1.1/DTD/svg11.dtd">
<!-- Generated by graphviz version 2.43.0 (0)
 -->
<!-- Title: %3 Pages: 1 -->
<svg width="738pt" height="1047pt"
 viewBox="0.00 0.00 738.00 1047.00" xmlns="http://www.w3.org/2000/svg" xmlns:xlink="http://www.w3.org/1999/xlink">
<g id="graph0" class="graph" transform="scale(1 1) rotate(0) translate(4 1043)">
<title>%3</title>
<polygon fill="white" stroke="transparent" points="-4,4 -4,-1043 734,-1043 734,4 -4,4"/>
<text text-anchor="start" x="220" y="-11.8" font-family="Arial" font-size="34.00">System Landscape</text>
<g id="clust1" class="cluster">
<title>cluster_group_External music providers</title>
<polygon fill="none" stroke="#cccccc" points="8,-64 8,-324 722,-324 722,-64 8,-64"/>
<text text-anchor="start" x="232.5" y="-92.8" font-family="Arial" font-size="24.00" fill="#cccccc">External music providers</text>
<text text-anchor="start" x="333" y="-72.8" font-family="Arial" font-size="19.00" fill="#cccccc">[Group]</text>
</g>
<!-- 82 -->
<g id="82" class="node">
<title>82</title>
<polygon fill="#cccccc" stroke="#8e8e8e" points="254.5,-299 33.5,-299 33.5,-164 254.5,-164 254.5,-299"/>
<text text-anchor="start" x="62.5" y="-250.8" font-family="Arial" font-size="34.00" fill="#ffffff">Bandcamp</text>
<text text-anchor="start" x="67" y="-228.8" font-family="Arial" font-size="19.00" fill="#ffffff">[Software System]</text>
<text text-anchor="start" x="78.5" y="-191.8" font-family="Arial" font-size="24.00" fill="#ffffff">Music store.</text>
</g>
<!-- 83 -->
<g id="83" class="node">
<title>83</title>
<polygon fill="#cccccc" stroke="#8e8e8e" points="697,-299 327,-299 327,-164 697,-164 697,-299"/>
<text text-anchor="start" x="459.5" y="-250.8" font-family="Arial" font-size="34.00" fill="#ffffff">Jellyfin</text>
<text text-anchor="start" x="435" y="-228.8" font-family="Arial" font-size="19.00" fill="#ffffff">[Software System]</text>
<text text-anchor="start" x="356" y="-191.8" font-family="Arial" font-size="24.00" fill="#ffffff">Free software media system.</text>
</g>
<!-- 1 -->
<g id="1" class="node">
<title>1</title>
<polygon fill="#08427b" stroke="#052e56" points="492,-1039 164,-1039 164,-880 492,-880 492,-1039"/>
<text text-anchor="start" x="291.5" y="-990.8" font-family="Arial" font-size="34.00" fill="#ffffff">User</text>
<text text-anchor="start" x="292.5" y="-968.8" font-family="Arial" font-size="19.00" fill="#ffffff">[Person]</text>
<text text-anchor="start" x="193" y="-931.8" font-family="Arial" font-size="24.00" fill="#ffffff">A user of Mopidy through</text>
<text text-anchor="start" x="293" y="-907.8" font-family="Arial" font-size="24.00" fill="#ffffff">Argos.</text>
</g>
<!-- 2 -->
<g id="2" class="node">
<title>2</title>
<polygon fill="#1168bd" stroke="#0b4884" points="515.5,-782 140.5,-782 140.5,-647 515.5,-647 515.5,-782"/>
<text text-anchor="start" x="283.5" y="-733.8" font-family="Arial" font-size="34.00" fill="#ffffff">Argos</text>
<text text-anchor="start" x="251" y="-711.8" font-family="Arial" font-size="19.00" fill="#ffffff">[Software System]</text>
<text text-anchor="start" x="169.5" y="-674.8" font-family="Arial" font-size="24.00" fill="#ffffff">Light weight Mopidy frontend.</text>
</g>
<!-- 1&#45;&gt;2 -->
<g id="80" class="edge">
<title>1&#45;&gt;2</title>
<path fill="none" stroke="#707070" stroke-dasharray="5,2" d="M328,-879.94C328,-851.91 328,-820.37 328,-792.47"/>
<polygon fill="#707070" stroke="#707070" points="331.5,-792.37 328,-782.37 324.5,-792.37 331.5,-792.37"/>
<text text-anchor="start" x="328" y="-824.8" font-family="Arial" font-size="24.00" fill="#707070">Uses</text>
</g>
<!-- 79 -->
<g id="79" class="node">
<title>79</title>
<polygon fill="#cccccc" stroke="#8e8e8e" points="487.5,-532 168.5,-532 168.5,-397 487.5,-397 487.5,-532"/>
<text text-anchor="start" x="273" y="-483.8" font-family="Arial" font-size="34.00" fill="#ffffff">Mopidy</text>
<text text-anchor="start" x="251" y="-461.8" font-family="Arial" font-size="19.00" fill="#ffffff">[Software System]</text>
<text text-anchor="start" x="197.5" y="-424.8" font-family="Arial" font-size="24.00" fill="#ffffff">Extensible music server.</text>
</g>
<!-- 2&#45;&gt;79 -->
<g id="81" class="edge">
<title>2&#45;&gt;79</title>
<path fill="none" stroke="#707070" stroke-dasharray="5,2" d="M328,-646.71C328,-614.6 328,-575.93 328,-542.57"/>
<polygon fill="#707070" stroke="#707070" points="331.5,-542.4 328,-532.4 324.5,-542.4 331.5,-542.4"/>
<text text-anchor="start" x="366.5" y="-592.8" font-family="Arial" font-size="24.00" fill="#707070">Call API</text>
<text text-anchor="start" x="328" y="-572.8" font-family="Arial" font-size="19.00" fill="#707070">[HTTP/JSON&#45;RPC]</text>
</g>
<!-- 79&#45;&gt;82 -->
<g id="84" class="edge">
<title>79&#45;&gt;82</title>
<path fill="none" stroke="#707070" stroke-dasharray="5,2" d="M258.59,-396.95C247.61,-385.33 236.69,-373.09 227,-361 213.72,-344.44 200.65,-325.69 188.94,-307.74"/>
<polygon fill="#707070" stroke="#707070" points="191.67,-305.52 183.31,-299.01 185.78,-309.31 191.67,-305.52"/>
<text text-anchor="start" x="227" y="-341.8" font-family="Arial" font-size="24.00" fill="#707070">Uses (optional)</text>
</g>
<!-- 79&#45;&gt;83 -->
<g id="85" class="edge">
<title>79&#45;&gt;83</title>
<path fill="none" stroke="#707070" stroke-dasharray="5,2" d="M380.97,-397C403.29,-368.97 429.38,-336.23 452.37,-307.37"/>
<polygon fill="#707070" stroke="#707070" points="455.27,-309.34 458.76,-299.34 449.8,-304.98 455.27,-309.34"/>
<text text-anchor="start" x="425" y="-341.8" font-family="Arial" font-size="24.00" fill="#707070">Uses (optional)</text>
</g>
</g>
</svg>
